<mxfile host="Electron" agent="Mozilla/5.0 (Windows NT 10.0; Win64; x64) AppleWebKit/537.36 (KHTML, like Gecko) draw.io/24.7.17 Chrome/128.0.6613.36 Electron/32.0.1 Safari/537.36" version="24.7.17" pages="2">
  <diagram name="Страница — 1" id="G-87hzpk34L3SNV2pSxH">
    <mxGraphModel dx="1219" dy="1297" grid="0" gridSize="10" guides="1" tooltips="1" connect="1" arrows="1" fold="1" page="0" pageScale="1" pageWidth="827" pageHeight="1169" math="0" shadow="0">
      <root>
        <mxCell id="0" />
        <mxCell id="1" parent="0" />
        <mxCell id="FuRbYXdG-T8dkK0esf20-15" value="" style="rounded=1;whiteSpace=wrap;html=1;arcSize=4;" vertex="1" parent="1">
          <mxGeometry x="-11" y="-507" width="524" height="289" as="geometry" />
        </mxCell>
        <mxCell id="n4JKIu-Qerj483weCeP9-4" value="read" style="edgeStyle=orthogonalEdgeStyle;rounded=1;orthogonalLoop=1;jettySize=auto;html=1;entryX=0;entryY=0.5;entryDx=0;entryDy=0;curved=0;flowAnimation=0;endArrow=oval;endFill=1;startArrow=oval;startFill=1;" edge="1" parent="1" source="P8xs7sD7qMRsXOZH-fAe-2" target="nj6cIDg6s4Kl3HThlzyw-3">
          <mxGeometry x="-0.6878" relative="1" as="geometry">
            <Array as="points">
              <mxPoint x="133" y="422" />
            </Array>
            <mxPoint as="offset" />
          </mxGeometry>
        </mxCell>
        <mxCell id="x-3AmGyZtqkXAsrY7Yld-14" style="edgeStyle=orthogonalEdgeStyle;rounded=0;orthogonalLoop=1;jettySize=auto;html=1;exitX=0.5;exitY=1;exitDx=0;exitDy=0;entryX=0.5;entryY=0;entryDx=0;entryDy=0;endArrow=block;endFill=1;startArrow=oval;startFill=1;flowAnimation=1;" parent="1" source="nj6cIDg6s4Kl3HThlzyw-3" target="x-3AmGyZtqkXAsrY7Yld-15" edge="1">
          <mxGeometry relative="1" as="geometry">
            <mxPoint x="316" y="488" as="targetPoint" />
          </mxGeometry>
        </mxCell>
        <mxCell id="n4JKIu-Qerj483weCeP9-3" style="edgeStyle=orthogonalEdgeStyle;rounded=0;orthogonalLoop=1;jettySize=auto;html=1;exitX=0.5;exitY=1;exitDx=0;exitDy=0;entryX=0.5;entryY=0;entryDx=0;entryDy=0;flowAnimation=1;endArrow=block;endFill=1;startArrow=oval;startFill=1;" edge="1" parent="1" source="x-3AmGyZtqkXAsrY7Yld-15" target="nj6cIDg6s4Kl3HThlzyw-5">
          <mxGeometry relative="1" as="geometry" />
        </mxCell>
        <mxCell id="x-3AmGyZtqkXAsrY7Yld-15" value="" style="rounded=1;whiteSpace=wrap;html=1;shadow=1;shadowOffsetX=2;shadowOpacity=50;" parent="1" vertex="1">
          <mxGeometry x="238.01" y="522" width="130" height="65" as="geometry" />
        </mxCell>
        <mxCell id="nj6cIDg6s4Kl3HThlzyw-37" value="" style="rounded=1;whiteSpace=wrap;html=1;arcSize=8;shadow=1;shadowOpacity=50;" parent="1" vertex="1">
          <mxGeometry x="333.14" y="821" width="204" height="165" as="geometry" />
        </mxCell>
        <mxCell id="n4JKIu-Qerj483weCeP9-1" value="check logs" style="edgeStyle=orthogonalEdgeStyle;rounded=0;orthogonalLoop=1;jettySize=auto;html=1;exitX=0.5;exitY=1;exitDx=0;exitDy=0;entryX=0.5;entryY=0;entryDx=0;entryDy=0;flowAnimation=1;endArrow=block;endFill=1;startArrow=oval;startFill=1;" edge="1" parent="1" source="nj6cIDg6s4Kl3HThlzyw-1" target="nj6cIDg6s4Kl3HThlzyw-3">
          <mxGeometry x="-0.125" relative="1" as="geometry">
            <mxPoint as="offset" />
          </mxGeometry>
        </mxCell>
        <mxCell id="nj6cIDg6s4Kl3HThlzyw-1" value="Elasticsearch" style="shape=image;verticalLabelPosition=top;verticalAlign=bottom;imageAspect=0;aspect=fixed;image=data:image/svg+xml,PHN2ZyB4bWxucz0iaHR0cDovL3d3dy53My5vcmcvMjAwMC9zdmciIHZpZXdCb3g9IjAgMCAxMjggMTI4Ij4mI3hhOyAgICA8cGF0aCBkPSJNNCA2NGMwIDUuNTM1Ljc3NyAxMC44NzkgMi4wOTggMTZIODRjOC44MzYgMCAxNi03LjE2NCAxNi0xNnMtNy4xNjQtMTYtMTYtMTZINi4wOThBNjMuNzM4IDYzLjczOCAwIDAgMCA0IDY0IiBmaWxsPSIjMzQzNzQxIi8+JiN4YTsgICAgPHBhdGggZD0iTTExMS42OTUgMzAuNjQ4QTYxLjQ4NSA2MS40ODUgMCAwIDAgMTE3LjkyMiAyNEMxMDYuMTg4IDkuMzc5IDg4LjE5OSAwIDY4IDAgNDIuNzE1IDAgMjAuOTU3IDE0LjcxIDEwLjU3NCAzNkg5OC4wNGEyMC4xMjMgMjAuMTIzIDAgMCAwIDEzLjY1Mi01LjM1MiIgZmlsbD0iI2ZlYzUxNCIvPiYjeGE7ICAgIDxwYXRoIGQ9Ik05OC4wNCA5MkgxMC41NzdDMjAuOTYxIDExMy4yOSA0Mi43MTUgMTI4IDY4IDEyOGMyMC4yIDAgMzguMTg4LTkuMzgzIDQ5LjkyMi0yNGE2MS4xIDYxLjEgMCAwIDAtNi4yMjctNi42NDhBMjAuMTMzIDIwLjEzMyAwIDAgMCA5OC4wNCA5MiIgZmlsbD0iIzAwYmZiMyIvPiYjeGE7PC9zdmc+;shadow=1;labelPosition=center;align=center;shadowOpacity=50;" parent="1" vertex="1">
          <mxGeometry x="263" y="150" width="80" height="80" as="geometry" />
        </mxCell>
        <mxCell id="x-3AmGyZtqkXAsrY7Yld-1" value="save graphs files" style="edgeStyle=orthogonalEdgeStyle;rounded=1;orthogonalLoop=1;jettySize=auto;html=1;exitX=1;exitY=0.5;exitDx=0;exitDy=0;endArrow=block;endFill=1;startArrow=oval;startFill=1;curved=0;flowAnimation=1;" parent="1" source="nj6cIDg6s4Kl3HThlzyw-3" target="8uVEAsozO4JElIM9E6pN-1" edge="1">
          <mxGeometry x="0.5514" relative="1" as="geometry">
            <Array as="points">
              <mxPoint x="406" y="423" />
              <mxPoint x="476" y="423" />
            </Array>
            <mxPoint as="offset" />
          </mxGeometry>
        </mxCell>
        <mxCell id="nj6cIDg6s4Kl3HThlzyw-3" value="" style="rounded=1;whiteSpace=wrap;html=1;shadow=1;shadowOpacity=50;" parent="1" vertex="1">
          <mxGeometry x="238" y="390" width="130" height="65" as="geometry" />
        </mxCell>
        <mxCell id="nj6cIDg6s4Kl3HThlzyw-2" value="" style="shape=image;verticalLabelPosition=bottom;verticalAlign=top;imageAspect=0;aspect=fixed;image=data:image/svg+xml,PHN2ZyB4bWxucz0iaHR0cDovL3d3dy53My5vcmcvMjAwMC9zdmciIHZpZXdCb3g9IjAgMCAxMjggMTI4Ij48bGluZWFyR3JhZGllbnQgZ3JhZGllbnRUcmFuc2Zvcm09Im1hdHJpeCguNTYzIDAgMCAtLjU2OCAtMjkuMjE1IDcwNy44MTcpIiB5Mj0iMTE1MS4wODkiIHgyPSIxNzAuNjU5IiB5MT0iMTIzNy40NzYiIHgxPSI3MC4yNTIiIGdyYWRpZW50VW5pdHM9InVzZXJTcGFjZU9uVXNlIiBpZD0icHl0aG9uLW9yaWdpbmFsLWEiPjxzdG9wIHN0b3AtY29sb3I9IiM1QTlGRDQiIG9mZnNldD0iMCIvPjxzdG9wIHN0b3AtY29sb3I9IiMzMDY5OTgiIG9mZnNldD0iMSIvPjwvbGluZWFyR3JhZGllbnQ+PGxpbmVhckdyYWRpZW50IGdyYWRpZW50VHJhbnNmb3JtPSJtYXRyaXgoLjU2MyAwIDAgLS41NjggLTI5LjIxNSA3MDcuODE3KSIgeTI9IjExNDkuNTM3IiB4Mj0iMTczLjYyIiB5MT0iMTA5OC44MTEiIHgxPSIyMDkuNDc0IiBncmFkaWVudFVuaXRzPSJ1c2VyU3BhY2VPblVzZSIgaWQ9InB5dGhvbi1vcmlnaW5hbC1iIj48c3RvcCBzdG9wLWNvbG9yPSIjRkZENDNCIiBvZmZzZXQ9IjAiLz48c3RvcCBzdG9wLWNvbG9yPSIjRkZFODczIiBvZmZzZXQ9IjEiLz48L2xpbmVhckdyYWRpZW50PjxwYXRoIHRyYW5zZm9ybT0idHJhbnNsYXRlKDAgMTAuMjYpIiBkPSJNNjMuMzkxIDEuOTg4Yy00LjIyMi4wMi04LjI1Mi4zNzktMTEuOCAxLjAwNy0xMC40NSAxLjg0Ni0xMi4zNDYgNS43MS0xMi4zNDYgMTIuODM3djkuNDExaDI0LjY5M3YzLjEzN0gyOS45NzdjLTcuMTc2IDAtMTMuNDYgNC4zMTMtMTUuNDI2IDEyLjUyMS0yLjI2OCA5LjQwNS0yLjM2OCAxNS4yNzUgMCAyNS4wOTYgMS43NTUgNy4zMTEgNS45NDcgMTIuNTE5IDEzLjEyNCAxMi41MTloOC40OTFWNjcuMjM0YzAtOC4xNTEgNy4wNTEtMTUuMzQgMTUuNDI2LTE1LjM0aDI0LjY2NWM2Ljg2NiAwIDEyLjM0Ni01LjY1NCAxMi4zNDYtMTIuNTQ4VjE1LjgzM2MwLTYuNjkzLTUuNjQ2LTExLjcyLTEyLjM0Ni0xMi44MzctNC4yNDQtLjcwNi04LjY0NS0xLjAyNy0xMi44NjYtMS4wMDh6TTUwLjAzNyA5LjU1N2MyLjU1IDAgNC42MzQgMi4xMTcgNC42MzQgNC43MjEgMCAyLjU5My0yLjA4MyA0LjY5LTQuNjM0IDQuNjktMi41NiAwLTQuNjMzLTIuMDk3LTQuNjMzLTQuNjktLjAwMS0yLjYwNCAyLjA3My00LjcyMSA0LjYzMy00LjcyMXoiIGZpbGw9InVybCgjcHl0aG9uLW9yaWdpbmFsLWEpIi8+PHBhdGggdHJhbnNmb3JtPSJ0cmFuc2xhdGUoMCAxMC4yNikiIGQ9Ik05MS42ODIgMjguMzh2MTAuOTY2YzAgOC41LTcuMjA4IDE1LjY1NS0xNS40MjYgMTUuNjU1SDUxLjU5MWMtNi43NTYgMC0xMi4zNDYgNS43ODMtMTIuMzQ2IDEyLjU0OXYyMy41MTVjMCA2LjY5MSA1LjgxOCAxMC42MjggMTIuMzQ2IDEyLjU0NyA3LjgxNiAyLjI5NyAxNS4zMTIgMi43MTMgMjQuNjY1IDAgNi4yMTYtMS44MDEgMTIuMzQ2LTUuNDIzIDEyLjM0Ni0xMi41NDd2LTkuNDEySDYzLjkzOHYtMy4xMzhoMzcuMDEyYzcuMTc2IDAgOS44NTItNS4wMDUgMTIuMzQ4LTEyLjUxOSAyLjU3OC03LjczNSAyLjQ2Ny0xNS4xNzQgMC0yNS4wOTYtMS43NzQtNy4xNDUtNS4xNjEtMTIuNTIxLTEyLjM0OC0xMi41MjFoLTkuMjY4ek03Ny44MDkgODcuOTI3YzIuNTYxIDAgNC42MzQgMi4wOTcgNC42MzQgNC42OTIgMCAyLjYwMi0yLjA3NCA0LjcxOS00LjYzNCA0LjcxOS0yLjU1IDAtNC42MzMtMi4xMTctNC42MzMtNC43MTkgMC0yLjU5NSAyLjA4My00LjY5MiA0LjYzMy00LjY5MnoiIGZpbGw9InVybCgjcHl0aG9uLW9yaWdpbmFsLWIpIi8+PHJhZGlhbEdyYWRpZW50IGdyYWRpZW50VW5pdHM9InVzZXJTcGFjZU9uVXNlIiBncmFkaWVudFRyYW5zZm9ybT0ibWF0cml4KDAgLS4yNCAtMS4wNTUgMCA1MzIuOTc5IDU1Ny41NzYpIiByPSIyNi43NDMiIGN5PSI0NDQuNDUiIGN4PSIxODI1LjY3OCIgaWQ9InB5dGhvbi1vcmlnaW5hbC1jIj48c3RvcCBzdG9wLW9wYWNpdHk9Ii40OTgiIHN0b3AtY29sb3I9IiNCOEI4QjgiIG9mZnNldD0iMCIvPjxzdG9wIHN0b3Atb3BhY2l0eT0iMCIgc3RvcC1jb2xvcj0iIzdGN0Y3RiIgb2Zmc2V0PSIxIi8+PC9yYWRpYWxHcmFkaWVudD48cGF0aCBkPSJNOTcuMzA5IDExOS41OTdjMCAzLjU0My0xNC44MTYgNi40MTYtMzMuMDkxIDYuNDE2LTE4LjI3NiAwLTMzLjA5Mi0yLjg3My0zMy4wOTItNi40MTYgMC0zLjU0NCAxNC44MTUtNi40MTcgMzMuMDkyLTYuNDE3IDE4LjI3NSAwIDMzLjA5MSAyLjg3MiAzMy4wOTEgNi40MTd6IiBmaWxsPSJ1cmwoI3B5dGhvbi1vcmlnaW5hbC1jKSIgb3BhY2l0eT0iLjQ0NCIvPjwvc3ZnPg==" parent="1" vertex="1">
          <mxGeometry x="243" y="397.5" width="50" height="50" as="geometry" />
        </mxCell>
        <mxCell id="nj6cIDg6s4Kl3HThlzyw-4" value="GraphGen" style="text;html=1;align=center;verticalAlign=middle;resizable=0;points=[];autosize=1;strokeColor=none;fillColor=none;" parent="1" vertex="1">
          <mxGeometry x="283" y="407.5" width="80" height="30" as="geometry" />
        </mxCell>
        <mxCell id="nj6cIDg6s4Kl3HThlzyw-16" value="" style="edgeStyle=orthogonalEdgeStyle;rounded=0;orthogonalLoop=1;jettySize=auto;html=1;entryX=1;entryY=0.5;entryDx=0;entryDy=0;endArrow=oval;endFill=1;startArrow=oval;startFill=1;exitX=0;exitY=0.5;exitDx=0;exitDy=0;" parent="1" source="nj6cIDg6s4Kl3HThlzyw-59" target="nj6cIDg6s4Kl3HThlzyw-5" edge="1">
          <mxGeometry relative="1" as="geometry" />
        </mxCell>
        <mxCell id="nj6cIDg6s4Kl3HThlzyw-17" value="" style="edgeStyle=orthogonalEdgeStyle;rounded=0;orthogonalLoop=1;jettySize=auto;html=1;endArrow=oval;endFill=1;startArrow=oval;startFill=1;exitX=1;exitY=0.5;exitDx=0;exitDy=0;" parent="1" source="nj6cIDg6s4Kl3HThlzyw-59" target="nj6cIDg6s4Kl3HThlzyw-15" edge="1">
          <mxGeometry relative="1" as="geometry" />
        </mxCell>
        <mxCell id="nj6cIDg6s4Kl3HThlzyw-15" value="" style="image;aspect=fixed;html=1;points=[];align=center;fontSize=12;image=img/lib/azure2/azure_stack/User_Subscriptions.svg;shadow=1;shadowOpacity=50;" parent="1" vertex="1">
          <mxGeometry x="645.14" y="667.25" width="85.52" height="83" as="geometry" />
        </mxCell>
        <mxCell id="nj6cIDg6s4Kl3HThlzyw-21" value="auth" style="edgeStyle=orthogonalEdgeStyle;rounded=1;orthogonalLoop=1;jettySize=auto;html=1;exitX=0;exitY=0.5;exitDx=0;exitDy=0;endArrow=classic;endFill=1;startArrow=oval;startFill=1;curved=0;entryX=0.25;entryY=1;entryDx=0;entryDy=0;fillColor=#e1d5e7;strokeColor=#9673a6;flowAnimation=1;" parent="1" source="nj6cIDg6s4Kl3HThlzyw-5" target="nj6cIDg6s4Kl3HThlzyw-49" edge="1">
          <mxGeometry x="0.6705" y="1" relative="1" as="geometry">
            <mxPoint x="316" y="547.75" as="targetPoint" />
            <mxPoint as="offset" />
          </mxGeometry>
        </mxCell>
        <mxCell id="P8xs7sD7qMRsXOZH-fAe-6" value="read/write" style="edgeStyle=orthogonalEdgeStyle;rounded=1;orthogonalLoop=1;jettySize=auto;html=1;exitX=0.25;exitY=0;exitDx=0;exitDy=0;curved=0;flowAnimation=0;startArrow=block;startFill=1;" parent="1" source="nj6cIDg6s4Kl3HThlzyw-5" target="P8xs7sD7qMRsXOZH-fAe-2" edge="1">
          <mxGeometry x="0.6653" relative="1" as="geometry">
            <mxPoint as="offset" />
          </mxGeometry>
        </mxCell>
        <mxCell id="nj6cIDg6s4Kl3HThlzyw-5" value="" style="rounded=1;whiteSpace=wrap;html=1;shadow=1;shadowOffsetX=2;shadowOpacity=50;" parent="1" vertex="1">
          <mxGeometry x="238.01" y="676.13" width="130" height="65" as="geometry" />
        </mxCell>
        <mxCell id="nj6cIDg6s4Kl3HThlzyw-7" value="FastAPI" style="text;html=1;align=center;verticalAlign=middle;resizable=0;points=[];autosize=1;strokeColor=none;fillColor=none;" parent="1" vertex="1">
          <mxGeometry x="284.28" y="693.75" width="70" height="30" as="geometry" />
        </mxCell>
        <mxCell id="nj6cIDg6s4Kl3HThlzyw-8" value="" style="shape=image;verticalLabelPosition=bottom;verticalAlign=top;imageAspect=0;aspect=fixed;image=data:image/svg+xml,PHN2ZyB4bWxucz0iaHR0cDovL3d3dy53My5vcmcvMjAwMC9zdmciIHZpZXdCb3g9IjAgMCAxMjggMTI4Ij48cGF0aCBmaWxsPSIjMDQ5Njg4IiBkPSJNNTYuODEzIDEyNy41ODZjLTEuOTAzLS4yMjctMy44OTktLjUyLTQuNDM0LS42NTJhNDguMDc4IDQ4LjA3OCAwIDAwLTIuMzc1LS41IDM2LjA0MiAzNi4wNDIgMCAwMS0yLjcwMy0uNjMzYy00LjE0NS0xLjE4OC00LjQ0Mi0xLjI4NS03LjU2Ny0yLjU2My0yLjg3NS0xLjE3Mi04LjE3Mi0zLjkxLTkuOTg0LTUuMTU2LS40OTYtLjM0NC0uOTYtLjYyMS0xLjAzMS0uNjIxLS4wNyAwLTEuMjMtLjgxNi0yLjU3OC0xLjgxMy04LjU3LTYuMzQzLTE1LjAwNC0xNC4wNDMtMTkuNjUzLTIzLjUyNy0uOC0xLjYyOS0xLjQ1My0zLjA3NC0xLjQ1My0zLjIxIDAtLjEzNC0uMTQ0LS41MDUtLjMyLS44MTctLjM2My0uNjQ5LS44OC0yLjA0Ny0xLjI5Ny0zLjQ5MmEyMC4wNDcgMjAuMDQ3IDAgMDAtLjYyNS0xLjgxM2MtLjE5NS0uNDYtLjM1Mi0xLjAyLS4zNTItMS4yNDYgMC0uMjI3LS4xOTUtLjk2NS0uNDMzLTEuNjQ1LS4yMzgtLjY3NS0uNDMtMS40NzItLjQzLTEuNzcgMC0uMjk2LS4xODctMS4zMi0uNDE4LTIuMjc2Qy41OTggNzMuNDkyIDAgNjcuMzc5IDAgNjMuOTUzYzAtMy40MjIuNTk4LTkuNTM1IDEuMTYtMTEuODk0LjIzLS45NTcuNDE4LTIgLjQxOC0yLjMyIDAtLjMyMS4xNDUtLjk1LjMyLTEuNC4xOC0uNDQ4LjQxLTEuMjUzLjUxNi0xLjc4OC4xMS0uNTM1LjM2LTEuNDU3LjU2My0yLjA1NWwuNTktMS43MjZjLjQzMy0xLjI5My44MzUtMi4zODcgMS4wMjctMi44MTMuMTEtLjIzOC41MzktMS4yMS45NTctMi4xNi42NzYtMS41MzUgMi4xMjUtNC40MyAyLjk3Mi01Ljk0NS4zMDktLjU1NS40MjYtLjczOSAyLjA5OC0zLjM1MiAyLjY0OS00LjE0OCA3LjE3Ni05LjMwOSAxMS4zOS0xMi45ODggMS40ODUtMS4yOTcgNi40NDYtNS4wNjMgNi42NjktNS4wNjMuMDYyIDAgLjUzLS4yODEgMS4wNDMtLjYyNSAxLjM0Ny0uOTAyIDIuNjY4LTEuNjY4IDQuMzktMi41MzFhNTMuMDYgNTMuMDYgMCAwMDEuODM2LS45NTNjLjI4NS0uMTY0LjgyLS40MSAzLjU2Ny0xLjY0LjYwNS0uMjcgMS4yNTctLjUxNiAzLjEzNi0xLjE3My40MTQtLjE0NCAxLjI0Ni0uNDQ5IDEuODQtLjY3Mi41OTgtLjIyMiAxLjMwMS0uNDA2IDEuNTYzLS40MDYuMjU4IDAgLjkzNy0uMTggMS41MDgtLjQwMi41Ny0uMjIzIDEuNjA1LS40NzcgMi4zMDQtLjU2My42OTYtLjA4MiAxLjYyMS0uMjc3IDIuMDU1LS40My40My0uMTQ4IDEuNjEtLjM0IDIuNjIxLS40MjVhNzIuNTcyIDcyLjU3MiAwIDAwMy45NDEtLjQ2NWMyLjY4OC0uMzk0IDguNTMyLS4zOTQgMTEuMTkyIDBhNzUuMDIgNzUuMDIgMCAwMDMuNzgxLjQ0NWMuOTUzLjA3OSAyLjE2OC4yNzggMi43MDMuNDQyLjUzNS4xNiAxLjQ2MS4zNiAyLjA1NS40MzMuNTk0LjA3OSAxLjU5NC4zMjUgMi4yMjIuNTUxLjYzLjIzIDEuMzQ0LjQxNCAxLjU5LjQxNHMuNzU0LjEzNyAxLjEyNS4zMDljLjM3NS4xNjggMS4xNjguNDQ5IDEuNzY2LjYyNS41OTQuMTggMS42MTMuNTM1IDIuMjcuNzk3LjY1Mi4yNjEgMS41MjcuNjA1IDEuOTQ1Ljc2MS43Ny4yOSA2LjQ2IDMuMTM3IDcuMjM0IDMuNjIyIDYuMjgxIDMuOTE3IDkuNTEyIDYuNDc2IDEzLjg1NiAxMC45NjQgNS4yMzggNS40MTQgOC43MTUgMTAuNTcgMTIuMjU0IDE4LjE2LjI1LjUzNi42MzIgMS4zMjkuODUxIDEuNzU4LjIxNS40MzQuMzk1Ljk0Mi4zOTUgMS4xMyAwIC4xOS4xOC43Ni40MDIgMS4yNjkuNjAyIDEuMzgzIDEuMTE3IDIuOTU3IDEuMzYgNC4xNi4xMi41OS4zNDMgMS4zMi40OTUgMS42MjEuMTUzLjMuMzMyIDEuMDYzLjQwMyAxLjY4OC4wNy42MjQuMjc3IDEuNjQ4LjQ1MyAyLjI2OSAxLjAyIDMuNTMxIDEuNTI3IDEzLjkzNC45MSAxOC41MzUtLjE4MyAxLjM2Ny0uMzkgMy4wMi0uNDYgMy42NzItLjExOCAxLjExNy0uNzA4IDQuMDA0LTEuMjEyIDUuOTQ1bC0uNTIgMi4wNTVjLS45OCAzLjk1Ny0zLjQwMiA5LjU5NC02LjM1OSAxNC44MDktMS4xNzIgMi4wNy01LjEwMSA3LjY2OC01Ljg0MyA4LjMyNC0uMDY3LjA1OC0uMzk5LjQ1LS43MzUuODYzLS4zMzYuNDE4LTEuNDE0IDEuNTg2LTIuMzkgMi41OTQtNC4zMDEgNC40NDEtNy43NyA3LjE4Ny0xMy44NiAxMC45NjktLjcyMi40NDktNi44NDcgMy40NDEtNy45OTIgMy45MDYtLjU5NC4yMzgtMS41ODYuNjQtMi4yMDMuODktLjYxMy4yNDctMS4yOTcuNDU0LTEuNTEyLjQ1OC0uMjE1LjAwMy0uNzgxLjE5NS0xLjI1OC40MjUtLjQ3Ni4yMy0xLjA4Mi40MjItMS4zNTEuNDI2LS4yNjYuMDA0LTEuMDQzLjE5Mi0xLjcyNy40MTgtLjY4My4yMy0xLjYzMy40NzctMi4xMS41NS0uNDc2LjA3NS0xLjQ5NS4yNzgtMi4yNjkuNDUtLjc3My4xNzItMy4xMS41MDgtNS4xODcuNzQ2YTU5LjA2IDU5LjA2IDAgMDEtMTMuOTQ1LS4wMzF6bTQuNzAzLTEyLjVjLjMtLjIzNC42MDktLjcuNjkxLTEuMDI3LjE4LS43MjMgMjkuMjM0LTU4Ljk3IDI5Ljc4MS01OS43LjQ2MS0uNjE3LjUwNC0xLjYwNS4wODItMS45NTMtLjIyMi0uMTg3LTMuMDA0LS4yNDYtMTAuNDMtLjIzNC01LjU3LjAxMi0xMC4yNTMuMDE2LTEwLjQwNi4wMTItLjIyNi0uMDA4LS4yNzMtMy43My0uMjUtMTkuNjcyLjAxNi0xMC44MTctLjAzNS0xOS43NjYtLjExMy0xOS44OS0uMDc4LS4xMjYtLjM4My0uMjI3LS42OC0uMjI3LS40MTggMC0uNjEzLjE4LS44Ny44MDgtLjQ4NSAxLjE2OC0xLjgyNSAzLjgyLTguMzQ4IDE2LjQ4NWEzNTU0LjU2OSAzNTU0LjU2OSAwIDAwLTQuMDU1IDcuODljLTEuMTU2IDIuMjYyLTIuOTggNS44MTMtNC4wNDcgNy44OWE4NzUxLjI0OCA4NzUxLjI0OCAwIDAwLTguNTk4IDE2Ljc1OWMtNC45MzMgOS42MzYtNS41MyAxMC43ODUtNS43NDIgMTEuMDM5LS40MS40OTYtLjYzMyAxLjY0LS40MDIgMi4wNy4yMS4zOTQuNjI5LjQxIDExLjA0My4zOTQgNS45NTMtLjAwNyAxMC44NjMuMDI0IDEwLjkxNC4wNy4xMzcuMTQxLjA4NiAzNy4zMS0uMDU1IDM4LjE5Ni0uMDkzLjU4Mi0uMDMxLjg5LjIzNSAxLjE1Ni40Ni40NjEuNTg2LjQ1NyAxLjI1LS4wNjZ6bTAgMCIvPjwvc3ZnPg==" parent="1" vertex="1">
          <mxGeometry x="248.27999999999997" y="688.75" width="40" height="40" as="geometry" />
        </mxCell>
        <mxCell id="nj6cIDg6s4Kl3HThlzyw-29" value="build" style="edgeStyle=orthogonalEdgeStyle;rounded=0;orthogonalLoop=1;jettySize=auto;html=1;entryX=0.5;entryY=1;entryDx=0;entryDy=0;" parent="1" source="nj6cIDg6s4Kl3HThlzyw-28" target="nj6cIDg6s4Kl3HThlzyw-59" edge="1">
          <mxGeometry x="0.0024" relative="1" as="geometry">
            <mxPoint x="463.14" y="751" as="targetPoint" />
            <mxPoint as="offset" />
          </mxGeometry>
        </mxCell>
        <mxCell id="nj6cIDg6s4Kl3HThlzyw-28" value="Vite" style="shape=image;verticalLabelPosition=middle;verticalAlign=middle;imageAspect=0;aspect=fixed;image=data:image/svg+xml,PHN2ZyB4bWxucz0iaHR0cDovL3d3dy53My5vcmcvMjAwMC9zdmciIHZpZXdCb3g9IjAgMCAxMjggMTI4Ij48ZGVmcz48bGluZWFyR3JhZGllbnQgZ3JhZGllbnRVbml0cz0idXNlclNwYWNlT25Vc2UiIGdyYWRpZW50VHJhbnNmb3JtPSJ0cmFuc2xhdGUoMCAuOTM3KSBzY2FsZSguMzEyMikiIHkyPSIzNDQiIHkxPSIzMyIgeDI9IjIzNSIgeDE9IjYiIGlkPSJhIj48c3RvcCBzdG9wLWNvbG9yPSIjNDFkMWZmIiBvZmZzZXQ9IjAiLz48c3RvcCBzdG9wLWNvbG9yPSIjYmQzNGZlIiBvZmZzZXQ9IjEiLz48L2xpbmVhckdyYWRpZW50PjxsaW5lYXJHcmFkaWVudCBncmFkaWVudFVuaXRzPSJ1c2VyU3BhY2VPblVzZSIgZ3JhZGllbnRUcmFuc2Zvcm09InRyYW5zbGF0ZSgwIC45MzcpIHNjYWxlKC4zMTIyKSIgeTI9IjI5Mi45ODkiIHkxPSI4LjgxOCIgeDI9IjIzNi4wNzYiIHgxPSIxOTQuNjUxIiBpZD0iYiI+PHN0b3Agc3RvcC1jb2xvcj0iI2ZmZWE4MyIgb2Zmc2V0PSIwIi8+PHN0b3Agc3RvcC1jb2xvcj0iI2ZmZGQzNSIgb2Zmc2V0PSIuMDgzIi8+PHN0b3Agc3RvcC1jb2xvcj0iI2ZmYTgwMCIgb2Zmc2V0PSIxIi8+PC9saW5lYXJHcmFkaWVudD48L2RlZnM+PHBhdGggZD0iTTEyNC43NjYgMTkuNTIgNjcuMzI0IDEyMi4yMzhjLTEuMTg3IDIuMTIxLTQuMjM0IDIuMTMzLTUuNDM3LjAyNEwzLjMwNSAxOS41MzJjLTEuMzEzLTIuMzAyLjY1Mi01LjA4NyAzLjI2MS00LjYyMkw2NC4wNyAyNS4xODdhMy4wOSAzLjA5IDAgMCAwIDEuMTEgMGw1Ni4zLTEwLjI2MWMyLjU5OC0uNDczIDQuNTc1IDIuMjg5IDMuMjg2IDQuNTk0Wm0wIDAiIGZpbGw9InVybCgjYSkiLz48cGF0aCBkPSJNOTEuNDYgMS40MyA0OC45NTQgOS43NThhMS41NiAxLjU2IDAgMCAwLTEuMjU4IDEuNDM3bC0yLjYxNyA0NC4xNjhhMS41NjMgMS41NjMgMCAwIDAgMS45MSAxLjYxNGwxMS44MzYtMi43MzVhMS41NjIgMS41NjIgMCAwIDEgMS44OCAxLjgzNmwtMy41MTcgMTcuMjE5YTEuNTYyIDEuNTYyIDAgMCAwIDEuOTg1IDEuODA1bDcuMzA4LTIuMjIzYzEuMTMzLS4zNDQgMi4yMjMuNjUyIDEuOTg1IDEuODEybC01LjU5IDI3LjA0N2MtLjM0OCAxLjY5MiAxLjkwMiAyLjYxNCAyLjg0IDEuMTY0bC42MjUtLjk2OCAzNC42NC02OS4xM2MuNTgyLTEuMTYtLjQyMS0yLjQ4LTEuNjktMi4yMzRsLTEyLjE4NSAyLjM1MmExLjU1OCAxLjU1OCAwIDAgMS0xLjc5My0xLjk2NWw3Ljk1LTI3LjU2MkExLjU2IDEuNTYgMCAwIDAgOTEuNDYgMS40M1ptMCAwIiBmaWxsPSJ1cmwoI2IpIi8+PC9zdmc+;labelPosition=left;align=right;" parent="1" vertex="1">
          <mxGeometry x="463.39" y="829.5" width="63" height="63" as="geometry" />
        </mxCell>
        <mxCell id="nj6cIDg6s4Kl3HThlzyw-33" value="Type Script" style="shape=image;verticalLabelPosition=bottom;verticalAlign=top;imageAspect=0;aspect=fixed;image=data:image/svg+xml,PHN2ZyB4bWxucz0iaHR0cDovL3d3dy53My5vcmcvMjAwMC9zdmciIHZpZXdCb3g9IjAgMCAxMjggMTI4Ij48cGF0aCBkPSJNMjIuNjcgNDdoOTkuNjd2NzMuNjdIMjIuNjd6IiBmaWxsPSIjZmZmIi8+PHBhdGggZD0iTTEuNSA2My45MXY2Mi41aDEyNXYtMTI1SDEuNXptMTAwLjczLTVhMTUuNTYgMTUuNTYgMCAwMTcuODIgNC41IDIwLjU4IDIwLjU4IDAgMDEzIDRjMCAuMTYtNS40IDMuODEtOC42OSA1Ljg1LS4xMi4wOC0uNi0uNDQtMS4xMy0xLjIzYTcuMDkgNy4wOSAwIDAwLTUuODctMy41M2MtMy43OS0uMjYtNi4yMyAxLjczLTYuMjEgNWE0LjU4IDQuNTggMCAwMC41NCAyLjM0Yy44MyAxLjczIDIuMzggMi43NiA3LjI0IDQuODYgOC45NSAzLjg1IDEyLjc4IDYuMzkgMTUuMTYgMTAgMi42NiA0IDMuMjUgMTAuNDYgMS40NSAxNS4yNC0yIDUuMi02LjkgOC43My0xMy44MyA5LjlhMzguMzIgMzguMzIgMCAwMS05LjUyLS4xIDIzIDIzIDAgMDEtMTIuNzItNi42M2MtMS4xNS0xLjI3LTMuMzktNC41OC0zLjI1LTQuODJhOS4zNCA5LjM0IDAgMDExLjE1LS43M0w4MiAxMDFsMy41OS0yLjA4Ljc1IDEuMTFhMTYuNzggMTYuNzggMCAwMDQuNzQgNC41NGM0IDIuMSA5LjQ2IDEuODEgMTIuMTYtLjYyYTUuNDMgNS40MyAwIDAwLjY5LTYuOTJjLTEtMS4zOS0zLTIuNTYtOC41OS01LTYuNDUtMi43OC05LjIzLTQuNS0xMS43Ny03LjI0YTE2LjQ4IDE2LjQ4IDAgMDEtMy40My02LjI1IDI1IDI1IDAgMDEtLjIyLThjMS4zMy02LjIzIDYtMTAuNTggMTIuODItMTEuODdhMzEuNjYgMzEuNjYgMCAwMTkuNDkuMjZ6bS0yOS4zNCA1LjI0djUuMTJINTYuNjZ2NDYuMjNINDUuMTVWNjkuMjZIMjguODh2LTVhNDkuMTkgNDkuMTkgMCAwMS4xMi01LjE3QzI5LjA4IDU5IDM5IDU5IDUxIDU5aDIxLjgzeiIgZmlsbD0iIzAwN2FjYyIgZGF0YS1uYW1lPSJvcmlnaW5hbCIvPjwvc3ZnPg==" parent="1" vertex="1">
          <mxGeometry x="351.1399999999999" y="903.25" width="51.5" height="51.5" as="geometry" />
        </mxCell>
        <mxCell id="nj6cIDg6s4Kl3HThlzyw-31" value="Vue.js" style="shape=image;verticalLabelPosition=bottom;verticalAlign=top;imageAspect=0;aspect=fixed;image=data:image/svg+xml,PHN2ZyB4bWxucz0iaHR0cDovL3d3dy53My5vcmcvMjAwMC9zdmciIHZpZXdCb3g9IjAgMCAxMjggMTI4Ij48cGF0aCBmaWxsPSJub25lIiBkPSJNMCA4LjkzNGw0OS44NTQuMTU4IDE0LjE2NyAyNC40NyAxNC40MzItMjQuNDdMMTI4IDguOTM1bC02My44MzQgMTEwLjE0em0xMjYuOTguNjM3bC0yNC4zNi4wMi0zOC40NzYgNjYuMDUzTDI1LjY5MSA5LjU5Mi45NDIgOS41NzJsNjMuMjExIDEwNy44OXptLTI1LjE0OS0uMDA4bC0yMi43NDUuMTY4LTE1LjA1MyAyNC42NDdMNDkuMjE2IDkuNzNsLTIyLjc5NC0uMTY4IDM3LjczMSA2NC40NzZ6bS03NS44MzQtLjE3bDIzLjAwMi4wMDltLTIzLjAwMi0uMDFsMjMuMDAyLjAxIi8+PHBhdGggZmlsbD0iIzM1NDk1ZSIgZD0iTTI1Ljk5NyA5LjM5M2wyMy4wMDIuMDA5TDY0LjAzNSAzNC4zNiA3OS4wMTggOS40MDQgMTAyIDkuMzk4IDY0LjE1IDc1LjA1M3oiLz48cGF0aCBmaWxsPSIjNDFiODgzIiBkPSJNLjkxIDkuNTY5bDI1LjA2Ny0uMTcyIDM4LjE1IDY1LjY1OUwxMDEuOTggOS40MDFsMjUuMTEuMDI2LTYyLjk2NiAxMDguMDZ6Ii8+PC9zdmc+" parent="1" vertex="1">
          <mxGeometry x="410.76999999999987" y="900.75" width="54" height="54" as="geometry" />
        </mxCell>
        <mxCell id="nj6cIDg6s4Kl3HThlzyw-35" value="Vis.js" style="shape=image;verticalLabelPosition=bottom;labelBackgroundColor=default;verticalAlign=top;aspect=fixed;imageAspect=0;image=https://visjs.org/images/visjs_logo.png;" parent="1" vertex="1">
          <mxGeometry x="464.76999999999987" y="903.25" width="51.5" height="51.5" as="geometry" />
        </mxCell>
        <mxCell id="x-3AmGyZtqkXAsrY7Yld-8" style="edgeStyle=orthogonalEdgeStyle;rounded=1;orthogonalLoop=1;jettySize=auto;html=1;exitX=0;exitY=0.5;exitDx=0;exitDy=0;exitPerimeter=0;curved=0;entryX=1;entryY=0.75;entryDx=0;entryDy=0;flowAnimation=1;" parent="1" source="nj6cIDg6s4Kl3HThlzyw-39" target="nj6cIDg6s4Kl3HThlzyw-42" edge="1">
          <mxGeometry relative="1" as="geometry">
            <Array as="points">
              <mxPoint x="486" y="230" />
              <mxPoint x="486" y="200" />
            </Array>
          </mxGeometry>
        </mxCell>
        <mxCell id="nj6cIDg6s4Kl3HThlzyw-39" value="10.32.56.3" style="sketch=0;points=[[0.015,0.015,0],[0.985,0.015,0],[0.985,0.985,0],[0.015,0.985,0],[0.25,0,0],[0.5,0,0],[0.75,0,0],[1,0.25,0],[1,0.5,0],[1,0.75,0],[0.75,1,0],[0.5,1,0],[0.25,1,0],[0,0.75,0],[0,0.5,0],[0,0.25,0]];verticalLabelPosition=bottom;html=1;verticalAlign=top;aspect=fixed;align=center;pointerEvents=1;shape=mxgraph.cisco19.rect;prIcon=l2_switch;fillColor=#FAFAFA;strokeColor=#005073;" parent="1" vertex="1">
          <mxGeometry x="556" y="205" width="50" height="50" as="geometry" />
        </mxCell>
        <mxCell id="x-3AmGyZtqkXAsrY7Yld-7" style="edgeStyle=orthogonalEdgeStyle;rounded=1;orthogonalLoop=1;jettySize=auto;html=1;exitX=0;exitY=0.5;exitDx=0;exitDy=0;exitPerimeter=0;entryX=1;entryY=0.25;entryDx=0;entryDy=0;curved=0;flowAnimation=1;" parent="1" source="nj6cIDg6s4Kl3HThlzyw-40" target="nj6cIDg6s4Kl3HThlzyw-42" edge="1">
          <mxGeometry relative="1" as="geometry">
            <Array as="points">
              <mxPoint x="486" y="145" />
              <mxPoint x="486" y="180" />
            </Array>
          </mxGeometry>
        </mxCell>
        <mxCell id="nj6cIDg6s4Kl3HThlzyw-40" value="10.55.2.5" style="sketch=0;points=[[0.015,0.015,0],[0.985,0.015,0],[0.985,0.985,0],[0.015,0.985,0],[0.25,0,0],[0.5,0,0],[0.75,0,0],[1,0.25,0],[1,0.5,0],[1,0.75,0],[0.75,1,0],[0.5,1,0],[0.25,1,0],[0,0.75,0],[0,0.5,0],[0,0.25,0]];verticalLabelPosition=bottom;html=1;verticalAlign=top;aspect=fixed;align=center;pointerEvents=1;shape=mxgraph.cisco19.rect;prIcon=l2_switch;fillColor=#FAFAFA;strokeColor=#005073;" parent="1" vertex="1">
          <mxGeometry x="556" y="120" width="50" height="50" as="geometry" />
        </mxCell>
        <mxCell id="nj6cIDg6s4Kl3HThlzyw-43" style="edgeStyle=orthogonalEdgeStyle;rounded=1;orthogonalLoop=1;jettySize=auto;html=1;entryX=1;entryY=0.5;entryDx=0;entryDy=0;curved=0;flowAnimation=1;" parent="1" source="nj6cIDg6s4Kl3HThlzyw-42" target="nj6cIDg6s4Kl3HThlzyw-1" edge="1">
          <mxGeometry relative="1" as="geometry">
            <Array as="points">
              <mxPoint x="387" y="190" />
            </Array>
          </mxGeometry>
        </mxCell>
        <mxCell id="nj6cIDg6s4Kl3HThlzyw-42" value="Logstash" style="shape=image;verticalLabelPosition=bottom;verticalAlign=top;imageAspect=0;aspect=fixed;image=data:image/svg+xml,PHN2ZyB4bWxucz0iaHR0cDovL3d3dy53My5vcmcvMjAwMC9zdmciIHZpZXdCb3g9IjAgMCAxMjggMTI4Ij4mI3hhOyAgICA8cGF0aCBkPSJNNzIgMTI4aDQ0VjgwSDcyWm0wIDAiIGZpbGw9IiMwMGJmYjMiLz4mI3hhOyAgICA8cGF0aCBkPSJNMTIgMEg4djgwaDUyVjQ4QzYwIDIxLjQ4OCAzOC41MDggMCAxMiAwIiBmaWxsPSIjZmVjNTE0Ii8+JiN4YTsgICAgPHBhdGggZD0iTTggODBjMCAyNi41MDggMjEuNDkyIDQ4IDQ4IDQ4aDRWODBabTAgMCIgZmlsbD0iIzM0Mzc0MSIvPiYjeGE7PC9zdmc+;labelPosition=center;align=center;" parent="1" vertex="1">
          <mxGeometry x="396" y="170" width="40" height="40" as="geometry" />
        </mxCell>
        <mxCell id="nj6cIDg6s4Kl3HThlzyw-48" value="&lt;div&gt;Collect&lt;/div&gt;Logs" style="text;html=1;align=center;verticalAlign=middle;resizable=0;points=[];autosize=1;strokeColor=none;fillColor=none;fontStyle=2" parent="1" vertex="1">
          <mxGeometry x="492.66" y="170" width="60" height="40" as="geometry" />
        </mxCell>
        <mxCell id="n4JKIu-Qerj483weCeP9-2" value="get interfaces" style="edgeStyle=orthogonalEdgeStyle;rounded=1;orthogonalLoop=1;jettySize=auto;html=1;exitX=0.5;exitY=1;exitDx=0;exitDy=0;entryX=0.25;entryY=0;entryDx=0;entryDy=0;curved=0;flowAnimation=1;endArrow=block;endFill=1;startArrow=oval;startFill=1;" edge="1" parent="1" source="nj6cIDg6s4Kl3HThlzyw-49" target="nj6cIDg6s4Kl3HThlzyw-3">
          <mxGeometry x="0.3394" y="10" relative="1" as="geometry">
            <Array as="points">
              <mxPoint x="217" y="350" />
              <mxPoint x="270" y="350" />
            </Array>
            <mxPoint as="offset" />
          </mxGeometry>
        </mxCell>
        <mxCell id="nj6cIDg6s4Kl3HThlzyw-49" value="Ecstasy" style="shape=image;verticalLabelPosition=top;labelBackgroundColor=default;verticalAlign=bottom;aspect=fixed;imageAspect=0;image=http://10.29.14.12/static/img/logo-1.png;labelPosition=center;align=center;shadow=1;shadowOpacity=50;" parent="1" vertex="1">
          <mxGeometry x="177.14" y="150" width="80" height="80" as="geometry" />
        </mxCell>
        <mxCell id="nj6cIDg6s4Kl3HThlzyw-62" value="" style="shape=image;verticalLabelPosition=bottom;verticalAlign=top;imageAspect=0;aspect=fixed;image=data:image/svg+xml,PHN2ZyB4bWxucz0iaHR0cDovL3d3dy53My5vcmcvMjAwMC9zdmciIHZpZXdCb3g9IjAgMCAxMjggMTI4Ij48cGF0aCBkPSJNNzMuOCA1MC44aDExLjN2MTEuNWg1LjdjMi42IDAgNS4zLS41IDcuOC0xLjMgMS4yLS40IDIuNi0xIDMuOC0xLjctMS42LTIuMS0yLjQtNC43LTIuNi03LjMtLjMtMy41LjQtOC4xIDIuOC0xMC44bDEuMi0xLjQgMS40IDEuMWMzLjYgMi45IDYuNSA2LjggNy4xIDExLjQgNC4zLTEuMyA5LjMtMSAxMy4xIDEuMmwxLjUuOS0uOCAxLjZjLTMuMiA2LjItOS45IDguMi0xNi40IDcuOC05LjggMjQuMy0zMSAzNS44LTU2LjggMzUuOC0xMy4zIDAtMjUuNS01LTMyLjUtMTYuOGwtLjEtLjItMS0yLjFjLTIuNC01LjItMy4xLTEwLjktMi42LTE2LjZsLjItMS43aDkuNlY1MC44aDExLjNWMzkuNmgyMi41VjI4LjNoMTMuNXYyMi41eiIgZmlsbD0iIzNBNEQ1NCIgY2xpcC1ydWxlPSJldmVub2RkIiBmaWxsLXJ1bGU9ImV2ZW5vZGQiLz48cGF0aCBkPSJNMTEwLjQgNTUuMWMuOC01LjktMy42LTEwLjUtNi40LTEyLjctMy4xIDMuNi0zLjYgMTMuMiAxLjMgMTcuMi0yLjggMi40LTguNSA0LjctMTQuNSA0LjdIMTguNmMtLjYgNi4yLjUgMTEuOSAzIDE2LjhsLjggMS41Yy41LjkgMS4xIDEuNyAxLjcgMi42IDMgLjIgNS43LjMgOC4yLjIgNC45LS4xIDguOS0uNyAxMi0xLjcuNS0uMi45LjEgMS4xLjUuMi41LS4xLjktLjUgMS4xLS40LjEtLjguMy0xLjMuNC0yLjQuNy01IDEuMS04LjMgMS4zaC0uNmMtMS4zLjEtMi43LjEtNC4yLjEtMS42IDAtMy4xIDAtNC45LS4xIDYgNi44IDE1LjQgMTAuOCAyNy4yIDEwLjggMjUgMCA0Ni4yLTExLjEgNTUuNS0zNS45IDYuNy43IDEzLjEtMSAxNi02LjctNC41LTIuNy0xMC41LTEuOC0xMy45LS4xeiIgZmlsbD0iIzAwQUFEQSIvPjxwYXRoIGQ9Ik0xMTAuNCA1NS4xYy44LTUuOS0zLjYtMTAuNS02LjQtMTIuNy0zLjEgMy42LTMuNiAxMy4yIDEuMyAxNy4yLTIuOCAyLjQtOC41IDQuNy0xNC41IDQuN2gtNjhjLS4zIDkuNSAzLjIgMTYuNyA5LjUgMjEgNC45LS4xIDguOS0uNyAxMi0xLjcuNS0uMi45LjEgMS4xLjUuMi41LS4xLjktLjUgMS4xLS40LjEtLjguMy0xLjMuNC0yLjQuNy01LjIgMS4yLTguNSAxLjRsLS4xLS4xYzguNSA0LjQgMjAuOCA0LjMgMzUtMS4xIDE1LjgtNi4xIDMwLjYtMTcuNyA0MC45LTMwLjktLjIuMS0uNC4xLS41LjJ6IiBmaWxsPSIjMjhCOEVCIi8+PHBhdGggZD0iTTE4LjcgNzEuOGMuNCAzLjMgMS40IDYuNCAyLjkgOS4zbC44IDEuNWMuNS45IDEuMSAxLjcgMS43IDIuNiAzIC4yIDUuNy4zIDguMi4yIDQuOS0uMSA4LjktLjcgMTItMS43LjUtLjIuOS4xIDEuMS41LjIuNS0uMS45LS41IDEuMS0uNC4xLS44LjMtMS4zLjQtMi40LjctNS4yIDEuMi04LjUgMS40aC0uNGMtMS4zLjEtMi43LjEtNC4xLjEtMS42IDAtMy4yIDAtNC45LS4xIDYgNi44IDE1LjUgMTAuOCAyNy4zIDEwLjggMjEuNCAwIDQwLTguMSA1MC44LTI2SDE4Ljd2LS4xeiIgZmlsbD0iIzAyOEJCOCIvPjxwYXRoIGQ9Ik0yMy41IDcxLjhjMS4zIDUuOCA0LjMgMTAuNCA4LjggMTMuNSA0LjktLjEgOC45LS43IDEyLTEuNy41LS4yLjkuMSAxLjEuNS4yLjUtLjEuOS0uNSAxLjEtLjQuMS0uOC4zLTEuMy40LTIuNC43LTUuMiAxLjItOC42IDEuNCA4LjUgNC40IDIwLjggNC4zIDM0LjktMS4xIDguNS0zLjMgMTYuOC04LjIgMjQuMi0xNC4xSDIzLjV6IiBmaWxsPSIjMDE5QkM2Ii8+PHBhdGggZD0iTTI4LjQgNTIuN2g5Ljh2OS44aC05Ljh2LTkuOHptLjguOGguOHY4LjFoLS44di04LjF6bTEuNCAwaC44djguMWgtLjh2LTguMXptMS41IDBoLjh2OC4xaC0uOHYtOC4xem0xLjUgMGguOHY4LjFoLS44di04LjF6bTEuNSAwaC44djguMWgtLjh2LTguMXptMS41IDBoLjh2OC4xaC0uOHYtOC4xem0zLTEyaDkuOHY5LjhoLTkuOHYtOS44em0uOS44aC44djguMWgtLjh2LTguMXptMS40IDBoLjh2OC4xaC0uOHYtOC4xem0xLjUgMGguOHY4LjFoLS44di04LjF6bTEuNSAwaC44djguMWgtLjh2LTguMXptMS40IDBoLjh2OC4xaC0uOHYtOC4xem0xLjUgMGguOHY4LjFoLS44di04LjF6IiBmaWxsPSIjMDBBQ0QzIiBjbGlwLXJ1bGU9ImV2ZW5vZGQiIGZpbGwtcnVsZT0iZXZlbm9kZCIvPjxwYXRoIGQ9Ik0zOS42IDUyLjdoOS44djkuOGgtOS44di05Ljh6bS45LjhoLjh2OC4xaC0uOHYtOC4xem0xLjQgMGguOHY4LjFoLS44di04LjF6bTEuNSAwaC44djguMWgtLjh2LTguMXptMS41IDBoLjh2OC4xaC0uOHYtOC4xem0xLjQgMGguOHY4LjFoLS44di04LjF6bTEuNSAwaC44djguMWgtLjh2LTguMXoiIGZpbGw9IiMyM0MyRUUiIGNsaXAtcnVsZT0iZXZlbm9kZCIgZmlsbC1ydWxlPSJldmVub2RkIi8+PHBhdGggZD0iTTUwLjkgNTIuN2g5Ljh2OS44aC05Ljh2LTkuOHptLjguOGguOHY4LjFoLS44di04LjF6bTEuNSAwaC44djguMWgtLjh2LTguMXptMS41IDBoLjh2OC4xaC0uOHYtOC4xem0xLjQgMGguOHY4LjFoLS44di04LjF6bTEuNSAwaC44djguMWgtLjh2LTguMXptMS41IDBoLjh2OC4xaC0uOHYtOC4xeiIgZmlsbD0iIzAwQUNEMyIgY2xpcC1ydWxlPSJldmVub2RkIiBmaWxsLXJ1bGU9ImV2ZW5vZGQiLz48cGF0aCBkPSJNNTAuOSA0MS41aDkuOHY5LjhoLTkuOHYtOS44em0uOC44aC44djguMWgtLjh2LTguMXptMS41IDBoLjh2OC4xaC0uOHYtOC4xem0xLjUgMGguOHY4LjFoLS44di04LjF6bTEuNCAwaC44djguMWgtLjh2LTguMXptMS41IDBoLjh2OC4xaC0uOHYtOC4xem0xLjUgMGguOHY4LjFoLS44di04LjF6bTMuMSAxMC40SDcydjkuOGgtOS44di05Ljh6bS44LjhoLjh2OC4xSDYzdi04LjF6bTEuNSAwaC44djguMWgtLjh2LTguMXptMS40IDBoLjh2OC4xaC0uOHYtOC4xem0xLjUgMGguOHY4LjFoLS44di04LjF6bTEuNSAwaC44djguMWgtLjh2LTguMXptMS41IDBoLjh2OC4xaC0uOHYtOC4xeiIgZmlsbD0iIzIzQzJFRSIgY2xpcC1ydWxlPSJldmVub2RkIiBmaWxsLXJ1bGU9ImV2ZW5vZGQiLz48cGF0aCBkPSJNNjIuMiA0MS41SDcydjkuOGgtOS44di05Ljh6bS44LjhoLjh2OC4xSDYzdi04LjF6bTEuNSAwaC44djguMWgtLjh2LTguMXptMS40IDBoLjh2OC4xaC0uOHYtOC4xem0xLjUgMGguOHY4LjFoLS44di04LjF6bTEuNSAwaC44djguMWgtLjh2LTguMXptMS41IDBoLjh2OC4xaC0uOHYtOC4xeiIgZmlsbD0iIzAwQUNEMyIgY2xpcC1ydWxlPSJldmVub2RkIiBmaWxsLXJ1bGU9ImV2ZW5vZGQiLz48cGF0aCBkPSJNNjIuMiAzMC4ySDcyVjQwaC05Ljh2LTkuOHptLjguOGguOHY4LjFINjNWMzF6bTEuNSAwaC44djguMWgtLjhWMzF6bTEuNCAwaC44djguMWgtLjhWMzF6bTEuNSAwaC44djguMWgtLjhWMzF6bTEuNSAwaC44djguMWgtLjhWMzF6bTEuNSAwaC44djguMWgtLjhWMzF6IiBmaWxsPSIjMjNDMkVFIiBjbGlwLXJ1bGU9ImV2ZW5vZGQiIGZpbGwtcnVsZT0iZXZlbm9kZCIvPjxwYXRoIGQ9Ik03My41IDUyLjdoOS44djkuOGgtOS44di05Ljh6bS44LjhoLjh2OC4xaC0uOHYtOC4xem0xLjQgMGguOHY4LjFoLS44di04LjF6bTEuNSAwaC44djguMWgtLjh2LTguMXptMS41IDBoLjh2OC4xaC0uOHYtOC4xem0xLjUgMGguOHY4LjFoLS44di04LjF6bTEuNSAwaC44djguMWgtLjh2LTguMXoiIGZpbGw9IiMwMEFDRDMiIGNsaXAtcnVsZT0iZXZlbm9kZCIgZmlsbC1ydWxlPSJldmVub2RkIi8+PHBhdGggZD0iTTQ4LjggNzguM2MxLjUgMCAyLjcgMS4yIDIuNyAyLjcgMCAxLjUtMS4yIDIuNy0yLjcgMi43LTEuNSAwLTIuNy0xLjItMi43LTIuNyAwLTEuNSAxLjItMi43IDIuNy0yLjciIGZpbGw9IiNENEVFRjEiIGNsaXAtcnVsZT0iZXZlbm9kZCIgZmlsbC1ydWxlPSJldmVub2RkIi8+PHBhdGggZD0iTTQ4LjggNzkuMWMuMiAwIC41IDAgLjcuMS0uMi4xLS40LjQtLjQuNyAwIC40LjQuOC44LjguMyAwIC42LS4yLjctLjQuMS4yLjEuNS4xLjcgMCAxLjEtLjkgMS45LTEuOSAxLjktMS4xIDAtMS45LS45LTEuOS0xLjkgMC0xIC44LTEuOSAxLjktMS45TTEuMSA3Mi44aDEyNS40Yy0yLjctLjctOC42LTEuNi03LjctNS4yLTUgNS43LTE2LjkgNC0yMCAxLjItMy40IDQuOS0yMyAzLTI0LjMtLjgtNC4yIDUtMTcuMyA1LTIxLjUgMC0xLjQgMy44LTIxIDUuNy0yNC4zLjgtMyAyLjgtMTUgNC41LTIwLTEuMiAxLjEgMy41LTQuOSA0LjUtNy42IDUuMiIgZmlsbD0iIzNBNEQ1NCIgY2xpcC1ydWxlPSJldmVub2RkIiBmaWxsLXJ1bGU9ImV2ZW5vZGQiLz48cGF0aCBkPSJNNTYgOTcuOGMtNi43LTMuMi0xMC4zLTcuNS0xMi40LTEyLjItMi41LjctNS41IDEuMi04LjkgMS40LTEuMy4xLTIuNy4xLTQuMS4xLTEuNyAwLTMuNCAwLTUuMi0uMSA2IDYgMTMuNiAxMC43IDI3LjUgMTAuOEg1NnoiIGZpbGw9IiNCRkRCRTAiLz48cGF0aCBkPSJNNDYuMSA4OS45Yy0uOS0xLjMtMS44LTIuOC0yLjUtNC4zLTIuNS43LTUuNSAxLjItOC45IDEuNCAyLjMgMS4yIDUuNyAyLjQgMTEuNCAyLjl6IiBmaWxsPSIjRDRFRUYxIi8+PC9zdmc+" parent="1" vertex="1">
          <mxGeometry x="346" y="367.5" width="40" height="40" as="geometry" />
        </mxCell>
        <mxCell id="nj6cIDg6s4Kl3HThlzyw-63" value="" style="shape=image;verticalLabelPosition=bottom;verticalAlign=top;imageAspect=0;aspect=fixed;image=data:image/svg+xml,PHN2ZyB4bWxucz0iaHR0cDovL3d3dy53My5vcmcvMjAwMC9zdmciIHZpZXdCb3g9IjAgMCAxMjggMTI4Ij48cGF0aCBkPSJNNzMuOCA1MC44aDExLjN2MTEuNWg1LjdjMi42IDAgNS4zLS41IDcuOC0xLjMgMS4yLS40IDIuNi0xIDMuOC0xLjctMS42LTIuMS0yLjQtNC43LTIuNi03LjMtLjMtMy41LjQtOC4xIDIuOC0xMC44bDEuMi0xLjQgMS40IDEuMWMzLjYgMi45IDYuNSA2LjggNy4xIDExLjQgNC4zLTEuMyA5LjMtMSAxMy4xIDEuMmwxLjUuOS0uOCAxLjZjLTMuMiA2LjItOS45IDguMi0xNi40IDcuOC05LjggMjQuMy0zMSAzNS44LTU2LjggMzUuOC0xMy4zIDAtMjUuNS01LTMyLjUtMTYuOGwtLjEtLjItMS0yLjFjLTIuNC01LjItMy4xLTEwLjktMi42LTE2LjZsLjItMS43aDkuNlY1MC44aDExLjNWMzkuNmgyMi41VjI4LjNoMTMuNXYyMi41eiIgZmlsbD0iIzNBNEQ1NCIgY2xpcC1ydWxlPSJldmVub2RkIiBmaWxsLXJ1bGU9ImV2ZW5vZGQiLz48cGF0aCBkPSJNMTEwLjQgNTUuMWMuOC01LjktMy42LTEwLjUtNi40LTEyLjctMy4xIDMuNi0zLjYgMTMuMiAxLjMgMTcuMi0yLjggMi40LTguNSA0LjctMTQuNSA0LjdIMTguNmMtLjYgNi4yLjUgMTEuOSAzIDE2LjhsLjggMS41Yy41LjkgMS4xIDEuNyAxLjcgMi42IDMgLjIgNS43LjMgOC4yLjIgNC45LS4xIDguOS0uNyAxMi0xLjcuNS0uMi45LjEgMS4xLjUuMi41LS4xLjktLjUgMS4xLS40LjEtLjguMy0xLjMuNC0yLjQuNy01IDEuMS04LjMgMS4zaC0uNmMtMS4zLjEtMi43LjEtNC4yLjEtMS42IDAtMy4xIDAtNC45LS4xIDYgNi44IDE1LjQgMTAuOCAyNy4yIDEwLjggMjUgMCA0Ni4yLTExLjEgNTUuNS0zNS45IDYuNy43IDEzLjEtMSAxNi02LjctNC41LTIuNy0xMC41LTEuOC0xMy45LS4xeiIgZmlsbD0iIzAwQUFEQSIvPjxwYXRoIGQ9Ik0xMTAuNCA1NS4xYy44LTUuOS0zLjYtMTAuNS02LjQtMTIuNy0zLjEgMy42LTMuNiAxMy4yIDEuMyAxNy4yLTIuOCAyLjQtOC41IDQuNy0xNC41IDQuN2gtNjhjLS4zIDkuNSAzLjIgMTYuNyA5LjUgMjEgNC45LS4xIDguOS0uNyAxMi0xLjcuNS0uMi45LjEgMS4xLjUuMi41LS4xLjktLjUgMS4xLS40LjEtLjguMy0xLjMuNC0yLjQuNy01LjIgMS4yLTguNSAxLjRsLS4xLS4xYzguNSA0LjQgMjAuOCA0LjMgMzUtMS4xIDE1LjgtNi4xIDMwLjYtMTcuNyA0MC45LTMwLjktLjIuMS0uNC4xLS41LjJ6IiBmaWxsPSIjMjhCOEVCIi8+PHBhdGggZD0iTTE4LjcgNzEuOGMuNCAzLjMgMS40IDYuNCAyLjkgOS4zbC44IDEuNWMuNS45IDEuMSAxLjcgMS43IDIuNiAzIC4yIDUuNy4zIDguMi4yIDQuOS0uMSA4LjktLjcgMTItMS43LjUtLjIuOS4xIDEuMS41LjIuNS0uMS45LS41IDEuMS0uNC4xLS44LjMtMS4zLjQtMi40LjctNS4yIDEuMi04LjUgMS40aC0uNGMtMS4zLjEtMi43LjEtNC4xLjEtMS42IDAtMy4yIDAtNC45LS4xIDYgNi44IDE1LjUgMTAuOCAyNy4zIDEwLjggMjEuNCAwIDQwLTguMSA1MC44LTI2SDE4Ljd2LS4xeiIgZmlsbD0iIzAyOEJCOCIvPjxwYXRoIGQ9Ik0yMy41IDcxLjhjMS4zIDUuOCA0LjMgMTAuNCA4LjggMTMuNSA0LjktLjEgOC45LS43IDEyLTEuNy41LS4yLjkuMSAxLjEuNS4yLjUtLjEuOS0uNSAxLjEtLjQuMS0uOC4zLTEuMy40LTIuNC43LTUuMiAxLjItOC42IDEuNCA4LjUgNC40IDIwLjggNC4zIDM0LjktMS4xIDguNS0zLjMgMTYuOC04LjIgMjQuMi0xNC4xSDIzLjV6IiBmaWxsPSIjMDE5QkM2Ii8+PHBhdGggZD0iTTI4LjQgNTIuN2g5Ljh2OS44aC05Ljh2LTkuOHptLjguOGguOHY4LjFoLS44di04LjF6bTEuNCAwaC44djguMWgtLjh2LTguMXptMS41IDBoLjh2OC4xaC0uOHYtOC4xem0xLjUgMGguOHY4LjFoLS44di04LjF6bTEuNSAwaC44djguMWgtLjh2LTguMXptMS41IDBoLjh2OC4xaC0uOHYtOC4xem0zLTEyaDkuOHY5LjhoLTkuOHYtOS44em0uOS44aC44djguMWgtLjh2LTguMXptMS40IDBoLjh2OC4xaC0uOHYtOC4xem0xLjUgMGguOHY4LjFoLS44di04LjF6bTEuNSAwaC44djguMWgtLjh2LTguMXptMS40IDBoLjh2OC4xaC0uOHYtOC4xem0xLjUgMGguOHY4LjFoLS44di04LjF6IiBmaWxsPSIjMDBBQ0QzIiBjbGlwLXJ1bGU9ImV2ZW5vZGQiIGZpbGwtcnVsZT0iZXZlbm9kZCIvPjxwYXRoIGQ9Ik0zOS42IDUyLjdoOS44djkuOGgtOS44di05Ljh6bS45LjhoLjh2OC4xaC0uOHYtOC4xem0xLjQgMGguOHY4LjFoLS44di04LjF6bTEuNSAwaC44djguMWgtLjh2LTguMXptMS41IDBoLjh2OC4xaC0uOHYtOC4xem0xLjQgMGguOHY4LjFoLS44di04LjF6bTEuNSAwaC44djguMWgtLjh2LTguMXoiIGZpbGw9IiMyM0MyRUUiIGNsaXAtcnVsZT0iZXZlbm9kZCIgZmlsbC1ydWxlPSJldmVub2RkIi8+PHBhdGggZD0iTTUwLjkgNTIuN2g5Ljh2OS44aC05Ljh2LTkuOHptLjguOGguOHY4LjFoLS44di04LjF6bTEuNSAwaC44djguMWgtLjh2LTguMXptMS41IDBoLjh2OC4xaC0uOHYtOC4xem0xLjQgMGguOHY4LjFoLS44di04LjF6bTEuNSAwaC44djguMWgtLjh2LTguMXptMS41IDBoLjh2OC4xaC0uOHYtOC4xeiIgZmlsbD0iIzAwQUNEMyIgY2xpcC1ydWxlPSJldmVub2RkIiBmaWxsLXJ1bGU9ImV2ZW5vZGQiLz48cGF0aCBkPSJNNTAuOSA0MS41aDkuOHY5LjhoLTkuOHYtOS44em0uOC44aC44djguMWgtLjh2LTguMXptMS41IDBoLjh2OC4xaC0uOHYtOC4xem0xLjUgMGguOHY4LjFoLS44di04LjF6bTEuNCAwaC44djguMWgtLjh2LTguMXptMS41IDBoLjh2OC4xaC0uOHYtOC4xem0xLjUgMGguOHY4LjFoLS44di04LjF6bTMuMSAxMC40SDcydjkuOGgtOS44di05Ljh6bS44LjhoLjh2OC4xSDYzdi04LjF6bTEuNSAwaC44djguMWgtLjh2LTguMXptMS40IDBoLjh2OC4xaC0uOHYtOC4xem0xLjUgMGguOHY4LjFoLS44di04LjF6bTEuNSAwaC44djguMWgtLjh2LTguMXptMS41IDBoLjh2OC4xaC0uOHYtOC4xeiIgZmlsbD0iIzIzQzJFRSIgY2xpcC1ydWxlPSJldmVub2RkIiBmaWxsLXJ1bGU9ImV2ZW5vZGQiLz48cGF0aCBkPSJNNjIuMiA0MS41SDcydjkuOGgtOS44di05Ljh6bS44LjhoLjh2OC4xSDYzdi04LjF6bTEuNSAwaC44djguMWgtLjh2LTguMXptMS40IDBoLjh2OC4xaC0uOHYtOC4xem0xLjUgMGguOHY4LjFoLS44di04LjF6bTEuNSAwaC44djguMWgtLjh2LTguMXptMS41IDBoLjh2OC4xaC0uOHYtOC4xeiIgZmlsbD0iIzAwQUNEMyIgY2xpcC1ydWxlPSJldmVub2RkIiBmaWxsLXJ1bGU9ImV2ZW5vZGQiLz48cGF0aCBkPSJNNjIuMiAzMC4ySDcyVjQwaC05Ljh2LTkuOHptLjguOGguOHY4LjFINjNWMzF6bTEuNSAwaC44djguMWgtLjhWMzF6bTEuNCAwaC44djguMWgtLjhWMzF6bTEuNSAwaC44djguMWgtLjhWMzF6bTEuNSAwaC44djguMWgtLjhWMzF6bTEuNSAwaC44djguMWgtLjhWMzF6IiBmaWxsPSIjMjNDMkVFIiBjbGlwLXJ1bGU9ImV2ZW5vZGQiIGZpbGwtcnVsZT0iZXZlbm9kZCIvPjxwYXRoIGQ9Ik03My41IDUyLjdoOS44djkuOGgtOS44di05Ljh6bS44LjhoLjh2OC4xaC0uOHYtOC4xem0xLjQgMGguOHY4LjFoLS44di04LjF6bTEuNSAwaC44djguMWgtLjh2LTguMXptMS41IDBoLjh2OC4xaC0uOHYtOC4xem0xLjUgMGguOHY4LjFoLS44di04LjF6bTEuNSAwaC44djguMWgtLjh2LTguMXoiIGZpbGw9IiMwMEFDRDMiIGNsaXAtcnVsZT0iZXZlbm9kZCIgZmlsbC1ydWxlPSJldmVub2RkIi8+PHBhdGggZD0iTTQ4LjggNzguM2MxLjUgMCAyLjcgMS4yIDIuNyAyLjcgMCAxLjUtMS4yIDIuNy0yLjcgMi43LTEuNSAwLTIuNy0xLjItMi43LTIuNyAwLTEuNSAxLjItMi43IDIuNy0yLjciIGZpbGw9IiNENEVFRjEiIGNsaXAtcnVsZT0iZXZlbm9kZCIgZmlsbC1ydWxlPSJldmVub2RkIi8+PHBhdGggZD0iTTQ4LjggNzkuMWMuMiAwIC41IDAgLjcuMS0uMi4xLS40LjQtLjQuNyAwIC40LjQuOC44LjguMyAwIC42LS4yLjctLjQuMS4yLjEuNS4xLjcgMCAxLjEtLjkgMS45LTEuOSAxLjktMS4xIDAtMS45LS45LTEuOS0xLjkgMC0xIC44LTEuOSAxLjktMS45TTEuMSA3Mi44aDEyNS40Yy0yLjctLjctOC42LTEuNi03LjctNS4yLTUgNS43LTE2LjkgNC0yMCAxLjItMy40IDQuOS0yMyAzLTI0LjMtLjgtNC4yIDUtMTcuMyA1LTIxLjUgMC0xLjQgMy44LTIxIDUuNy0yNC4zLjgtMyAyLjgtMTUgNC41LTIwLTEuMiAxLjEgMy41LTQuOSA0LjUtNy42IDUuMiIgZmlsbD0iIzNBNEQ1NCIgY2xpcC1ydWxlPSJldmVub2RkIiBmaWxsLXJ1bGU9ImV2ZW5vZGQiLz48cGF0aCBkPSJNNTYgOTcuOGMtNi43LTMuMi0xMC4zLTcuNS0xMi40LTEyLjItMi41LjctNS41IDEuMi04LjkgMS40LTEuMy4xLTIuNy4xLTQuMS4xLTEuNyAwLTMuNCAwLTUuMi0uMSA2IDYgMTMuNiAxMC43IDI3LjUgMTAuOEg1NnoiIGZpbGw9IiNCRkRCRTAiLz48cGF0aCBkPSJNNDYuMSA4OS45Yy0uOS0xLjMtMS44LTIuOC0yLjUtNC4zLTIuNS43LTUuNSAxLjItOC45IDEuNCAyLjMgMS4yIDUuNyAyLjQgMTEuNCAyLjl6IiBmaWxsPSIjRDRFRUYxIi8+PC9zdmc+" parent="1" vertex="1">
          <mxGeometry x="346" y="500" width="40" height="40" as="geometry" />
        </mxCell>
        <mxCell id="nj6cIDg6s4Kl3HThlzyw-64" value="" style="shape=image;verticalLabelPosition=bottom;verticalAlign=top;imageAspect=0;aspect=fixed;image=data:image/svg+xml,PHN2ZyB4bWxucz0iaHR0cDovL3d3dy53My5vcmcvMjAwMC9zdmciIHZpZXdCb3g9IjAgMCAxMjggMTI4Ij48cGF0aCBkPSJNNzMuOCA1MC44aDExLjN2MTEuNWg1LjdjMi42IDAgNS4zLS41IDcuOC0xLjMgMS4yLS40IDIuNi0xIDMuOC0xLjctMS42LTIuMS0yLjQtNC43LTIuNi03LjMtLjMtMy41LjQtOC4xIDIuOC0xMC44bDEuMi0xLjQgMS40IDEuMWMzLjYgMi45IDYuNSA2LjggNy4xIDExLjQgNC4zLTEuMyA5LjMtMSAxMy4xIDEuMmwxLjUuOS0uOCAxLjZjLTMuMiA2LjItOS45IDguMi0xNi40IDcuOC05LjggMjQuMy0zMSAzNS44LTU2LjggMzUuOC0xMy4zIDAtMjUuNS01LTMyLjUtMTYuOGwtLjEtLjItMS0yLjFjLTIuNC01LjItMy4xLTEwLjktMi42LTE2LjZsLjItMS43aDkuNlY1MC44aDExLjNWMzkuNmgyMi41VjI4LjNoMTMuNXYyMi41eiIgZmlsbD0iIzNBNEQ1NCIgY2xpcC1ydWxlPSJldmVub2RkIiBmaWxsLXJ1bGU9ImV2ZW5vZGQiLz48cGF0aCBkPSJNMTEwLjQgNTUuMWMuOC01LjktMy42LTEwLjUtNi40LTEyLjctMy4xIDMuNi0zLjYgMTMuMiAxLjMgMTcuMi0yLjggMi40LTguNSA0LjctMTQuNSA0LjdIMTguNmMtLjYgNi4yLjUgMTEuOSAzIDE2LjhsLjggMS41Yy41LjkgMS4xIDEuNyAxLjcgMi42IDMgLjIgNS43LjMgOC4yLjIgNC45LS4xIDguOS0uNyAxMi0xLjcuNS0uMi45LjEgMS4xLjUuMi41LS4xLjktLjUgMS4xLS40LjEtLjguMy0xLjMuNC0yLjQuNy01IDEuMS04LjMgMS4zaC0uNmMtMS4zLjEtMi43LjEtNC4yLjEtMS42IDAtMy4xIDAtNC45LS4xIDYgNi44IDE1LjQgMTAuOCAyNy4yIDEwLjggMjUgMCA0Ni4yLTExLjEgNTUuNS0zNS45IDYuNy43IDEzLjEtMSAxNi02LjctNC41LTIuNy0xMC41LTEuOC0xMy45LS4xeiIgZmlsbD0iIzAwQUFEQSIvPjxwYXRoIGQ9Ik0xMTAuNCA1NS4xYy44LTUuOS0zLjYtMTAuNS02LjQtMTIuNy0zLjEgMy42LTMuNiAxMy4yIDEuMyAxNy4yLTIuOCAyLjQtOC41IDQuNy0xNC41IDQuN2gtNjhjLS4zIDkuNSAzLjIgMTYuNyA5LjUgMjEgNC45LS4xIDguOS0uNyAxMi0xLjcuNS0uMi45LjEgMS4xLjUuMi41LS4xLjktLjUgMS4xLS40LjEtLjguMy0xLjMuNC0yLjQuNy01LjIgMS4yLTguNSAxLjRsLS4xLS4xYzguNSA0LjQgMjAuOCA0LjMgMzUtMS4xIDE1LjgtNi4xIDMwLjYtMTcuNyA0MC45LTMwLjktLjIuMS0uNC4xLS41LjJ6IiBmaWxsPSIjMjhCOEVCIi8+PHBhdGggZD0iTTE4LjcgNzEuOGMuNCAzLjMgMS40IDYuNCAyLjkgOS4zbC44IDEuNWMuNS45IDEuMSAxLjcgMS43IDIuNiAzIC4yIDUuNy4zIDguMi4yIDQuOS0uMSA4LjktLjcgMTItMS43LjUtLjIuOS4xIDEuMS41LjIuNS0uMS45LS41IDEuMS0uNC4xLS44LjMtMS4zLjQtMi40LjctNS4yIDEuMi04LjUgMS40aC0uNGMtMS4zLjEtMi43LjEtNC4xLjEtMS42IDAtMy4yIDAtNC45LS4xIDYgNi44IDE1LjUgMTAuOCAyNy4zIDEwLjggMjEuNCAwIDQwLTguMSA1MC44LTI2SDE4Ljd2LS4xeiIgZmlsbD0iIzAyOEJCOCIvPjxwYXRoIGQ9Ik0yMy41IDcxLjhjMS4zIDUuOCA0LjMgMTAuNCA4LjggMTMuNSA0LjktLjEgOC45LS43IDEyLTEuNy41LS4yLjkuMSAxLjEuNS4yLjUtLjEuOS0uNSAxLjEtLjQuMS0uOC4zLTEuMy40LTIuNC43LTUuMiAxLjItOC42IDEuNCA4LjUgNC40IDIwLjggNC4zIDM0LjktMS4xIDguNS0zLjMgMTYuOC04LjIgMjQuMi0xNC4xSDIzLjV6IiBmaWxsPSIjMDE5QkM2Ii8+PHBhdGggZD0iTTI4LjQgNTIuN2g5Ljh2OS44aC05Ljh2LTkuOHptLjguOGguOHY4LjFoLS44di04LjF6bTEuNCAwaC44djguMWgtLjh2LTguMXptMS41IDBoLjh2OC4xaC0uOHYtOC4xem0xLjUgMGguOHY4LjFoLS44di04LjF6bTEuNSAwaC44djguMWgtLjh2LTguMXptMS41IDBoLjh2OC4xaC0uOHYtOC4xem0zLTEyaDkuOHY5LjhoLTkuOHYtOS44em0uOS44aC44djguMWgtLjh2LTguMXptMS40IDBoLjh2OC4xaC0uOHYtOC4xem0xLjUgMGguOHY4LjFoLS44di04LjF6bTEuNSAwaC44djguMWgtLjh2LTguMXptMS40IDBoLjh2OC4xaC0uOHYtOC4xem0xLjUgMGguOHY4LjFoLS44di04LjF6IiBmaWxsPSIjMDBBQ0QzIiBjbGlwLXJ1bGU9ImV2ZW5vZGQiIGZpbGwtcnVsZT0iZXZlbm9kZCIvPjxwYXRoIGQ9Ik0zOS42IDUyLjdoOS44djkuOGgtOS44di05Ljh6bS45LjhoLjh2OC4xaC0uOHYtOC4xem0xLjQgMGguOHY4LjFoLS44di04LjF6bTEuNSAwaC44djguMWgtLjh2LTguMXptMS41IDBoLjh2OC4xaC0uOHYtOC4xem0xLjQgMGguOHY4LjFoLS44di04LjF6bTEuNSAwaC44djguMWgtLjh2LTguMXoiIGZpbGw9IiMyM0MyRUUiIGNsaXAtcnVsZT0iZXZlbm9kZCIgZmlsbC1ydWxlPSJldmVub2RkIi8+PHBhdGggZD0iTTUwLjkgNTIuN2g5Ljh2OS44aC05Ljh2LTkuOHptLjguOGguOHY4LjFoLS44di04LjF6bTEuNSAwaC44djguMWgtLjh2LTguMXptMS41IDBoLjh2OC4xaC0uOHYtOC4xem0xLjQgMGguOHY4LjFoLS44di04LjF6bTEuNSAwaC44djguMWgtLjh2LTguMXptMS41IDBoLjh2OC4xaC0uOHYtOC4xeiIgZmlsbD0iIzAwQUNEMyIgY2xpcC1ydWxlPSJldmVub2RkIiBmaWxsLXJ1bGU9ImV2ZW5vZGQiLz48cGF0aCBkPSJNNTAuOSA0MS41aDkuOHY5LjhoLTkuOHYtOS44em0uOC44aC44djguMWgtLjh2LTguMXptMS41IDBoLjh2OC4xaC0uOHYtOC4xem0xLjUgMGguOHY4LjFoLS44di04LjF6bTEuNCAwaC44djguMWgtLjh2LTguMXptMS41IDBoLjh2OC4xaC0uOHYtOC4xem0xLjUgMGguOHY4LjFoLS44di04LjF6bTMuMSAxMC40SDcydjkuOGgtOS44di05Ljh6bS44LjhoLjh2OC4xSDYzdi04LjF6bTEuNSAwaC44djguMWgtLjh2LTguMXptMS40IDBoLjh2OC4xaC0uOHYtOC4xem0xLjUgMGguOHY4LjFoLS44di04LjF6bTEuNSAwaC44djguMWgtLjh2LTguMXptMS41IDBoLjh2OC4xaC0uOHYtOC4xeiIgZmlsbD0iIzIzQzJFRSIgY2xpcC1ydWxlPSJldmVub2RkIiBmaWxsLXJ1bGU9ImV2ZW5vZGQiLz48cGF0aCBkPSJNNjIuMiA0MS41SDcydjkuOGgtOS44di05Ljh6bS44LjhoLjh2OC4xSDYzdi04LjF6bTEuNSAwaC44djguMWgtLjh2LTguMXptMS40IDBoLjh2OC4xaC0uOHYtOC4xem0xLjUgMGguOHY4LjFoLS44di04LjF6bTEuNSAwaC44djguMWgtLjh2LTguMXptMS41IDBoLjh2OC4xaC0uOHYtOC4xeiIgZmlsbD0iIzAwQUNEMyIgY2xpcC1ydWxlPSJldmVub2RkIiBmaWxsLXJ1bGU9ImV2ZW5vZGQiLz48cGF0aCBkPSJNNjIuMiAzMC4ySDcyVjQwaC05Ljh2LTkuOHptLjguOGguOHY4LjFINjNWMzF6bTEuNSAwaC44djguMWgtLjhWMzF6bTEuNCAwaC44djguMWgtLjhWMzF6bTEuNSAwaC44djguMWgtLjhWMzF6bTEuNSAwaC44djguMWgtLjhWMzF6bTEuNSAwaC44djguMWgtLjhWMzF6IiBmaWxsPSIjMjNDMkVFIiBjbGlwLXJ1bGU9ImV2ZW5vZGQiIGZpbGwtcnVsZT0iZXZlbm9kZCIvPjxwYXRoIGQ9Ik03My41IDUyLjdoOS44djkuOGgtOS44di05Ljh6bS44LjhoLjh2OC4xaC0uOHYtOC4xem0xLjQgMGguOHY4LjFoLS44di04LjF6bTEuNSAwaC44djguMWgtLjh2LTguMXptMS41IDBoLjh2OC4xaC0uOHYtOC4xem0xLjUgMGguOHY4LjFoLS44di04LjF6bTEuNSAwaC44djguMWgtLjh2LTguMXoiIGZpbGw9IiMwMEFDRDMiIGNsaXAtcnVsZT0iZXZlbm9kZCIgZmlsbC1ydWxlPSJldmVub2RkIi8+PHBhdGggZD0iTTQ4LjggNzguM2MxLjUgMCAyLjcgMS4yIDIuNyAyLjcgMCAxLjUtMS4yIDIuNy0yLjcgMi43LTEuNSAwLTIuNy0xLjItMi43LTIuNyAwLTEuNSAxLjItMi43IDIuNy0yLjciIGZpbGw9IiNENEVFRjEiIGNsaXAtcnVsZT0iZXZlbm9kZCIgZmlsbC1ydWxlPSJldmVub2RkIi8+PHBhdGggZD0iTTQ4LjggNzkuMWMuMiAwIC41IDAgLjcuMS0uMi4xLS40LjQtLjQuNyAwIC40LjQuOC44LjguMyAwIC42LS4yLjctLjQuMS4yLjEuNS4xLjcgMCAxLjEtLjkgMS45LTEuOSAxLjktMS4xIDAtMS45LS45LTEuOS0xLjkgMC0xIC44LTEuOSAxLjktMS45TTEuMSA3Mi44aDEyNS40Yy0yLjctLjctOC42LTEuNi03LjctNS4yLTUgNS43LTE2LjkgNC0yMCAxLjItMy40IDQuOS0yMyAzLTI0LjMtLjgtNC4yIDUtMTcuMyA1LTIxLjUgMC0xLjQgMy44LTIxIDUuNy0yNC4zLjgtMyAyLjgtMTUgNC41LTIwLTEuMiAxLjEgMy41LTQuOSA0LjUtNy42IDUuMiIgZmlsbD0iIzNBNEQ1NCIgY2xpcC1ydWxlPSJldmVub2RkIiBmaWxsLXJ1bGU9ImV2ZW5vZGQiLz48cGF0aCBkPSJNNTYgOTcuOGMtNi43LTMuMi0xMC4zLTcuNS0xMi40LTEyLjItMi41LjctNS41IDEuMi04LjkgMS40LTEuMy4xLTIuNy4xLTQuMS4xLTEuNyAwLTMuNCAwLTUuMi0uMSA2IDYgMTMuNiAxMC43IDI3LjUgMTAuOEg1NnoiIGZpbGw9IiNCRkRCRTAiLz48cGF0aCBkPSJNNDYuMSA4OS45Yy0uOS0xLjMtMS44LTIuOC0yLjUtNC4zLTIuNS43LTUuNSAxLjItOC45IDEuNCAyLjMgMS4yIDUuNyAyLjQgMTEuNCAyLjl6IiBmaWxsPSIjRDRFRUYxIi8+PC9zdmc+" parent="1" vertex="1">
          <mxGeometry x="344.66999999999996" y="655" width="38.75" height="38.75" as="geometry" />
        </mxCell>
        <mxCell id="nj6cIDg6s4Kl3HThlzyw-59" value="" style="rounded=1;whiteSpace=wrap;html=1;shadow=1;shadowOpacity=50;" parent="1" vertex="1">
          <mxGeometry x="425.14" y="661" width="140" height="95.25" as="geometry" />
        </mxCell>
        <mxCell id="nj6cIDg6s4Kl3HThlzyw-13" value="" style="shape=image;verticalLabelPosition=bottom;verticalAlign=top;imageAspect=0;aspect=fixed;image=data:image/svg+xml,PHN2ZyB4bWxucz0iaHR0cDovL3d3dy53My5vcmcvMjAwMC9zdmciIHZpZXdCb3g9IjAgMCAxMjggMTI4Ij48cGF0aCBmaWxsPSIjMDkwIiBkPSJNMjQuNSA1MC41Yy0xLjUgMC0yLjUgMS4yLTIuNSAyLjd2MTQuMWwtMTUuOS0xNmMtLjgtLjgtMi4yLTEtMy4yLS42UzEgNTIuMSAxIDUzLjJ2MjAuN2MwIDEuNSAxLjUgMi43IDMgMi43czMtMS4yIDMtMi43VjU5LjhsMTYuMSAxNmMuNS41IDEuMi44IDEuOS44LjMgMCAuNC0uMS43LS4yIDEtLjQgMS4zLTEuNCAxLjMtMi41VjUzLjNjMC0xLjUtMS0yLjgtMi41LTIuOHptMTkuNyAxMS44Yy0xLjQgMC0yLjcgMS40LTIuNyAyLjhzMS4zIDIuOCAyLjcgMi44bDYuNi40LTEuNSAzLjdoLTguNWwtNC4yLTcuOSA0LjMtOC4xSDUwbDIuMSA0aDUuNUw1NCA1Mi4xbC0uOC0xLjFIMzcuNmwtLjcgMS4yTDMxIDYyLjVsLS43IDEuMy43IDEuMyA1LjggMTAuMy44IDEuNmgxNS4xbC43LTEuNyA0LjMtOSAxLjktNC4zaC00LjRsLTExIC4zek02NSA1MC41Yy0xLjQgMC0zIDEuMy0zIDIuN1Y2MGg2di02LjdjMC0xLjUtMS42LTIuOC0zLTIuOHptMzAuNC4zYy0xLS40LTIuNC0uMi0zLjEuNkw3NiA2Ny40VjUzLjNjMC0xLjUtMS0yLjctMi41LTIuN1M3MSA1MS44IDcxIDUzLjNWNzRjMCAxLjEuNyAyLjEgMS43IDIuNS4zLjEuNy4yIDEgLjIuNyAwIDEuNi0uMyAyLjEtLjhsMTYuMi0xNlY3NGMwIDEuNSAxIDIuNyAyLjUgMi43Uzk3IDc1LjUgOTcgNzRWNTMuM2MwLTEuMS0uNi0yLjEtMS42LTIuNXptMjEuOCAxMi44bDguNC04LjRjMS4xLTEuMSAxLjEtMi44IDAtMy44LTEuMS0xLjEtMi44LTEuMS0zLjggMGwtOC40IDguNC04LjQtOC40Yy0xLjEtMS4xLTIuOC0xLjEtMy44IDAtMS4xIDEuMS0xLjEgMi44IDAgMy44bDguNCA4LjQtOC40IDguNGMtMS4xIDEuMS0xLjEgMi44IDAgMy44LjUuNSAxLjIuOCAxLjkuOHMxLjQtLjMgMS45LS44bDguNC04LjQgOC40IDguNGMuNS41IDEuMi44IDEuOS44czEuNC0uMyAxLjktLjhjMS4xLTEuMSAxLjEtMi44IDAtMy44bC04LjQtOC40ek02MiA3My45YzAgMS40IDEuNSAyLjcgMyAyLjcgMS40IDAgMy0xLjMgMy0yLjdWNjJoLTZ2MTEuOXoiLz48L3N2Zz4=;shadow=0;clipPath=inset(33.33% 0% 33.33% 0%);" parent="1" vertex="1">
          <mxGeometry x="445.27" y="676.25" width="99.75" height="33.25" as="geometry" />
        </mxCell>
        <mxCell id="nj6cIDg6s4Kl3HThlzyw-34" value="" style="shape=image;verticalLabelPosition=bottom;verticalAlign=top;imageAspect=0;aspect=fixed;image=data:image/svg+xml,PHN2ZyB4bWxucz0iaHR0cDovL3d3dy53My5vcmcvMjAwMC9zdmciIHZpZXdCb3g9IjAgMCAxMjggMTI4Ij48cGF0aCBkPSJNMS40MDggMS40MDhoMTI1LjE4NHYxMjUuMTg1SDEuNDA4eiIgZmlsbD0iI0YwREI0RiIvPjxwYXRoIGQ9Ik0xMTYuMzQ3IDk2LjczNmMtLjkxNy01LjcxMS00LjY0MS0xMC41MDgtMTUuNjcyLTE0Ljk4MS0zLjgzMi0xLjc2MS04LjEwNC0zLjAyMi05LjM3Ny01LjkyNi0uNDUyLTEuNjktLjUxMi0yLjY0Mi0uMjI2LTMuNjY1LjgyMS0zLjMyIDQuNzg0LTQuMzU1IDcuOTI1LTMuNDAzIDIuMDIzLjY3OCAzLjkzOCAyLjIzNyA1LjA5MyA0LjcyNCA1LjQwMi0zLjQ5OCA1LjM5MS0zLjQ3NSA5LjE2My01Ljg3OS0xLjM4MS0yLjE0MS0yLjExOC0zLjEyOS0zLjAyMi00LjA0NS0zLjI0OS0zLjYyOS03LjY3Ni01LjQ5OC0xNC43NTYtNS4zNTVsLTMuNjg4LjQ3N2MtMy41MzQuODkzLTYuOTAyIDIuNzQ4LTguODc3IDUuMjM1LTUuOTI2IDYuNzI0LTQuMjM2IDE4LjQ5MiAyLjk3NSAyMy4zMzUgNy4xMDQgNS4zMzIgMTcuNTQgNi41NDUgMTguODczIDExLjUzMSAxLjI5NyA2LjEwNC00LjQ4NiA4LjA4LTEwLjIzNCA3LjM3OC00LjIzNi0uODgxLTYuNTkyLTMuMDM0LTkuMTM5LTYuOTQ5LTQuNjg4IDIuNzEzLTQuNjg4IDIuNzEzLTkuNTA4IDUuNDg1IDEuMTQzIDIuNDk5IDIuMzQ0IDMuNjMgNC4yNiA1Ljc5NSA5LjA2OCA5LjE5OCAzMS43NiA4Ljc0NiAzNS44My01LjE3Ni4xNjUtLjQ3OCAxLjI2MS0zLjY2Ni4zOC04LjU4MXpNNjkuNDYyIDU4Ljk0M0g1Ny43NTNsLS4wNDggMzAuMjcyYzAgNi40MzguMzMzIDEyLjM0LS43MTQgMTQuMTQ5LTEuNzEzIDMuNTU4LTYuMTUyIDMuMTE3LTguMTc1IDIuNDI3LTIuMDU5LTEuMDEyLTMuMTA2LTIuNDUxLTQuMzE5LTQuNDg1LS4zMzMtLjU4NC0uNTgzLTEuMDM2LS42NjctMS4wNzFsLTkuNTIgNS44M2MxLjU4MyAzLjI0OSAzLjkxNSA2LjA2OSA2LjkwMiA3LjkwMSA0LjQ2MiAyLjY3OCAxMC40NTkgMy40OTkgMTYuNzMxIDIuMDU5IDQuMDgyLTEuMTg5IDcuNjA0LTMuNjUyIDkuNDQ4LTcuNDAxIDIuNjY2LTQuOTE1IDIuMDk0LTEwLjg2NCAyLjA3LTE3LjQ0NC4wNi0xMC43MzUuMDAxLTIxLjQ2OC4wMDEtMzIuMjM3eiIgZmlsbD0iIzMyMzMzMCIvPjwvc3ZnPg==" parent="1" vertex="1">
          <mxGeometry x="478.39" y="720.5" width="28.25" height="28.25" as="geometry" />
        </mxCell>
        <mxCell id="nj6cIDg6s4Kl3HThlzyw-60" value="" style="shape=image;verticalLabelPosition=bottom;verticalAlign=top;imageAspect=0;aspect=fixed;image=data:image/svg+xml,PHN2ZyB4bWxucz0iaHR0cDovL3d3dy53My5vcmcvMjAwMC9zdmciIHZpZXdCb3g9IjAgMCAxMjggMTI4Ij48cGF0aCBkPSJNMTguODE0IDExNC4xMjNMOC43NiAxLjM1MmgxMTAuNDhsLTEwLjA2NCAxMTIuNzU0LTQ1LjI0MyAxMi41NDMtNDUuMTE5LTEyLjUyNnoiIGZpbGw9IiMxNTcyQjYiLz48cGF0aCBkPSJNNjQuMDAxIDExNy4wNjJsMzYuNTU5LTEwLjEzNiA4LjYwMS05Ni4zNTRoLTQ1LjE2djEwNi40OXoiIGZpbGw9IiMzM0E5REMiLz48cGF0aCBkPSJNNjQuMDAxIDUxLjQyOWgxOC4zMDJsMS4yNjQtMTQuMTYzSDY0LjAwMVYyMy40MzVoMzQuNjgybC0uMzMyIDMuNzExLTMuNCAzOC4xMTRoLTMwLjk1VjUxLjQyOXoiIGZpbGw9IiNmZmYiLz48cGF0aCBkPSJNNjQuMDgzIDg3LjM0OWwtLjA2MS4wMTgtMTUuNDAzLTQuMTU5LS45ODUtMTEuMDMxSDMzLjc1MmwxLjkzNyAyMS43MTcgMjguMzMxIDcuODYzLjA2My0uMDE4di0xNC4zOXoiIGZpbGw9IiNFQkVCRUIiLz48cGF0aCBkPSJNODEuMTI3IDY0LjY3NWwtMS42NjYgMTguNTIyLTE1LjQyNiA0LjE2NHYxNC4zOWwyOC4zNTQtNy44NTguMjA4LTIuMzM3IDIuNDA2LTI2Ljg4MUg4MS4xMjd6IiBmaWxsPSIjZmZmIi8+PHBhdGggZD0iTTY0LjA0OCAyMy40MzV2MTMuODMxSDMwLjY0bC0uMjc3LTMuMTA4LS42My03LjAxMi0uMzMxLTMuNzExaDM0LjY0NnptLS4wNDcgMjcuOTk2djEzLjgzMUg0OC43OTJsLS4yNzctMy4xMDgtLjYzMS03LjAxMi0uMzMtMy43MTFoMTYuNDQ3eiIgZmlsbD0iI0VCRUJFQiIvPjwvc3ZnPg==" parent="1" vertex="1">
          <mxGeometry x="445.27" y="720.5" width="28.25" height="28.25" as="geometry" />
        </mxCell>
        <mxCell id="nj6cIDg6s4Kl3HThlzyw-61" value="" style="shape=image;verticalLabelPosition=bottom;verticalAlign=top;imageAspect=0;aspect=fixed;image=data:image/svg+xml,PHN2ZyB4bWxucz0iaHR0cDovL3d3dy53My5vcmcvMjAwMC9zdmciIHZpZXdCb3g9IjAgMCAxMjggMTI4Ij48cGF0aCBkPSJNMTkuMDM3IDExMy44NzZMOS4wMzIgMS42NjFoMTA5LjkzNmwtMTAuMDE2IDExMi4xOTgtNDUuMDE5IDEyLjQ4eiIgZmlsbD0iI0U0NEQyNiIvPjxwYXRoIGQ9Ik02NCAxMTYuOGwzNi4zNzgtMTAuMDg2IDguNTU5LTk1Ljg3OEg2NHoiIGZpbGw9IiNGMTY1MjkiLz48cGF0aCBkPSJNNjQgNTIuNDU1SDQ1Ljc4OEw0NC41MyAzOC4zNjFINjRWMjQuNTk5SDI5LjQ4OWwuMzMgMy42OTIgMy4zODIgMzcuOTI3SDY0em0wIDM1Ljc0M2wtLjA2MS4wMTctMTUuMzI3LTQuMTQtLjk3OS0xMC45NzVIMzMuODE2bDEuOTI4IDIxLjYwOSAyOC4xOTMgNy44MjYuMDYzLS4wMTd6IiBmaWxsPSIjRUJFQkVCIi8+PHBhdGggZD0iTTYzLjk1MiA1Mi40NTV2MTMuNzYzaDE2Ljk0N2wtMS41OTcgMTcuODQ5LTE1LjM1IDQuMTQzdjE0LjMxOWwyOC4yMTUtNy44Mi4yMDctMi4zMjUgMy4yMzQtMzYuMjMzLjMzNS0zLjY5NmgtMy43MDh6bTAtMjcuODU2djEzLjc2MmgzMy4yNDRsLjI3Ni0zLjA5Mi42MjgtNi45NzguMzI5LTMuNjkyeiIgZmlsbD0iI2ZmZiIvPjwvc3ZnPg==" parent="1" vertex="1">
          <mxGeometry x="510.89" y="720.5" width="28.25" height="28.25" as="geometry" />
        </mxCell>
        <mxCell id="nj6cIDg6s4Kl3HThlzyw-65" value="" style="shape=image;verticalLabelPosition=bottom;verticalAlign=top;imageAspect=0;aspect=fixed;image=data:image/svg+xml,PHN2ZyB4bWxucz0iaHR0cDovL3d3dy53My5vcmcvMjAwMC9zdmciIHZpZXdCb3g9IjAgMCAxMjggMTI4Ij48cGF0aCBkPSJNNzMuOCA1MC44aDExLjN2MTEuNWg1LjdjMi42IDAgNS4zLS41IDcuOC0xLjMgMS4yLS40IDIuNi0xIDMuOC0xLjctMS42LTIuMS0yLjQtNC43LTIuNi03LjMtLjMtMy41LjQtOC4xIDIuOC0xMC44bDEuMi0xLjQgMS40IDEuMWMzLjYgMi45IDYuNSA2LjggNy4xIDExLjQgNC4zLTEuMyA5LjMtMSAxMy4xIDEuMmwxLjUuOS0uOCAxLjZjLTMuMiA2LjItOS45IDguMi0xNi40IDcuOC05LjggMjQuMy0zMSAzNS44LTU2LjggMzUuOC0xMy4zIDAtMjUuNS01LTMyLjUtMTYuOGwtLjEtLjItMS0yLjFjLTIuNC01LjItMy4xLTEwLjktMi42LTE2LjZsLjItMS43aDkuNlY1MC44aDExLjNWMzkuNmgyMi41VjI4LjNoMTMuNXYyMi41eiIgZmlsbD0iIzNBNEQ1NCIgY2xpcC1ydWxlPSJldmVub2RkIiBmaWxsLXJ1bGU9ImV2ZW5vZGQiLz48cGF0aCBkPSJNMTEwLjQgNTUuMWMuOC01LjktMy42LTEwLjUtNi40LTEyLjctMy4xIDMuNi0zLjYgMTMuMiAxLjMgMTcuMi0yLjggMi40LTguNSA0LjctMTQuNSA0LjdIMTguNmMtLjYgNi4yLjUgMTEuOSAzIDE2LjhsLjggMS41Yy41LjkgMS4xIDEuNyAxLjcgMi42IDMgLjIgNS43LjMgOC4yLjIgNC45LS4xIDguOS0uNyAxMi0xLjcuNS0uMi45LjEgMS4xLjUuMi41LS4xLjktLjUgMS4xLS40LjEtLjguMy0xLjMuNC0yLjQuNy01IDEuMS04LjMgMS4zaC0uNmMtMS4zLjEtMi43LjEtNC4yLjEtMS42IDAtMy4xIDAtNC45LS4xIDYgNi44IDE1LjQgMTAuOCAyNy4yIDEwLjggMjUgMCA0Ni4yLTExLjEgNTUuNS0zNS45IDYuNy43IDEzLjEtMSAxNi02LjctNC41LTIuNy0xMC41LTEuOC0xMy45LS4xeiIgZmlsbD0iIzAwQUFEQSIvPjxwYXRoIGQ9Ik0xMTAuNCA1NS4xYy44LTUuOS0zLjYtMTAuNS02LjQtMTIuNy0zLjEgMy42LTMuNiAxMy4yIDEuMyAxNy4yLTIuOCAyLjQtOC41IDQuNy0xNC41IDQuN2gtNjhjLS4zIDkuNSAzLjIgMTYuNyA5LjUgMjEgNC45LS4xIDguOS0uNyAxMi0xLjcuNS0uMi45LjEgMS4xLjUuMi41LS4xLjktLjUgMS4xLS40LjEtLjguMy0xLjMuNC0yLjQuNy01LjIgMS4yLTguNSAxLjRsLS4xLS4xYzguNSA0LjQgMjAuOCA0LjMgMzUtMS4xIDE1LjgtNi4xIDMwLjYtMTcuNyA0MC45LTMwLjktLjIuMS0uNC4xLS41LjJ6IiBmaWxsPSIjMjhCOEVCIi8+PHBhdGggZD0iTTE4LjcgNzEuOGMuNCAzLjMgMS40IDYuNCAyLjkgOS4zbC44IDEuNWMuNS45IDEuMSAxLjcgMS43IDIuNiAzIC4yIDUuNy4zIDguMi4yIDQuOS0uMSA4LjktLjcgMTItMS43LjUtLjIuOS4xIDEuMS41LjIuNS0uMS45LS41IDEuMS0uNC4xLS44LjMtMS4zLjQtMi40LjctNS4yIDEuMi04LjUgMS40aC0uNGMtMS4zLjEtMi43LjEtNC4xLjEtMS42IDAtMy4yIDAtNC45LS4xIDYgNi44IDE1LjUgMTAuOCAyNy4zIDEwLjggMjEuNCAwIDQwLTguMSA1MC44LTI2SDE4Ljd2LS4xeiIgZmlsbD0iIzAyOEJCOCIvPjxwYXRoIGQ9Ik0yMy41IDcxLjhjMS4zIDUuOCA0LjMgMTAuNCA4LjggMTMuNSA0LjktLjEgOC45LS43IDEyLTEuNy41LS4yLjkuMSAxLjEuNS4yLjUtLjEuOS0uNSAxLjEtLjQuMS0uOC4zLTEuMy40LTIuNC43LTUuMiAxLjItOC42IDEuNCA4LjUgNC40IDIwLjggNC4zIDM0LjktMS4xIDguNS0zLjMgMTYuOC04LjIgMjQuMi0xNC4xSDIzLjV6IiBmaWxsPSIjMDE5QkM2Ii8+PHBhdGggZD0iTTI4LjQgNTIuN2g5Ljh2OS44aC05Ljh2LTkuOHptLjguOGguOHY4LjFoLS44di04LjF6bTEuNCAwaC44djguMWgtLjh2LTguMXptMS41IDBoLjh2OC4xaC0uOHYtOC4xem0xLjUgMGguOHY4LjFoLS44di04LjF6bTEuNSAwaC44djguMWgtLjh2LTguMXptMS41IDBoLjh2OC4xaC0uOHYtOC4xem0zLTEyaDkuOHY5LjhoLTkuOHYtOS44em0uOS44aC44djguMWgtLjh2LTguMXptMS40IDBoLjh2OC4xaC0uOHYtOC4xem0xLjUgMGguOHY4LjFoLS44di04LjF6bTEuNSAwaC44djguMWgtLjh2LTguMXptMS40IDBoLjh2OC4xaC0uOHYtOC4xem0xLjUgMGguOHY4LjFoLS44di04LjF6IiBmaWxsPSIjMDBBQ0QzIiBjbGlwLXJ1bGU9ImV2ZW5vZGQiIGZpbGwtcnVsZT0iZXZlbm9kZCIvPjxwYXRoIGQ9Ik0zOS42IDUyLjdoOS44djkuOGgtOS44di05Ljh6bS45LjhoLjh2OC4xaC0uOHYtOC4xem0xLjQgMGguOHY4LjFoLS44di04LjF6bTEuNSAwaC44djguMWgtLjh2LTguMXptMS41IDBoLjh2OC4xaC0uOHYtOC4xem0xLjQgMGguOHY4LjFoLS44di04LjF6bTEuNSAwaC44djguMWgtLjh2LTguMXoiIGZpbGw9IiMyM0MyRUUiIGNsaXAtcnVsZT0iZXZlbm9kZCIgZmlsbC1ydWxlPSJldmVub2RkIi8+PHBhdGggZD0iTTUwLjkgNTIuN2g5Ljh2OS44aC05Ljh2LTkuOHptLjguOGguOHY4LjFoLS44di04LjF6bTEuNSAwaC44djguMWgtLjh2LTguMXptMS41IDBoLjh2OC4xaC0uOHYtOC4xem0xLjQgMGguOHY4LjFoLS44di04LjF6bTEuNSAwaC44djguMWgtLjh2LTguMXptMS41IDBoLjh2OC4xaC0uOHYtOC4xeiIgZmlsbD0iIzAwQUNEMyIgY2xpcC1ydWxlPSJldmVub2RkIiBmaWxsLXJ1bGU9ImV2ZW5vZGQiLz48cGF0aCBkPSJNNTAuOSA0MS41aDkuOHY5LjhoLTkuOHYtOS44em0uOC44aC44djguMWgtLjh2LTguMXptMS41IDBoLjh2OC4xaC0uOHYtOC4xem0xLjUgMGguOHY4LjFoLS44di04LjF6bTEuNCAwaC44djguMWgtLjh2LTguMXptMS41IDBoLjh2OC4xaC0uOHYtOC4xem0xLjUgMGguOHY4LjFoLS44di04LjF6bTMuMSAxMC40SDcydjkuOGgtOS44di05Ljh6bS44LjhoLjh2OC4xSDYzdi04LjF6bTEuNSAwaC44djguMWgtLjh2LTguMXptMS40IDBoLjh2OC4xaC0uOHYtOC4xem0xLjUgMGguOHY4LjFoLS44di04LjF6bTEuNSAwaC44djguMWgtLjh2LTguMXptMS41IDBoLjh2OC4xaC0uOHYtOC4xeiIgZmlsbD0iIzIzQzJFRSIgY2xpcC1ydWxlPSJldmVub2RkIiBmaWxsLXJ1bGU9ImV2ZW5vZGQiLz48cGF0aCBkPSJNNjIuMiA0MS41SDcydjkuOGgtOS44di05Ljh6bS44LjhoLjh2OC4xSDYzdi04LjF6bTEuNSAwaC44djguMWgtLjh2LTguMXptMS40IDBoLjh2OC4xaC0uOHYtOC4xem0xLjUgMGguOHY4LjFoLS44di04LjF6bTEuNSAwaC44djguMWgtLjh2LTguMXptMS41IDBoLjh2OC4xaC0uOHYtOC4xeiIgZmlsbD0iIzAwQUNEMyIgY2xpcC1ydWxlPSJldmVub2RkIiBmaWxsLXJ1bGU9ImV2ZW5vZGQiLz48cGF0aCBkPSJNNjIuMiAzMC4ySDcyVjQwaC05Ljh2LTkuOHptLjguOGguOHY4LjFINjNWMzF6bTEuNSAwaC44djguMWgtLjhWMzF6bTEuNCAwaC44djguMWgtLjhWMzF6bTEuNSAwaC44djguMWgtLjhWMzF6bTEuNSAwaC44djguMWgtLjhWMzF6bTEuNSAwaC44djguMWgtLjhWMzF6IiBmaWxsPSIjMjNDMkVFIiBjbGlwLXJ1bGU9ImV2ZW5vZGQiIGZpbGwtcnVsZT0iZXZlbm9kZCIvPjxwYXRoIGQ9Ik03My41IDUyLjdoOS44djkuOGgtOS44di05Ljh6bS44LjhoLjh2OC4xaC0uOHYtOC4xem0xLjQgMGguOHY4LjFoLS44di04LjF6bTEuNSAwaC44djguMWgtLjh2LTguMXptMS41IDBoLjh2OC4xaC0uOHYtOC4xem0xLjUgMGguOHY4LjFoLS44di04LjF6bTEuNSAwaC44djguMWgtLjh2LTguMXoiIGZpbGw9IiMwMEFDRDMiIGNsaXAtcnVsZT0iZXZlbm9kZCIgZmlsbC1ydWxlPSJldmVub2RkIi8+PHBhdGggZD0iTTQ4LjggNzguM2MxLjUgMCAyLjcgMS4yIDIuNyAyLjcgMCAxLjUtMS4yIDIuNy0yLjcgMi43LTEuNSAwLTIuNy0xLjItMi43LTIuNyAwLTEuNSAxLjItMi43IDIuNy0yLjciIGZpbGw9IiNENEVFRjEiIGNsaXAtcnVsZT0iZXZlbm9kZCIgZmlsbC1ydWxlPSJldmVub2RkIi8+PHBhdGggZD0iTTQ4LjggNzkuMWMuMiAwIC41IDAgLjcuMS0uMi4xLS40LjQtLjQuNyAwIC40LjQuOC44LjguMyAwIC42LS4yLjctLjQuMS4yLjEuNS4xLjcgMCAxLjEtLjkgMS45LTEuOSAxLjktMS4xIDAtMS45LS45LTEuOS0xLjkgMC0xIC44LTEuOSAxLjktMS45TTEuMSA3Mi44aDEyNS40Yy0yLjctLjctOC42LTEuNi03LjctNS4yLTUgNS43LTE2LjkgNC0yMCAxLjItMy40IDQuOS0yMyAzLTI0LjMtLjgtNC4yIDUtMTcuMyA1LTIxLjUgMC0xLjQgMy44LTIxIDUuNy0yNC4zLjgtMyAyLjgtMTUgNC41LTIwLTEuMiAxLjEgMy41LTQuOSA0LjUtNy42IDUuMiIgZmlsbD0iIzNBNEQ1NCIgY2xpcC1ydWxlPSJldmVub2RkIiBmaWxsLXJ1bGU9ImV2ZW5vZGQiLz48cGF0aCBkPSJNNTYgOTcuOGMtNi43LTMuMi0xMC4zLTcuNS0xMi40LTEyLjItMi41LjctNS41IDEuMi04LjkgMS40LTEuMy4xLTIuNy4xLTQuMS4xLTEuNyAwLTMuNCAwLTUuMi0uMSA2IDYgMTMuNiAxMC43IDI3LjUgMTAuOEg1NnoiIGZpbGw9IiNCRkRCRTAiLz48cGF0aCBkPSJNNDYuMSA4OS45Yy0uOS0xLjMtMS44LTIuOC0yLjUtNC4zLTIuNS43LTUuNSAxLjItOC45IDEuNCAyLjMgMS4yIDUuNyAyLjQgMTEuNCAyLjl6IiBmaWxsPSIjRDRFRUYxIi8+PC9zdmc+" parent="1" vertex="1">
          <mxGeometry x="542.14" y="640" width="38" height="38" as="geometry" />
        </mxCell>
        <mxCell id="9wqgkCLCAKWmc9FA3JSF-5" value="JWT" style="image;aspect=fixed;html=1;points=[];align=center;fontSize=12;image=img/lib/azure2/identity/PIM.svg;" parent="1" vertex="1">
          <mxGeometry x="160" y="688.75" width="33.53" height="38" as="geometry" />
        </mxCell>
        <mxCell id="n4JKIu-Qerj483weCeP9-5" style="edgeStyle=orthogonalEdgeStyle;rounded=1;orthogonalLoop=1;jettySize=auto;html=1;entryX=0.75;entryY=0;entryDx=0;entryDy=0;curved=0;flowAnimation=1;startArrow=oval;startFill=1;" edge="1" parent="1" source="8uVEAsozO4JElIM9E6pN-1" target="nj6cIDg6s4Kl3HThlzyw-5">
          <mxGeometry relative="1" as="geometry">
            <Array as="points">
              <mxPoint x="459" y="620" />
              <mxPoint x="336" y="620" />
            </Array>
          </mxGeometry>
        </mxCell>
        <mxCell id="n4JKIu-Qerj483weCeP9-6" value="get stored graphs files" style="edgeLabel;html=1;align=center;verticalAlign=middle;resizable=0;points=[];" connectable="0" vertex="1" parent="n4JKIu-Qerj483weCeP9-5">
          <mxGeometry x="-0.0226" y="-3" relative="1" as="geometry">
            <mxPoint x="55" y="-30" as="offset" />
          </mxGeometry>
        </mxCell>
        <mxCell id="8uVEAsozO4JElIM9E6pN-1" value="&amp;nbsp; loopGraphStorage" style="sketch=0;pointerEvents=1;shadow=0;dashed=0;html=1;strokeColor=none;labelPosition=right;verticalLabelPosition=middle;verticalAlign=middle;outlineConnect=0;align=left;shape=mxgraph.office.concepts.folder;fillColor=#2072B8;" parent="1" vertex="1">
          <mxGeometry x="434.39000000000004" y="510" width="50" height="45" as="geometry" />
        </mxCell>
        <mxCell id="x-3AmGyZtqkXAsrY7Yld-16" value="" style="image;sketch=0;aspect=fixed;html=1;points=[];align=left;fontSize=12;image=img/lib/mscae/Cache_Redis_Product.svg;shadow=1;labelPosition=right;verticalLabelPosition=middle;verticalAlign=middle;shadowOpacity=50;" parent="1" vertex="1">
          <mxGeometry x="248.28" y="534.25" width="48.21" height="40.5" as="geometry" />
        </mxCell>
        <mxCell id="x-3AmGyZtqkXAsrY7Yld-17" value="&lt;span style=&quot;color: rgb(0, 0, 0); font-family: Helvetica; font-size: 12px; font-style: normal; font-variant-ligatures: normal; font-variant-caps: normal; font-weight: 400; letter-spacing: normal; orphans: 2; text-align: left; text-indent: 0px; text-transform: none; widows: 2; word-spacing: 0px; -webkit-text-stroke-width: 0px; white-space: nowrap; text-decoration-thickness: initial; text-decoration-style: initial; text-decoration-color: initial; float: none; display: inline !important;&quot;&gt;&amp;nbsp; Redis&lt;/span&gt;&lt;div style=&quot;forced-color-adjust: none; color: rgb(0, 0, 0); font-family: Helvetica; font-size: 12px; font-style: normal; font-variant-ligatures: normal; font-variant-caps: normal; font-weight: 400; letter-spacing: normal; orphans: 2; text-align: left; text-indent: 0px; text-transform: none; widows: 2; word-spacing: 0px; -webkit-text-stroke-width: 0px; white-space: nowrap; text-decoration-thickness: initial; text-decoration-style: initial; text-decoration-color: initial;&quot;&gt;&amp;nbsp; Cache&lt;/div&gt;" style="text;whiteSpace=wrap;html=1;labelBackgroundColor=none;" parent="1" vertex="1">
          <mxGeometry x="306" y="534.25" width="50" height="35.75" as="geometry" />
        </mxCell>
        <mxCell id="P8xs7sD7qMRsXOZH-fAe-2" value="notifications&amp;nbsp;&amp;nbsp;" style="dashed=0;outlineConnect=0;html=1;align=right;labelPosition=left;verticalLabelPosition=middle;verticalAlign=middle;shape=mxgraph.weblogos.json" parent="1" vertex="1">
          <mxGeometry x="114.95" y="522" width="35.09" height="38" as="geometry" />
        </mxCell>
        <mxCell id="KDXugeUBDVr8v6ooNM0h-4" style="edgeStyle=orthogonalEdgeStyle;rounded=1;orthogonalLoop=1;jettySize=auto;html=1;exitX=1;exitY=0.5;exitDx=0;exitDy=0;exitPerimeter=0;entryX=0.5;entryY=0;entryDx=0;entryDy=0;entryPerimeter=0;strokeWidth=3;flowAnimation=1;endArrow=oval;endFill=1;startArrow=oval;startFill=1;curved=0;fillColor=#e51400;strokeColor=#B20000;dashed=1;dashPattern=1 1;" edge="1" parent="1" source="KDXugeUBDVr8v6ooNM0h-1" target="KDXugeUBDVr8v6ooNM0h-2">
          <mxGeometry relative="1" as="geometry" />
        </mxCell>
        <mxCell id="KDXugeUBDVr8v6ooNM0h-5" style="edgeStyle=orthogonalEdgeStyle;rounded=1;orthogonalLoop=1;jettySize=auto;html=1;exitX=0;exitY=0.5;exitDx=0;exitDy=0;exitPerimeter=0;entryX=0.5;entryY=1;entryDx=0;entryDy=0;entryPerimeter=0;strokeWidth=3;flowAnimation=1;endArrow=oval;endFill=1;startArrow=oval;startFill=1;curved=0;fillColor=#e51400;strokeColor=#B20000;dashed=1;dashPattern=1 1;" edge="1" parent="1" source="Cd25y1kVc9pPuh6rzwN1-4" target="KDXugeUBDVr8v6ooNM0h-1">
          <mxGeometry relative="1" as="geometry" />
        </mxCell>
        <mxCell id="Cd25y1kVc9pPuh6rzwN1-2" style="edgeStyle=orthogonalEdgeStyle;rounded=1;orthogonalLoop=1;jettySize=auto;html=1;exitX=0.5;exitY=0;exitDx=0;exitDy=0;exitPerimeter=0;entryX=0;entryY=0.5;entryDx=0;entryDy=0;flowAnimation=1;curved=0;" edge="1" parent="1" source="KDXugeUBDVr8v6ooNM0h-1" target="Cd25y1kVc9pPuh6rzwN1-1">
          <mxGeometry relative="1" as="geometry" />
        </mxCell>
        <mxCell id="KDXugeUBDVr8v6ooNM0h-1" value="" style="sketch=0;points=[[0.015,0.015,0],[0.985,0.015,0],[0.985,0.985,0],[0.015,0.985,0],[0.25,0,0],[0.5,0,0],[0.75,0,0],[1,0.25,0],[1,0.5,0],[1,0.75,0],[0.75,1,0],[0.5,1,0],[0.25,1,0],[0,0.75,0],[0,0.5,0],[0,0.25,0]];verticalLabelPosition=bottom;html=1;verticalAlign=top;aspect=fixed;align=center;pointerEvents=1;shape=mxgraph.cisco19.rect;prIcon=l2_switch;fillColor=#FAFAFA;strokeColor=#005073;" vertex="1" parent="1">
          <mxGeometry x="40" y="-400" width="50" height="50" as="geometry" />
        </mxCell>
        <mxCell id="Cd25y1kVc9pPuh6rzwN1-3" style="edgeStyle=orthogonalEdgeStyle;rounded=1;orthogonalLoop=1;jettySize=auto;html=1;exitX=1;exitY=0.5;exitDx=0;exitDy=0;exitPerimeter=0;flowAnimation=1;curved=0;" edge="1" parent="1" source="KDXugeUBDVr8v6ooNM0h-2" target="Cd25y1kVc9pPuh6rzwN1-1">
          <mxGeometry relative="1" as="geometry" />
        </mxCell>
        <mxCell id="KDXugeUBDVr8v6ooNM0h-2" value="" style="sketch=0;points=[[0.015,0.015,0],[0.985,0.015,0],[0.985,0.985,0],[0.015,0.985,0],[0.25,0,0],[0.5,0,0],[0.75,0,0],[1,0.25,0],[1,0.5,0],[1,0.75,0],[0.75,1,0],[0.5,1,0],[0.25,1,0],[0,0.75,0],[0,0.5,0],[0,0.25,0]];verticalLabelPosition=bottom;html=1;verticalAlign=top;aspect=fixed;align=center;pointerEvents=1;shape=mxgraph.cisco19.rect;prIcon=l2_switch;fillColor=#FAFAFA;strokeColor=#005073;" vertex="1" parent="1">
          <mxGeometry x="109.99999999999999" y="-330" width="50" height="50" as="geometry" />
        </mxCell>
        <mxCell id="StmvnQxwodWVfL008fLS-2" style="edgeStyle=orthogonalEdgeStyle;rounded=1;orthogonalLoop=1;jettySize=auto;html=1;flowAnimation=1;curved=0;fillColor=#1ba1e2;strokeColor=#006EAF;dashed=1;dashPattern=12 12;" edge="1" parent="1" source="Cd25y1kVc9pPuh6rzwN1-1" target="StmvnQxwodWVfL008fLS-1">
          <mxGeometry relative="1" as="geometry">
            <Array as="points">
              <mxPoint x="280" y="-450" />
              <mxPoint x="280" y="-450" />
            </Array>
          </mxGeometry>
        </mxCell>
        <mxCell id="Cd25y1kVc9pPuh6rzwN1-1" value="Elasticsearch" style="shape=image;verticalLabelPosition=top;verticalAlign=bottom;imageAspect=0;aspect=fixed;image=data:image/svg+xml,PHN2ZyB4bWxucz0iaHR0cDovL3d3dy53My5vcmcvMjAwMC9zdmciIHZpZXdCb3g9IjAgMCAxMjggMTI4Ij4mI3hhOyAgICA8cGF0aCBkPSJNNCA2NGMwIDUuNTM1Ljc3NyAxMC44NzkgMi4wOTggMTZIODRjOC44MzYgMCAxNi03LjE2NCAxNi0xNnMtNy4xNjQtMTYtMTYtMTZINi4wOThBNjMuNzM4IDYzLjczOCAwIDAgMCA0IDY0IiBmaWxsPSIjMzQzNzQxIi8+JiN4YTsgICAgPHBhdGggZD0iTTExMS42OTUgMzAuNjQ4QTYxLjQ4NSA2MS40ODUgMCAwIDAgMTE3LjkyMiAyNEMxMDYuMTg4IDkuMzc5IDg4LjE5OSAwIDY4IDAgNDIuNzE1IDAgMjAuOTU3IDE0LjcxIDEwLjU3NCAzNkg5OC4wNGEyMC4xMjMgMjAuMTIzIDAgMCAwIDEzLjY1Mi01LjM1MiIgZmlsbD0iI2ZlYzUxNCIvPiYjeGE7ICAgIDxwYXRoIGQ9Ik05OC4wNCA5MkgxMC41NzdDMjAuOTYxIDExMy4yOSA0Mi43MTUgMTI4IDY4IDEyOGMyMC4yIDAgMzguMTg4LTkuMzgzIDQ5LjkyMi0yNGE2MS4xIDYxLjEgMCAwIDAtNi4yMjctNi42NDhBMjAuMTMzIDIwLjEzMyAwIDAgMCA5OC4wNCA5MiIgZmlsbD0iIzAwYmZiMyIvPiYjeGE7PC9zdmc+;labelPosition=center;align=center;" vertex="1" parent="1">
          <mxGeometry x="180" y="-470" width="50" height="50" as="geometry" />
        </mxCell>
        <mxCell id="Cd25y1kVc9pPuh6rzwN1-5" value="" style="edgeStyle=orthogonalEdgeStyle;rounded=1;orthogonalLoop=1;jettySize=auto;html=1;exitX=0;exitY=0.5;exitDx=0;exitDy=0;exitPerimeter=0;entryX=0.5;entryY=1;entryDx=0;entryDy=0;entryPerimeter=0;strokeWidth=3;flowAnimation=1;endArrow=oval;endFill=1;startArrow=oval;startFill=1;curved=0;fillColor=#e51400;strokeColor=#B20000;dashed=1;dashPattern=1 1;" edge="1" parent="1" source="KDXugeUBDVr8v6ooNM0h-2" target="Cd25y1kVc9pPuh6rzwN1-4">
          <mxGeometry relative="1" as="geometry">
            <mxPoint x="110" y="-305" as="sourcePoint" />
            <mxPoint x="65" y="-350" as="targetPoint" />
            <Array as="points">
              <mxPoint x="82" y="-305" />
              <mxPoint x="82" y="-270" />
              <mxPoint x="42" y="-270" />
            </Array>
          </mxGeometry>
        </mxCell>
        <mxCell id="Cd25y1kVc9pPuh6rzwN1-4" value="" style="sketch=0;points=[[0.015,0.015,0],[0.985,0.015,0],[0.985,0.985,0],[0.015,0.985,0],[0.25,0,0],[0.5,0,0],[0.75,0,0],[1,0.25,0],[1,0.5,0],[1,0.75,0],[0.75,1,0],[0.5,1,0],[0.25,1,0],[0,0.75,0],[0,0.5,0],[0,0.25,0]];verticalLabelPosition=bottom;html=1;verticalAlign=top;aspect=fixed;align=center;pointerEvents=1;shape=mxgraph.cisco19.rect;prIcon=l2_switch;fillColor=#FAFAFA;strokeColor=#005073;" vertex="1" parent="1">
          <mxGeometry x="30" y="-317.5" width="25" height="25" as="geometry" />
        </mxCell>
        <mxCell id="Cd25y1kVc9pPuh6rzwN1-8" value="На сети возникла петля!" style="text;html=1;align=center;verticalAlign=middle;resizable=0;points=[];autosize=1;spacing=0;fontSize=8;" vertex="1" parent="1">
          <mxGeometry x="46" y="-260" width="110" height="20" as="geometry" />
        </mxCell>
        <mxCell id="Cd25y1kVc9pPuh6rzwN1-9" value="логи" style="text;html=1;align=center;verticalAlign=middle;resizable=0;points=[];autosize=1;strokeColor=none;fillColor=none;fontSize=8;" vertex="1" parent="1">
          <mxGeometry x="81" y="-465" width="40" height="20" as="geometry" />
        </mxCell>
        <mxCell id="Cd25y1kVc9pPuh6rzwN1-10" value="логи" style="text;html=1;align=center;verticalAlign=middle;resizable=0;points=[];autosize=1;strokeColor=none;fillColor=none;fontSize=8;" vertex="1" parent="1">
          <mxGeometry x="203" y="-360" width="40" height="20" as="geometry" />
        </mxCell>
        <mxCell id="StmvnQxwodWVfL008fLS-3" style="edgeStyle=orthogonalEdgeStyle;rounded=1;orthogonalLoop=1;jettySize=auto;html=1;flowAnimation=1;curved=0;fillColor=#1ba1e2;strokeColor=#006EAF;dashed=1;dashPattern=12 12;" edge="1" parent="1" source="StmvnQxwodWVfL008fLS-1" target="Cd25y1kVc9pPuh6rzwN1-1">
          <mxGeometry relative="1" as="geometry">
            <Array as="points">
              <mxPoint x="270" y="-440" />
              <mxPoint x="270" y="-440" />
            </Array>
          </mxGeometry>
        </mxCell>
        <mxCell id="StmvnQxwodWVfL008fLS-5" style="edgeStyle=orthogonalEdgeStyle;rounded=0;orthogonalLoop=1;jettySize=auto;html=1;exitX=1;exitY=0.5;exitDx=0;exitDy=0;entryX=0;entryY=0.5;entryDx=0;entryDy=0;flowAnimation=1;fillColor=#1ba1e2;strokeColor=#006EAF;dashed=1;dashPattern=12 12;" edge="1" parent="1" source="StmvnQxwodWVfL008fLS-1" target="StmvnQxwodWVfL008fLS-4">
          <mxGeometry relative="1" as="geometry" />
        </mxCell>
        <mxCell id="StmvnQxwodWVfL008fLS-1" value="GraphGen" style="shape=image;verticalLabelPosition=top;verticalAlign=bottom;imageAspect=0;aspect=fixed;image=data:image/svg+xml,PHN2ZyB4bWxucz0iaHR0cDovL3d3dy53My5vcmcvMjAwMC9zdmciIHZpZXdCb3g9IjAgMCAxMjggMTI4Ij48bGluZWFyR3JhZGllbnQgZ3JhZGllbnRUcmFuc2Zvcm09Im1hdHJpeCguNTYzIDAgMCAtLjU2OCAtMjkuMjE1IDcwNy44MTcpIiB5Mj0iMTE1MS4wODkiIHgyPSIxNzAuNjU5IiB5MT0iMTIzNy40NzYiIHgxPSI3MC4yNTIiIGdyYWRpZW50VW5pdHM9InVzZXJTcGFjZU9uVXNlIiBpZD0icHl0aG9uLW9yaWdpbmFsLWEiPjxzdG9wIHN0b3AtY29sb3I9IiM1QTlGRDQiIG9mZnNldD0iMCIvPjxzdG9wIHN0b3AtY29sb3I9IiMzMDY5OTgiIG9mZnNldD0iMSIvPjwvbGluZWFyR3JhZGllbnQ+PGxpbmVhckdyYWRpZW50IGdyYWRpZW50VHJhbnNmb3JtPSJtYXRyaXgoLjU2MyAwIDAgLS41NjggLTI5LjIxNSA3MDcuODE3KSIgeTI9IjExNDkuNTM3IiB4Mj0iMTczLjYyIiB5MT0iMTA5OC44MTEiIHgxPSIyMDkuNDc0IiBncmFkaWVudFVuaXRzPSJ1c2VyU3BhY2VPblVzZSIgaWQ9InB5dGhvbi1vcmlnaW5hbC1iIj48c3RvcCBzdG9wLWNvbG9yPSIjRkZENDNCIiBvZmZzZXQ9IjAiLz48c3RvcCBzdG9wLWNvbG9yPSIjRkZFODczIiBvZmZzZXQ9IjEiLz48L2xpbmVhckdyYWRpZW50PjxwYXRoIHRyYW5zZm9ybT0idHJhbnNsYXRlKDAgMTAuMjYpIiBkPSJNNjMuMzkxIDEuOTg4Yy00LjIyMi4wMi04LjI1Mi4zNzktMTEuOCAxLjAwNy0xMC40NSAxLjg0Ni0xMi4zNDYgNS43MS0xMi4zNDYgMTIuODM3djkuNDExaDI0LjY5M3YzLjEzN0gyOS45NzdjLTcuMTc2IDAtMTMuNDYgNC4zMTMtMTUuNDI2IDEyLjUyMS0yLjI2OCA5LjQwNS0yLjM2OCAxNS4yNzUgMCAyNS4wOTYgMS43NTUgNy4zMTEgNS45NDcgMTIuNTE5IDEzLjEyNCAxMi41MTloOC40OTFWNjcuMjM0YzAtOC4xNTEgNy4wNTEtMTUuMzQgMTUuNDI2LTE1LjM0aDI0LjY2NWM2Ljg2NiAwIDEyLjM0Ni01LjY1NCAxMi4zNDYtMTIuNTQ4VjE1LjgzM2MwLTYuNjkzLTUuNjQ2LTExLjcyLTEyLjM0Ni0xMi44MzctNC4yNDQtLjcwNi04LjY0NS0xLjAyNy0xMi44NjYtMS4wMDh6TTUwLjAzNyA5LjU1N2MyLjU1IDAgNC42MzQgMi4xMTcgNC42MzQgNC43MjEgMCAyLjU5My0yLjA4MyA0LjY5LTQuNjM0IDQuNjktMi41NiAwLTQuNjMzLTIuMDk3LTQuNjMzLTQuNjktLjAwMS0yLjYwNCAyLjA3My00LjcyMSA0LjYzMy00LjcyMXoiIGZpbGw9InVybCgjcHl0aG9uLW9yaWdpbmFsLWEpIi8+PHBhdGggdHJhbnNmb3JtPSJ0cmFuc2xhdGUoMCAxMC4yNikiIGQ9Ik05MS42ODIgMjguMzh2MTAuOTY2YzAgOC41LTcuMjA4IDE1LjY1NS0xNS40MjYgMTUuNjU1SDUxLjU5MWMtNi43NTYgMC0xMi4zNDYgNS43ODMtMTIuMzQ2IDEyLjU0OXYyMy41MTVjMCA2LjY5MSA1LjgxOCAxMC42MjggMTIuMzQ2IDEyLjU0NyA3LjgxNiAyLjI5NyAxNS4zMTIgMi43MTMgMjQuNjY1IDAgNi4yMTYtMS44MDEgMTIuMzQ2LTUuNDIzIDEyLjM0Ni0xMi41NDd2LTkuNDEySDYzLjkzOHYtMy4xMzhoMzcuMDEyYzcuMTc2IDAgOS44NTItNS4wMDUgMTIuMzQ4LTEyLjUxOSAyLjU3OC03LjczNSAyLjQ2Ny0xNS4xNzQgMC0yNS4wOTYtMS43NzQtNy4xNDUtNS4xNjEtMTIuNTIxLTEyLjM0OC0xMi41MjFoLTkuMjY4ek03Ny44MDkgODcuOTI3YzIuNTYxIDAgNC42MzQgMi4wOTcgNC42MzQgNC42OTIgMCAyLjYwMi0yLjA3NCA0LjcxOS00LjYzNCA0LjcxOS0yLjU1IDAtNC42MzMtMi4xMTctNC42MzMtNC43MTkgMC0yLjU5NSAyLjA4My00LjY5MiA0LjYzMy00LjY5MnoiIGZpbGw9InVybCgjcHl0aG9uLW9yaWdpbmFsLWIpIi8+PHJhZGlhbEdyYWRpZW50IGdyYWRpZW50VW5pdHM9InVzZXJTcGFjZU9uVXNlIiBncmFkaWVudFRyYW5zZm9ybT0ibWF0cml4KDAgLS4yNCAtMS4wNTUgMCA1MzIuOTc5IDU1Ny41NzYpIiByPSIyNi43NDMiIGN5PSI0NDQuNDUiIGN4PSIxODI1LjY3OCIgaWQ9InB5dGhvbi1vcmlnaW5hbC1jIj48c3RvcCBzdG9wLW9wYWNpdHk9Ii40OTgiIHN0b3AtY29sb3I9IiNCOEI4QjgiIG9mZnNldD0iMCIvPjxzdG9wIHN0b3Atb3BhY2l0eT0iMCIgc3RvcC1jb2xvcj0iIzdGN0Y3RiIgb2Zmc2V0PSIxIi8+PC9yYWRpYWxHcmFkaWVudD48cGF0aCBkPSJNOTcuMzA5IDExOS41OTdjMCAzLjU0My0xNC44MTYgNi40MTYtMzMuMDkxIDYuNDE2LTE4LjI3NiAwLTMzLjA5Mi0yLjg3My0zMy4wOTItNi40MTYgMC0zLjU0NCAxNC44MTUtNi40MTcgMzMuMDkyLTYuNDE3IDE4LjI3NSAwIDMzLjA5MSAyLjg3MiAzMy4wOTEgNi40MTd6IiBmaWxsPSJ1cmwoI3B5dGhvbi1vcmlnaW5hbC1jKSIgb3BhY2l0eT0iLjQ0NCIvPjwvc3ZnPg==;labelPosition=center;align=center;" vertex="1" parent="1">
          <mxGeometry x="318.01" y="-470" width="50" height="50" as="geometry" />
        </mxCell>
        <mxCell id="StmvnQxwodWVfL008fLS-7" value="оповещение" style="text;html=1;align=center;verticalAlign=middle;resizable=0;points=[];autosize=1;strokeColor=none;fillColor=none;fontSize=8;" vertex="1" parent="1">
          <mxGeometry x="366" y="-465" width="70" height="20" as="geometry" />
        </mxCell>
        <mxCell id="StmvnQxwodWVfL008fLS-11" value="" style="group" vertex="1" connectable="0" parent="1">
          <mxGeometry x="445.27" y="-465" width="40.18" height="40" as="geometry" />
        </mxCell>
        <mxCell id="StmvnQxwodWVfL008fLS-4" value="Telegram" style="shape=image;verticalLabelPosition=bottom;labelBackgroundColor=default;verticalAlign=top;aspect=fixed;imageAspect=0;image=https://www.vectorlogo.zone/logos/telegram/telegram-icon.svg;" vertex="1" parent="StmvnQxwodWVfL008fLS-11">
          <mxGeometry y="0.6066574748867299" width="39.3921568627451" height="39.3921568627451" as="geometry" />
        </mxCell>
        <mxCell id="StmvnQxwodWVfL008fLS-9" value="" style="shape=image;verticalLabelPosition=bottom;labelBackgroundColor=default;verticalAlign=top;aspect=fixed;imageAspect=0;image=data:image/png,iVBORw0KGgoAAAANSUhEUgAAANwAAADbCAYAAAAGX/85AAAAAXNSR0IArs4c6QAAAARnQU1BAACxjwv8YQUAAAAJcEhZcwAADsMAAA7DAcdvqGQAACOmSURBVHhe7V0JfBTl2X8COcgdwhFCAiEJICoqqAh4gnjiV0DxRqxnq/az/dpfW7W1/fppW+3n1arV2hb9aqvihSgqnqiICgE5RLQajhwkgZyQ+873Pu+87+zMZnZ3djO7OzP7/GH2P/95kt3Zmfznea95J26AAQi2AJ6JXvbS1TcAPf1svX8AWthKD9t2uJsx29bDYk1svZ9ti4+Lg6ykYZA4LA4yE4dBAuOEYQBp7AXXRwyPg+FM488R7AEyXITRw0zU0NkPtZ19UNXWC1vru6CerW+s7RQ/ET7My02GKZkJMD07CdIT4iAvNR5S44cB8yUhQiDDhRE17b3wZWM31DFDravugF1N3SyLDUAcyzh24mGMF05MgfEp8XDC6CQozkjgWZJgPchwFqK2ow92NHbBmvJ22FwX/owVTsSzrHdxUTqcOT4ZpmUl8CIqYeggww0BraxSta+lF14pa4U3K9rEVvfi1ulZ3IDjWCYk+4UGMlyQaOrqh20NXbDi382wt6WHFcnYQWR/fbHGy6ekw3xmvqmZiVQHDAJkOBNAk21hRcTHvjrM62UEPa6YnA6LC1JhQloCmS8AyHB+8HldFzyy6xB8c4hlMqbxb8nDA4zjDLbHdvwqlvkuL06D7BHDuSboQYbzQnlrD7y4txVe3NPKi07yL0kWpUib09jGefuMbJiXlwwZ1OKpggwn8NnBTri9pJ53OvO/GP6X4wsUDya+eFIa3DgtA0azrBfriHnDvbKvFf6wo0m5QjONBwOv1KSt12eybPej6VmQkxzPt8UiYtZwz7Mi40M7m4QiRBJzc5LhpiMzYEpmIsRa915MGa67fwBWs4z2wBeHmOLXXr5dAelI6znMeD84OpMbTxtxM2LGcKvLWuHebazoyNZDLRKRDo8+IisRfnNCNhRlJDDlbrjecF83dcM1Hx5ka/xU820KpPZmCYpHOn7BxDT42YyRkOzizjzXGg5H4N+/owk+qO4wPO3E9uUfH5sFSwvTXDl+05WG+1dpMzy88xAvusgzyYswpB2jc1Pi4d7Zo2EaK266Ca4y3DeHuuHqD7D4SHAL8Lah22Zk85tp3QBXGA7vin6EZbRXy1rlBZLYZfzgyWPg5HHJfN3JcLzhcFDxDzbUCaWBPFO+QHHHxc+bkAK/mJkNSQ7Odo423AM7muD5PS1CEWIFT585zrF1O0eOKsUWyIveroYX9rRyjaPWiWOHv7vuILxe3sYnWXIaHJfhNhzogJ98alCEJMQcTs5Jhntmj4ZknA/CIXCU4bBf7QVWhMQrnXI/lizqk45l7aQipiMMh3My3vLxQSg91KNsYEcadxsPvNT8yEtQPObiPz1uJFxSnC632Ba2NxzOhPUfa6uEIhB8A4uY988dDfE2HqFia8N91dTNKsgH+FVLKUJgUUJe8EiTHqwnZybAU/PH2bbrwLaGwxtD79nWiEdSHlGFJby3U5ziIo4T2j57Vi6k2LAxxZaGw1EjT397WCiEPKISpEkH1q8vzIecZHtN62A7w/3v9kZ4aQ8N0SK2hv+5YBy/384usJXh7v68AV4rw85sech8geIUNx9/9NQcmJ0zQqjowhaGw0c03b2lEdZWtPHDJA8XMbFV/MdTlMHP0UbUDaeYrQHeLNfPzS8PlC9QnOLBxv906tiomy7qhvvvzcxs/EEY8hAJxt3S3pFIcT1TPKT4I8x0c6JYvIyq4X7H6mzY/G9wuIiJw8aPn54Ds8ZGx3RRu1vg/u2NsLqsjR8EvBIRE0eKb/m4FnYfFsMEI4yoZLiVpc18IDKBEE2sXzIBUuIjm3MinuE+qu7gN44i+FWHmDhKfMbqSujkz5KIHCKa4XCSn2Xv1ShCFqolSJOOgi5Ij4eVZ4+P2JR8EctweJf2VcJs/KuxF/kVSSsvpBVEUpe39MKtrE4XqZvHI5Lh8BFQp6wqZ2v4FZVLizK6W8KzneIUj0b8rpNGw8KCVKHDh4gY7o6N9fBuZZvyfSX039/DEhSneITjD58W/o7xsBvumW+b4aEd+BAN5YqifD/PFYY0aTvp9RdODGvLZVgNhw/SWI71Ns83Iya2NeO9dC+fF75GlLAZrrOX1dtewXobgeAs/OL4UbC0OF0oaxG23PnLTXXsgqFcJYiJncT3bG2Ej2s6+LrVCEuGw5Ek9+H0CLj/PlI3MbHdecNFBZbPeWl5hjvY0Qf3b2/iO82vGMTEDuXrPqgBqweiWJrhcOrp2S8p9TZ5ofAFilPcCfF7546BsydY1z9naYZbWSoerMH2lH8Z+Y0MmOIKc1B8ENslfvtnddDe2883WwHLDIcTtj60o5FfGfCFmNgtfP26A5YN/bLMcDd/dICzvDJwVlZJk3a0/vZwN6yvblc2DBGW1OHWVbXDTzccZO8md5MB35a0EAykHa8/vXjSkB99POQMh/cT/eyTWr5zclc4kybNlXv0G3wKx6FhyIZ7YJust+FoNGT+X6O9meIU12rnxHEOnj2seDkUDMlw2FDy8l58XhuDvCKwF732ZopTXKudFcdWy6E0oAypDrfs3Wr4urFLKD3wTfmO+gDFKe7U+COnj4NTckO7jSdkw22u7YTvf3jAs2fExDHEJRcXhPQcupANd+ILZSy1KuVbP/tFTOxKvv+UHDgzP4WtBYeQDPfpgQ74T97vhh/tC3LXfIHiFHd2fNMlk4K+by4kw818fp9nf4iJY5TvO2UsnBXkOMugWyk/Y9mNt9co/wVL7c0U12tvju14Xmo8nJgzgnGCYZz999LeHN34zz+thZ4gmyyDznCL3qiEytZeU1cAYmJvXjQpDb5TmA4nes3tv6W2E/67pA6q8W/LxPvYhR88NQfm55mvywVlODwoN35Qwz7HuklbSLtfL2YGO37MCFhUmMaUbzyx6xD85cumQb9vd72Z1eXMtlgGZbgr36mCrxtlT7vy0R6QJu3RaK4TxibzTDaeFR3NYubKfWLN2v0Jp/7zvHGmp9czbbiylh648I39isDP0f4WadJC3zR9JCsypgVlMi244SzcH44w60kZCbBqYT7fHAimG00e3NbAmX8Oe8GUSpo0vmK97G9njoNtlxfC96dnhWw2hNH7212XNffAvmZzYyxNZbjuvgGY/WKZUASCp8gYqF4WDKrbeuGCNZVCOQs4rd6ds0YL5RumDPdxdTvcih3dMpXGsRX8NdIxpRcVpcOJ2PjBOBxAwy18rcL0/thNl1xWCIkBGk9MGW7uS2XQ0au0ykjwz1FWOUi7V//P7DFBN36EAt4Kvk55wpKV+4+IhH7sjHFwcoBBzQEN19TVB/NxBmXtT+EnkfbAhXrRpHSWydKY0cL7cAstXtvbAr/eVGfJ/kdDT85KhJfOz1e2+UBAw71Q2gz3fN7A319+DrE7eXEY6mXB4IkvD8HjvB/O3P7akT+8qAAyE323Rfo1HAZmPrdXEQRXYpEY9RGuelkwuOH9GlasDM8U45HCb1jxe4mfY+nXcN8e6oZL12LfmxlvEzuJ75o9Gk7MSQ57vSwYzHhuH3s1t/925u1XFDE2ht9+uPcq2/jb4JsQO5+xqPi3BbnsD6KQZzQ7mQ1bKM1+D7vzwXb8LsbwmeFwo6c46cvREhS3a1wpMrJ6WVF06mVmoXQJYB9ccN9Pgb3iP5k5Cq6elomBQfBpOJyd6KI3WXHS6HOIbc1YVMRsNstmRUZ/+MvOJt5gYub7OYF3+ChW+ixSflTVzn8f+/SQ8YW0vTWOyl+7eCKsYMXGxTYrMgaEwfdxsm7o7MOtg+Azwx33LLVOOgFoLBwsjNksEqhr7oSM5ARIShgutliD67GF8qCzWyi1uO/UHDhn4uC7wQ0zXEuP8rQQdCt3rhHjqtF2ybhqtF0yrhptl4yrRtsl46rRdsm4arRdMq4abZeMq0bbJeOq0XbJuGq0XTKuGm2XjKtG29mCJrtrzhjYcWUR50iYrbmjB77efwj2HhRPSLIQWH/D7gCz398J8Vf3Gh8nwwxXwq40N75fLRQC30n7Y6QjrXEqAmwAiXS9rKunj5sMDYcoykmHMRn6u7WHCjTc+a9qnwdv/fGLht7K6nHDpTsFDDPci6XN7BV/UC4I0tHQi4syRL1sfMTrZVWN7bC9rFE1GxrNarMhcEiXr+/vZF3ZMrh7YJDhcE6Udyqw/w0di6+Kc0lHTqOx/r4gVy0yRrrxAw2GRtvf0Ca2AK+3YXYLBzDDab8/wg16k0GddFCRsrGzD+av0qZ3QiQgm/LRbNGCd/FRAs12ZH6WUNbDrQ10ScPj+C07Wgwy3EdVbcq9b9qtmCVJe2ChRoPdfGx21JvwsfiozWgS4TYbZrfzsP5m0fHksJH+nNXjtJPFDipS/vPfh9nPsx/A/6zCh3U+0tbqJaxetuKs8fDFsmK4e+7YqJpNtj5Gw2yIqtaeQcfHTbq8RV9a0GW4PrY289k9QhGsBGYyLDZGs8joDSw+Yr+aEbCfbcakbKHCh8dxhMkXjUK5D7edOBqWHeEZ5qXLcM3dfaozEYZM8aDiWFx8a0kBz2R2MRuabFNpXdTNhsDObn/HbxA7LP7GPv1TU3UZbmttJ1zzbpVQhFCBxsLR+JEa/WEWWHysYkVH70YRLSJpNsSxz7i/RLX9ymKQ1ThdhsPpFAihAU2GWUzWy+xmNmwUwbqaP7NhnS2SZsMGk1hAr+b5AzrDra+S978Bn5SIs0KDmeIcdiwyaoEG8+5TM0IkGki8gcOfAh1fN8QPaO6P0xnutb2tWATlEMVQj/bmGI6jsZ48W2llvPmYkVFv0jcC9qlhRsMF1/0hGmaTMDq+nMWKG+LaTK7W4TDrHcfL0yjxx4i1PAvHMhZlwJJi+2Uxb2BjiNlBxtE027mry6G6FYu45s+DE/nOk8bAZVOVlko1w/Ux36ErsWVFcafoU5BacKzFlxRnwNsXFrCMlmd7s8k+NSeYraq1F2rYlX+o58cJcZwbSELNcJj2zsX5J0041u28mJkMi412a/jwB399akaIptkQmw92wHXv4h0p5s+Lk3nnVcWMNRmurgOvNrimd2is8Pi0BPjtyWPhrSWT4Lc2bGX0BdkoEozZcMR/NM2G2HKw0+/5cBvLRhQ1w60ta4Wfb8AH5ccWnJjNEL4GGgcCmi1co/6DwXXvVvEsFyvYfHkxjIiP82S4Mv64HW5J1/OsnBTejL/zqsmOymYS3vepmUX+qFRbmA2hmM3c+XIDt4iWYtVwGw/gARgQqc+dvLgYm/PzeJM+NoY4DbJRJFCfmhHQaHnZ5p9FHU7ggGUz58tNjLe9IVTD1bM6HDrRTHnUSXzSuGSWzXLgy+XOzGYSWHwMNFLEF7C+Fo47tUMF7+81ef7cwnUdXoYrb8arjuJINzBOTYCZzAnN+f4QSqOIFmg2bJG0E9hZGnS+3M6t3crEXKrhEOhGuahasKrFomrBqhaLqgWrWiyqFqxqsahasKrFomrBUv/guGzeb4Ytjk7NZohgRor4gh3NhpC34xidP7moWrCqxaJqwaoWi6oFq1osqhasarGoWrCqxaJqwaoWi6oFt/VqDIculCwXVQtWtVhULVjVYlG1YFWLRdWCVS0WVQtWtVhUzXh8qtKkj40gOLYxL81+f2TBALNZKI0iEjji365m89TfPOdPp8WiasGqFouqBataLKoWrGqxqFqwqsWiasGqFouqBataLKoWXCluRFUMx1f1znQK3yIymhMbQbwhG0XMjhQxApoNG0jsaDYEtk6aOa9u4zYx1ys3XC+3pFLeVJm96LQN41g/u4VlNDdgKI0iEjyz5WXa1mwIPkOXyfPrprjSKKkrUgo7Spb29N5uk3heeqKj62gSQ20UkUCT4b1saDo7YzPvfmKw+d+X1fEKbZGypx9dyF0n3adqb7ZLHJ/a6WRY0SgigWaL9lAtM8D62+YD7Xw90Pl1W7wbJwxi4IbDW3NwVDOHYKm92S5xJ98tPNRGES2cYjYEP2cmz6/b4vuaNRmuq6+fO9FJSwm7Uj62w1mzPVnRKKKFHQYhBwMsThqdy1hZENxwcqJKdCP/p3GnnfVjXzTCnZ/UOmIQrJk5RYKBncZFmgVvofRzPt2uEfxugebufpi70tmzJ80alwwn5aTwuR9xOJddgAbDjDbUepoWaDQ7DdUyi6OfLhVrsYldV09RDNfa0w+zn9vD3YiJDw2JKdCpGg2HLZi4jE+Lj1pHuJUZTcKuHdqBgA0m564qt+T8OlEXZiTAmsUFiuG6+gbg+H/tZhEW5T/hLl4yOYPf95YXIfNho4hV9TQtnGo2BNa3/7yjwdT5ciMfMTIJVn1nolKHw+3Kizt59Z5muPad/XDOqjK4hnEJq7zjFddqyKZ+q81m56FaZlFyUOkOMHO+3Mj4JB0EN1z8MJb60IkIwVJ7s9Pjm2s6uPnOftla84V6U2gg2H2ollmUsOPOEeD8uDV+9KgkzmqGw3Imh2CpvdlNcWymHmrmk039odwUGghoNhw94nSz4TEN5fwYsVPjaWIEkDqnyVH/+BYlrgrgZtTeLOHeODa64KBorO/5q/Nh0XGoQ7J8AU3mpD42f/gz1t+217M1c8dfgbvid508Fi6ekqlkOAVx3I34I4orpVY4luLYX3TN21VK5nt7P68DajOfHClCZjMHfng1xzfQ8XdjPDVBsZqa4c5/pYzf9e3bucSXT8mAReMTLe1T84ZdZtWyEkf9A/vfzB9nN/Iz5+fDzLHJngx3ZHYSD2OQ2JifL22BmjZrG0W0cOLokUDg9Te+Zv44u5FTRIZTDZc9YjjzInMjS3jEvrmkzjNttZXAIqRdZtWyEtgQZXQcY41T4r0MdzxLd+hGpQBK7ItLGqzPcE7vY/MH5a6Owccx1nh0stJKqRouM5FtYG7kC3pSrCtVPI/mSwzH97X0QkWbdXU4N5sN8UrpYfZq/vjyxYXxZO8MV5jJTjq6UThSIWS9FiuqjsV4Sf3Qs5wbRo8EAtbfZIbTHj+ttuP5DUdcwpPhklgdTjhSWdCgpI30pvoucdRCg1s6tAMBDWd0/GJNz8tPFUdEYzjsJ5BeVFwp1kkP0vVdA7DrUGhZDk0WyedoRxM4ksfo+MWaPi3P0ximGg4xIT2BlTYVZyL4OmlDHWqxMifL2XOxBAOlhdL4+MWSnpSZyDVCZ7hZ4xQnKv70DYoDK1Z284MZLEr2HIC2rvD15dkFWJzEaTCMYIfz5w9Wx3GiYgmd4Y4bo1x9A/0hURygsw/rcsH3yTW3d8EbW/dCWR223rkX2qFw3rDD+fMHq+PYxy2hM9yxwnAEcwi2E7y3X5l9F1Gy+wB8uKvStdlOnX+SAOmJHpvpDIcBXv7E/8QBeWtDDzSLKaxDQW1zu2uz3aYaVpz0cdxiiaeL++AkdIbDsiZvYcH/xKY4mMaT3j7jDnM3Zjs+k5rB8Yo1PiXP0yWA0BkOwWe8Eg7lJvXhXIor8U115vvkevt8Z0M3ZTtP/5vxcdMeP7fHz9D0wSEGGe7CyZmKQ/GfYKm9meIApc19UN1ubqiXtg7nC5jtcHFytlu9u1k9Ptrj5c2xEJ860k+REoHzOnJ34j9iUxxKa6U/YJbDIqZTsx3W37THJ1Z5UkaCeuOpxCDD5aezehxalENh0v51SZ25bNRnIsNJYIZzarbztFCaO35u1VcfNZKzFoMMh+D9caz8KV64W0n71tUdvfDN4cAPF/FXh/MFme2wjucE8Pqb1/GJVX3M6MHdbIaGu+6YbGFWjXNJK8wxWFtdrNQCMxyabtf+Bttnu1dY/c3o+MSinpatr78hDA03NzeFlUPZCpZFiU3xRhOtlZ09QzPLrsp623cfKP1v5o+bW/m0vFQ+36s3DA2HHeBYl+NGxd9RDEvaj27rGYAtDeHLchJoNuw++Ly8AWr8DJ+KFvgDFw2OT6zpa6cb3xFiaDjEOQVpzKncrArjRtJ+9SY/Q73MdAmYxT72N33l+/Vw28cH/I5ZjDSU/je2Io6H9/GJJV2QYXyvo0/DLZ0q++MYiE1xCavHtffyQx82oNmeqhCfx7LJghf2imkMog+sv2mPRyyzrwmEfRquKDOJu5WVSomDYF8jT3wN6woGH9QDPFk++HNvZ5lu+dqKqGc7T/+b7+MTC3wjNjr6gE/DYX3vimk4+6/sVVBeSfvXm3yMrQylS0CLJ8sB1tXhmvHn48MyzmTZblUUs10JNpj42L9Y0kunsNKhD/g0HOJyNByzLTMuZw7SfvVXTd1wsGNwNhtKHQ7Ntq/N3Offsb4G7ohC3U79vAD753aNRUntHd7e8Gs47EfISxe/zJtfiM2wVX1yh9nfMDcbTxzmPx+z3PI3K5Um+gjhlVLsf2MwsX9u5l/OGcvZF/waDnEDlkfRxehgYlO8qXZwPS6YYV0INNvL1QOwFzOb1/ub4f0t3XD1mxXwyLb6iGQ79sl+9ydW+IQc/8+XD2i4MyakcvfykqqOGQy3U7yyvR92N+uHegVTh0Oz3V86wDKb/n31zGC4XR9/dGsDb1QJt+nwc4w+36O92X3xKdkjICvJM52CEQIaDsukxaxMyjysOFllBp2muJa9Wyt7+821UpaxUiCaLdD7BxMvqW6D+c/vCVuDCprZ87mDP9+Y3Re/bdYY3OoXAQ2H+N5xowwcTdqf9u4EN5Ph0GwrytiKifcPRWNjyh3rrc92WH8z8/lu17NzAz+MxZThFkxMQxOzRXEyZ9J+dVNXP2wLYqjXvjaAv5d5ft/7/azSL5cegqveqICqFutMp3xGaPvjFj1vQhokigfn+4Mpw+HYyvnMdBKKu/kqB2n5okBqmeUCdQlgK+SKcnYGBXy9n8RQdTXLcPNf2MMbVKzAo1vZ+wTx+W7UN88YpYgAMGU4xO2zRXMnOlswB2mfGutxXf0yYAzMbCtYZjP6fY4w6keYUZZjthtCERMzpa/354gBjf1uM/jj3gLDtOEK2ZvyG+qks4kDMg6rfK2iw+ewrq2HNJnNxPuFgzcdaFeKmCGabtVu0RBj8vPcyHfOyREiMEwbDnHbSWN52ZW7nBdikUn706+Wd8C/W9g2L6yrG4BVVUpdwN/vR0Jjlpq3cjes+jb4Vsz9WBf0er9Y0tiKf5rXzFz+EJThTspN4ZkOXa20zgijk/arH/iyGRp6ldHju9vieFZbVyt/TrIioqlv/7iGFzPNZjv8uVfQpD7eLxb0LwKMLPFGHHMqetY0Pqlqg2vXVjJzD/APJTbP+ECwfoPtduM5ualwz+m5yk3IfoD1v401bYN+P1Y4Pz0RPrisWBwNcwjacAi8B6uy2U+TN14G/L0rxW0fx6LSrTNHw0V4X6QB0Gw+x2raYP8jEX94QR6cV5iubDOJkAyHWe6aN8VdkPjbxK7l2eNSYPb4VBgvbqgsYRmNj1gx+ftu5tIbj2QrwSEkwyHOfXEv7D2sZDm5HxKkSbtdP3pWHpwzKbjshgjZcHiz4bLXyxUh98ibJShOcZfFS28IPrshQjYc4pLXymF7ra/ngMk99AWKU9yZ8RXnTYDTg+gK0GJIhttZ1wkXrt7Hd0vuHjGxm3nyyCRYe3ERWwsNQfXDeeOYMSNgOc6frhs9rWVlJylOcbfEnzx/Aq6FjCEZDnH7nBzIS4vnVwDshtezcmUYvJ3iFEd2VvzSIzIhV/OA/FAwZMMlDY+DX80dp1wBGBQWVwS+prySVkBaeXWi/tVc82MmfWHIhkMsKEjjD57DqwC7GDBm/8RVgTRpN+jHzs6HEfFDt4slhkM8wnaIg10K+FWBlXc5SJPm7Fx95KgRcHYIfW5GsMxwRZmJym0K/IrAoFwaFM1Zoymu15w1muJ6zVmjIxzHbgCrMKRuAW/09g/wESjl/sZZEggOwq3Hj4YfnRB4ciCzsNRwiB21HbB0dRm7MOCoauUigVVO0qSdprEo+frS0PvcjGC54RBv7m2GH75XJZQB5DfzBYpT3AbxjcunwOjkeGWbRbCsDqfFwqIM3imOe43/BjHzuE57M8X12psprtfebEH8r+fmW242RFgyHKKjtx/OZ/U5fgs+geAgXDotC35/eq5Q1iJshkN8WtUGy/GOApnCvVmC4hS3STw/LQE+unIK3xwOhKVIKXFyXio8tCCPfQ/2TfBLCVY19nVotWCKC01xvRYczviLSwpxJWwIa4aTuOy1MtgSwUcnEQih4MmFE+GMCZ4Jj8OBsGY4iacvKOATrsgrCmcEX8dFasY6LRepGeu0XKRmrNNykZqxTstFasY6LRepGeu0XKRmrNNykZqxTstFasY6LRepGeu0XKRmrNNykZqxTstFasY6LRepGeu0XKRmrNNykZqxTstFasY6LRepGeu0XKRmrNNykZqxTsslDm6cMSrsZkNEJMMhdtV3wi3vVEJlSw//jtqiNDFxNHnu+BR45juT2Fr4ETHDITZWt8GyNWJaBgLBBijMSoT3LpssVPgRkSKlxJzxqfDEucq4NOlyYuJocV56Ary4OLyNJN6IaIaTWLP7MPzX+35GohAIEcBny6fC2BTrO7f9ISqGQzy+rR7u23RQKFmaFsBKrW63KE5xa+Mblk1R59qMJKJmOMT1ayvgg4pW78NBmi2kPbBar1laBEfjk6CigKgaDrFsTRl8VoV9dEM5hKRJm9P/d0EBnB6B5n9fiLrh8B66775RwUzX5jkuxMRh4D8uyINFU4yflRApRN1wCDTd1a+X824DP8eLmDhkfmphAZyheWx2tGALw0lc+2YFfFSBTy80cwiJic3xalZnO3aMuUcChxu2Mhzi0c/r4MHNtSYOIzFxYF6/bGrA59xFErYzHGLFFw3wu08PsDUzh5SY2Jg/uWoq5Eah6d8fbGk4xNt7m+GmtyuFIhDMIz8jAVZdWARjItypbQa2NRxiw/5WfgMrv16xveT9mWxdar4iiOIUx/i0USPg2UWTICtpuBK0GWxtOAQ+DuvWdyppqgZCQMybmAZPXVAglD0R0cHLoWDG2GRYc3ExTMdJicQVjZjYm3944hjbmw1h+wynxWNb68T4SzmP4GCWhQ6Kx07842VTYUJGIttufzjKcAgce/nr9TWsiEmzO8c6pmQnwXOsvjYqDNPZhQu2L1J6Yz4rp6+6qBAKM5UrGl7hOIvrBunY0Ncemw3vXDbZUWZDOC7DafHEtnq4d6O8xYcQK/ho2RSY6JAipDccbTgEjr/86boq2E8PEHE95uSlwl/OnQhZI+zZ5G8GjitSegOnbVh7aTGcU5gBcdgRw0DsPn7yggJYubjQ0WZDOD7DafFVfSd8b20FNai4CEuPyII7T8mFkQ43moSrDIfo6R+Ap3c2wt2f1OClEWvbxA7l9VdNdWxdzRdcZziJuvZeuOmtCthyoF3Te+OB1N4sQfHoxX/FMtr1x40Syl1wreEkPt3fBj//kBpVnICLp42EO+bmOK6pPxi43nAIvKN81TeH4OEtdVDJjGeyREMcIc5OHg7PLymCqdlJ4oy5FzFhOInWnn5uvL9uq6eGFRugeGQSPHz2hKjNoBUNxJThJLr6BmDlV43w1+3MeLyoyS61PmsVxFbzlOwR8Mez8mG6TaY9iCRi0nAS3cx4L33TBI99Xk9FzQjw+cUZ8KNZY/nD6mMVMW04LV4rPQR/2lwHu5s6mWJ/ISau1MTm+IqjsuHHJ+VATqp7G0PMggznhT1NXfCPnY1saRBbGOTfjwTpgBq7qX8/L49ntUyb3n0dDZDhfKC9px+2H2znkxl9WdehFo0kpMaDx//eKM41jgo5uzADJom7OQh6kOFMoKW7Dz4ob4U/bDwA+5vlVA/yT00idvUNM0bxYiM+a2241pWEQSDDBQk035rSw7B2TzOsr2zxXOljjOcXpMP3Zo6B2eNTyGRBgAw3BHT09sPX9Z3w1t5meGP3Ya+JjvCwav8Qna/vOzMfTs5Phby0RG46QvAgw1mIps4++KK2nd8Yu6GyVWx1JuKHxcHP5uTAmSyTFWUlQcJwcpgVIMOFEQ0dvbCzrgM+qWyDkpo23gjjXTSzB8fBJdOy4LicFJiVm8LqYkmQRAYLC8hwEUZbTz90sqLovkPdsIMZsI6Z8qu6TviQP8QkvDivOANOy0+DkcnxvPN5VEo8pCUM49mMEBmQ4WyEfnYmcKB1Hzsl2C3R0zcAh7v7OON9fo0dfXx0DGbOfvYzOKoezYLZaOSIeF7swz6vBLYN15Pj43icDGUfkOEIhIgB4P8Bw/ntlKG0PeAAAAAASUVORK5CYII=;" vertex="1" parent="StmvnQxwodWVfL008fLS-11">
          <mxGeometry width="40.18" height="39.998796078431376" as="geometry" />
        </mxCell>
        <mxCell id="digtK9lE0A4xqhM3EMfs-2" value="" style="image;aspect=fixed;html=1;points=[];align=center;fontSize=12;image=img/lib/azure2/management_governance/Resource_Graph_Explorer.svg;" vertex="1" parent="1">
          <mxGeometry x="353.58" y="-410" width="20.93" height="20" as="geometry" />
        </mxCell>
        <mxCell id="FuRbYXdG-T8dkK0esf20-8" style="edgeStyle=orthogonalEdgeStyle;rounded=0;orthogonalLoop=1;jettySize=auto;html=1;exitX=1;exitY=0.5;exitDx=0;exitDy=0;flowAnimation=1;" edge="1" parent="1" source="digtK9lE0A4xqhM3EMfs-3" target="FuRbYXdG-T8dkK0esf20-6">
          <mxGeometry relative="1" as="geometry" />
        </mxCell>
        <mxCell id="digtK9lE0A4xqhM3EMfs-3" value="WebApp " style="shape=image;verticalLabelPosition=middle;verticalAlign=middle;imageAspect=0;aspect=fixed;image=data:image/svg+xml,PHN2ZyB4bWxucz0iaHR0cDovL3d3dy53My5vcmcvMjAwMC9zdmciIHZpZXdCb3g9IjAgMCAxMjggMTI4Ij48cGF0aCBmaWxsPSIjMDQ5Njg4IiBkPSJNNTYuODEzIDEyNy41ODZjLTEuOTAzLS4yMjctMy44OTktLjUyLTQuNDM0LS42NTJhNDguMDc4IDQ4LjA3OCAwIDAwLTIuMzc1LS41IDM2LjA0MiAzNi4wNDIgMCAwMS0yLjcwMy0uNjMzYy00LjE0NS0xLjE4OC00LjQ0Mi0xLjI4NS03LjU2Ny0yLjU2My0yLjg3NS0xLjE3Mi04LjE3Mi0zLjkxLTkuOTg0LTUuMTU2LS40OTYtLjM0NC0uOTYtLjYyMS0xLjAzMS0uNjIxLS4wNyAwLTEuMjMtLjgxNi0yLjU3OC0xLjgxMy04LjU3LTYuMzQzLTE1LjAwNC0xNC4wNDMtMTkuNjUzLTIzLjUyNy0uOC0xLjYyOS0xLjQ1My0zLjA3NC0xLjQ1My0zLjIxIDAtLjEzNC0uMTQ0LS41MDUtLjMyLS44MTctLjM2My0uNjQ5LS44OC0yLjA0Ny0xLjI5Ny0zLjQ5MmEyMC4wNDcgMjAuMDQ3IDAgMDAtLjYyNS0xLjgxM2MtLjE5NS0uNDYtLjM1Mi0xLjAyLS4zNTItMS4yNDYgMC0uMjI3LS4xOTUtLjk2NS0uNDMzLTEuNjQ1LS4yMzgtLjY3NS0uNDMtMS40NzItLjQzLTEuNzcgMC0uMjk2LS4xODctMS4zMi0uNDE4LTIuMjc2Qy41OTggNzMuNDkyIDAgNjcuMzc5IDAgNjMuOTUzYzAtMy40MjIuNTk4LTkuNTM1IDEuMTYtMTEuODk0LjIzLS45NTcuNDE4LTIgLjQxOC0yLjMyIDAtLjMyMS4xNDUtLjk1LjMyLTEuNC4xOC0uNDQ4LjQxLTEuMjUzLjUxNi0xLjc4OC4xMS0uNTM1LjM2LTEuNDU3LjU2My0yLjA1NWwuNTktMS43MjZjLjQzMy0xLjI5My44MzUtMi4zODcgMS4wMjctMi44MTMuMTEtLjIzOC41MzktMS4yMS45NTctMi4xNi42NzYtMS41MzUgMi4xMjUtNC40MyAyLjk3Mi01Ljk0NS4zMDktLjU1NS40MjYtLjczOSAyLjA5OC0zLjM1MiAyLjY0OS00LjE0OCA3LjE3Ni05LjMwOSAxMS4zOS0xMi45ODggMS40ODUtMS4yOTcgNi40NDYtNS4wNjMgNi42NjktNS4wNjMuMDYyIDAgLjUzLS4yODEgMS4wNDMtLjYyNSAxLjM0Ny0uOTAyIDIuNjY4LTEuNjY4IDQuMzktMi41MzFhNTMuMDYgNTMuMDYgMCAwMDEuODM2LS45NTNjLjI4NS0uMTY0LjgyLS40MSAzLjU2Ny0xLjY0LjYwNS0uMjcgMS4yNTctLjUxNiAzLjEzNi0xLjE3My40MTQtLjE0NCAxLjI0Ni0uNDQ5IDEuODQtLjY3Mi41OTgtLjIyMiAxLjMwMS0uNDA2IDEuNTYzLS40MDYuMjU4IDAgLjkzNy0uMTggMS41MDgtLjQwMi41Ny0uMjIzIDEuNjA1LS40NzcgMi4zMDQtLjU2My42OTYtLjA4MiAxLjYyMS0uMjc3IDIuMDU1LS40My40My0uMTQ4IDEuNjEtLjM0IDIuNjIxLS40MjVhNzIuNTcyIDcyLjU3MiAwIDAwMy45NDEtLjQ2NWMyLjY4OC0uMzk0IDguNTMyLS4zOTQgMTEuMTkyIDBhNzUuMDIgNzUuMDIgMCAwMDMuNzgxLjQ0NWMuOTUzLjA3OSAyLjE2OC4yNzggMi43MDMuNDQyLjUzNS4xNiAxLjQ2MS4zNiAyLjA1NS40MzMuNTk0LjA3OSAxLjU5NC4zMjUgMi4yMjIuNTUxLjYzLjIzIDEuMzQ0LjQxNCAxLjU5LjQxNHMuNzU0LjEzNyAxLjEyNS4zMDljLjM3NS4xNjggMS4xNjguNDQ5IDEuNzY2LjYyNS41OTQuMTggMS42MTMuNTM1IDIuMjcuNzk3LjY1Mi4yNjEgMS41MjcuNjA1IDEuOTQ1Ljc2MS43Ny4yOSA2LjQ2IDMuMTM3IDcuMjM0IDMuNjIyIDYuMjgxIDMuOTE3IDkuNTEyIDYuNDc2IDEzLjg1NiAxMC45NjQgNS4yMzggNS40MTQgOC43MTUgMTAuNTcgMTIuMjU0IDE4LjE2LjI1LjUzNi42MzIgMS4zMjkuODUxIDEuNzU4LjIxNS40MzQuMzk1Ljk0Mi4zOTUgMS4xMyAwIC4xOS4xOC43Ni40MDIgMS4yNjkuNjAyIDEuMzgzIDEuMTE3IDIuOTU3IDEuMzYgNC4xNi4xMi41OS4zNDMgMS4zMi40OTUgMS42MjEuMTUzLjMuMzMyIDEuMDYzLjQwMyAxLjY4OC4wNy42MjQuMjc3IDEuNjQ4LjQ1MyAyLjI2OSAxLjAyIDMuNTMxIDEuNTI3IDEzLjkzNC45MSAxOC41MzUtLjE4MyAxLjM2Ny0uMzkgMy4wMi0uNDYgMy42NzItLjExOCAxLjExNy0uNzA4IDQuMDA0LTEuMjEyIDUuOTQ1bC0uNTIgMi4wNTVjLS45OCAzLjk1Ny0zLjQwMiA5LjU5NC02LjM1OSAxNC44MDktMS4xNzIgMi4wNy01LjEwMSA3LjY2OC01Ljg0MyA4LjMyNC0uMDY3LjA1OC0uMzk5LjQ1LS43MzUuODYzLS4zMzYuNDE4LTEuNDE0IDEuNTg2LTIuMzkgMi41OTQtNC4zMDEgNC40NDEtNy43NyA3LjE4Ny0xMy44NiAxMC45NjktLjcyMi40NDktNi44NDcgMy40NDEtNy45OTIgMy45MDYtLjU5NC4yMzgtMS41ODYuNjQtMi4yMDMuODktLjYxMy4yNDctMS4yOTcuNDU0LTEuNTEyLjQ1OC0uMjE1LjAwMy0uNzgxLjE5NS0xLjI1OC40MjUtLjQ3Ni4yMy0xLjA4Mi40MjItMS4zNTEuNDI2LS4yNjYuMDA0LTEuMDQzLjE5Mi0xLjcyNy40MTgtLjY4My4yMy0xLjYzMy40NzctMi4xMS41NS0uNDc2LjA3NS0xLjQ5NS4yNzgtMi4yNjkuNDUtLjc3My4xNzItMy4xMS41MDgtNS4xODcuNzQ2YTU5LjA2IDU5LjA2IDAgMDEtMTMuOTQ1LS4wMzF6bTQuNzAzLTEyLjVjLjMtLjIzNC42MDktLjcuNjkxLTEuMDI3LjE4LS43MjMgMjkuMjM0LTU4Ljk3IDI5Ljc4MS01OS43LjQ2MS0uNjE3LjUwNC0xLjYwNS4wODItMS45NTMtLjIyMi0uMTg3LTMuMDA0LS4yNDYtMTAuNDMtLjIzNC01LjU3LjAxMi0xMC4yNTMuMDE2LTEwLjQwNi4wMTItLjIyNi0uMDA4LS4yNzMtMy43My0uMjUtMTkuNjcyLjAxNi0xMC44MTctLjAzNS0xOS43NjYtLjExMy0xOS44OS0uMDc4LS4xMjYtLjM4My0uMjI3LS42OC0uMjI3LS40MTggMC0uNjEzLjE4LS44Ny44MDgtLjQ4NSAxLjE2OC0xLjgyNSAzLjgyLTguMzQ4IDE2LjQ4NWEzNTU0LjU2OSAzNTU0LjU2OSAwIDAwLTQuMDU1IDcuODljLTEuMTU2IDIuMjYyLTIuOTggNS44MTMtNC4wNDcgNy44OWE4NzUxLjI0OCA4NzUxLjI0OCAwIDAwLTguNTk4IDE2Ljc1OWMtNC45MzMgOS42MzYtNS41MyAxMC43ODUtNS43NDIgMTEuMDM5LS40MS40OTYtLjYzMyAxLjY0LS40MDIgMi4wNy4yMS4zOTQuNjI5LjQxIDExLjA0My4zOTQgNS45NTMtLjAwNyAxMC44NjMuMDI0IDEwLjkxNC4wNy4xMzcuMTQxLjA4NiAzNy4zMS0uMDU1IDM4LjE5Ni0uMDkzLjU4Mi0uMDMxLjg5LjIzNSAxLjE1Ni40Ni40NjEuNTg2LjQ1NyAxLjI1LS4wNjZ6bTAgMCIvPjwvc3ZnPg==;labelPosition=left;align=right;" vertex="1" parent="1">
          <mxGeometry x="323.01" y="-300" width="40" height="40" as="geometry" />
        </mxCell>
        <mxCell id="digtK9lE0A4xqhM3EMfs-5" value="" style="image;aspect=fixed;html=1;points=[];align=center;fontSize=12;image=img/lib/azure2/management_governance/Resource_Graph_Explorer.svg;" vertex="1" parent="1">
          <mxGeometry x="396" y="-310" width="20.93" height="20" as="geometry" />
        </mxCell>
        <mxCell id="FuRbYXdG-T8dkK0esf20-2" value="Files&amp;nbsp;" style="image;aspect=fixed;html=1;points=[];align=right;fontSize=12;image=img/lib/azure2/general/Files.svg;labelPosition=left;verticalLabelPosition=middle;verticalAlign=middle;" vertex="1" parent="1">
          <mxGeometry x="315.57" y="-374.75" width="27.43" height="30" as="geometry" />
        </mxCell>
        <mxCell id="FuRbYXdG-T8dkK0esf20-4" value="" style="endArrow=classic;rounded=0;html=1;flowAnimation=1;fillColor=#6a00ff;strokeColor=#9d60ea;" edge="1" parent="1">
          <mxGeometry width="50" height="50" relative="1" as="geometry">
            <mxPoint x="339.74" y="-420" as="sourcePoint" />
            <mxPoint x="340" y="-379.55307262569835" as="targetPoint" />
          </mxGeometry>
        </mxCell>
        <mxCell id="FuRbYXdG-T8dkK0esf20-5" value="" style="endArrow=classic;rounded=0;html=1;flowAnimation=1;fillColor=#6a00ff;strokeColor=#9d60ea;" edge="1" parent="1">
          <mxGeometry width="50" height="50" relative="1" as="geometry">
            <mxPoint x="342.74" y="-340.45" as="sourcePoint" />
            <mxPoint x="343" y="-300.00307262569834" as="targetPoint" />
          </mxGeometry>
        </mxCell>
        <mxCell id="FuRbYXdG-T8dkK0esf20-6" value="User" style="html=1;verticalLabelPosition=top;align=center;labelBackgroundColor=#ffffff;verticalAlign=bottom;strokeWidth=2;strokeColor=#0080F0;shadow=0;dashed=0;shape=mxgraph.ios7.icons.user;labelPosition=center;" vertex="1" parent="1">
          <mxGeometry x="445" y="-300" width="40" height="40" as="geometry" />
        </mxCell>
        <mxCell id="FuRbYXdG-T8dkK0esf20-9" value="" style="shadow=0;dashed=0;html=1;strokeColor=none;fillColor=#4495D1;labelPosition=center;verticalLabelPosition=bottom;verticalAlign=top;align=center;outlineConnect=0;shape=mxgraph.veeam.2d.alert;" vertex="1" parent="1">
          <mxGeometry x="32.5" y="-260" width="20" height="20" as="geometry" />
        </mxCell>
        <mxCell id="FuRbYXdG-T8dkK0esf20-11" value="Визуализация" style="text;html=1;align=center;verticalAlign=middle;resizable=0;points=[];autosize=1;strokeColor=none;fillColor=none;fontSize=8;" vertex="1" parent="1">
          <mxGeometry x="361" y="-280" width="80" height="20" as="geometry" />
        </mxCell>
        <mxCell id="FuRbYXdG-T8dkK0esf20-14" value="" style="group" vertex="1" connectable="0" parent="1">
          <mxGeometry x="344.58" y="-374.19" width="32.89999999999998" height="28.879999999999995" as="geometry" />
        </mxCell>
        <mxCell id="StmvnQxwodWVfL008fLS-10" value="&amp;nbsp;Redis" style="image;sketch=0;aspect=fixed;html=1;points=[];align=left;fontSize=12;image=img/lib/mscae/Cache_Redis_Product.svg;shadow=0;labelPosition=right;verticalLabelPosition=middle;verticalAlign=middle;shadowOpacity=50;" vertex="1" parent="FuRbYXdG-T8dkK0esf20-14">
          <mxGeometry x="1.420000000000016" y="1.8199999999999932" width="30.05" height="25.25" as="geometry" />
        </mxCell>
        <mxCell id="FuRbYXdG-T8dkK0esf20-13" value="" style="shape=image;verticalLabelPosition=bottom;labelBackgroundColor=default;verticalAlign=top;aspect=fixed;imageAspect=0;image=data:image/png,iVBORw0KGgoAAAANSUhEUgAAAPYAAADYCAYAAADYtB6OAAAAAXNSR0IArs4c6QAAAARnQU1BAACxjwv8YQUAAAAJcEhZcwAADsMAAA7DAcdvqGQAAB4nSURBVHhe7Z0LkFxVmce/7nk/MklgkpmQSSTBgAgBBFQUAWXjyooVUKKStWp3S9Z1oagSXCl2VWrXxdpaBEV2FVZBKF7GgAGDsoQFlFfkjYSQYIAhT5IJec77PbP3f/t8yaXTM327+957vnP6/Kyu6XsmODPnnt/9vvOdc2+nxj3I4XBYRVp9dTgcFuHEdjgsxIntcFiIE9vhsBAntsNhIU5sh8NCnNgOh4U4sR0OC3FiOxwW4sR2OCzEie1wWIgT2+GwECe2w2EhTmyHw0LcbZsWM7x9G/W98CwNv7ONRna843/l9qoj2vz3VbPbqO7Uj2bee231Hz7Nf+8wGye2RUDYzt/8mvpffM4XuhggOuSG7FPPW6JaHabhxDYcyLz37tup+6EHaHTXu6o1Gpzk5uLENpDdDzxA+5bfTWOvPq9a4sdJbhZObENgmYf+9BxVVqRUqx4gedPiC3zR3ZxcJk5swXS/+AJ1XH+dP2euqdYr80Sw5M2XXKZaHBJwYgtk34MP0M4bfkipHVtUi3w4VedI7tCLE1sIHJ2TnDfHBUfxqecvObCs5kgWJ7ZGUNHec8et1LliOdFAn2q1B1dw04cTWwN+dP7+v9JY++uqxX5cwS1ZnNgJcSA6332bailfIPnhF3/DRfEYcWLHCMvc9ej/0fjOd1Srg3EFt/hwYsdA3NG59eprqeuBFf7eb/wsG+BU3S2bRYMTOyIgGPZp773zNhrv6VKt8YDoNufWZf57/Mw9N90Qu+BIm/Ezit2DHhYXxaPBiV0iGOh7l91BvY88pFqSYf6qp3wJGPweXStXZO7mikhyyOxXtM/PzIU3LJznf00KjuJu2axwnNhFwNEZkVIXwaidDeTG71ZMdM2WmcHf23HVFeooWTiKu2Wz8DixQ8Iyd963nEZ2dqhWvWCunS1gEIiN7aj4vSeL4hPJHKTju1dQ58pfqyN9uCgeDid2HiRE54nAwEbUDqbkE8FRnAtukLnpvHDzWPw3b59zhjqSgz8X9/4GF8UPxYmdA4nReSJQRcaacJzggrD7xh+rI3lwFIfoYS5U5YATOwCExiCG1KZQSNQulqSLZqWAfnCbX5zYolPtsMQZtaVH64mA4H6qXqbLZmUrNgZrKc8GkwSiU+v3r1VH0fL2Z87wL34mw6l6OW1+KSuxbYjOTJhKdqlILZoVSzlFcevFZpl5C6bJBAdlnHPqINx3NmQ2QWyP4taKbVt0xhw6KZlzEXZN3DRsjeJWiW1TdIbMYdeZkwaSR719VQIcxW3Y/GKF2Bhcpi1T5SKJeXPUQG70PW98sQGO4iZvYTVWbI7ONqTaiA6canOk0Jl2FwtfXG2M4hDdpFTdOLGxX5nnerYDyVnw4PvKWbNztksAkRtTIdsEB+hnUza/GCG2TdE5TrIvBFGn9Zxuc/0CF1jAFXPbRJ4I9DGit+SCm2ixbdpEoot8d4AFgbDc1+UqbaFAconLZuLEdtE5WhC5w+wlh9SmbEbZNzxMPd5rTn29atGPtCguQmyW2YZlKomE2UuOC6nkPeHD3jDdPzJC+z2hh7z3L+3aRVMqK2l+YyMd5b0avfdS4Ciuc9lMq9guOidH9qOUspG6J7x7dNQXust7BYHYQRC9IfhcgVFcx7JZ4mKLjc7pNFUedjhV4NXUROkp3quugVJ1tZSqqqJUusLrrRSNewNt3Isa44MDNNbXR2Pd3TTa3Umje/fQ6L69/vckggE22aOUtn51qTrST3Z0zkW22EwDonhDgy95k3fepMBRHOchiVQ9MbElReeqtrlUs+Boqp73fqo+ch5Vzz2SKlFRnnWE+hfFMbLrXf/vHN6yiYY2e6+336LBt96goY3t6l/oZaJCmpTHHk0UnXMxkdhBZtfV+YIf6YkuCUge97JZrGJLic7V899PdQtPpJrjFlLtB46n2mOPo1RtrfpuzHiDdeDP62jw9fU0sH4t9a99hQb/vF59M1lyFdJ0F83CROdchBGbqauoODAXnyYsiiN6x1Fwi0VsCI3IDKl1UTljJjWcfqb3OovqP36Gl15PVd/Ry/jQEPX+8UnqXZ15DW/drL6TDNmFNF1Fs0Kicy4KETvILERxL4JDdElwqh7VsllkYktJtRGNGz65iBrP+guq9SK0ZJCq9zzxe+p5/FHqf/kF1Ro/XEhLOloXG51zUazYTE06fSCKH1ZdrVr1E5XgJYstIToDFLumXXAhTb3gy968eb5qNQPMzfHgxM4Vv6LhHdtVa3xwIS2paF1qdM5FqWIHafGmZRAcRbd0KqVa9VKq4EWJLWXuzNSd8hGa9qWvUNNnF6sWM+l98g+0/567/CgeNyikxfkBAFFG51xEKTZThSiuKurNNTWqVS8oduJcFUrBYuMKrzvdDlLvSd38zX+muhM+pFrMZmjLJtr1o/+knsceVi1mEUd0zkUcYgeZ4YnNqXql5ijOGVYhhBYba524wktae0bKPeOf/oUavTm1TfS/8hLt+uF/eF9fVi2yiTs65yJusZkKT2pfcC+Sz0xqJSWLypZWOurRZ9RRONLq66RgjRMbGCRJDRo/tcg6qUHdSafQlM+cq47kgui8dXCQ3ujro3eHhhKTOklGvb/pze5uWtXRQQ9u306vd8X7Saq5KOZDK/KK7Ufq7+r5MLZ81J9qzo3vhZLE7qRiQHTe5UXmNz2ZtwwMxJ5yS+GIujr64NSpdGxTk2pJjt3DQ+pdePKKLWk+nU1l6yz1zj6qZs9R7+Tgp9ye1Emm3Dqpr6ig4z2Zz5s9mxa1tNA8DTvYhsbGaFN/vzoKT16x961fq97JQ9rUIEok/m1V3nxzRnU1Laivp7nefLNJ0B1VUdLm/X1nzphBS+bMoZOnT6epmnarQeoNfb3qqDDyR+y9e9U7efQ8+Zh6Zx/dDz+o3slkihfN5tTU0NGeBDM92avToco1YsFtnydMm0afb5tNZ8+cqX1/+fbBQXq1p5sGPbmLIb/YXn7fLXQe1bliOXXef486sgfsRNt/33J1JBs/insRbYE3BzUxiuM2z096In+hrY1O8sSeUql3LzlH6e2DA6qlOPKKjSvGpoF+/weKw5vn7bvjF9S5coVqMJ+ePzxCe2/7GY3u2a1azMGUKI7bOSHxBZ7MkFrCPdzwi6N0FIE07zr23e87zP+KvbWHV1XTEUJ25ASpmDadDvvbv6fp3ivl/Y6msn/5XbT39lsSvzEkTnrUhpXOiLO+YtaxkV5jTbrNyy6kAKF3Dw/njdBf2VzYlDi02AwEP6a+QeTVeMqic2jKOZ8zYg04SO9Tj1PXqt9R96rf+nd/2cgIKuqe3HgVO28MElZs3KbJO8hw+6YUwgrNxC424Ojd7HWaOMG938cX3Hs1ei88/UQqPY8/Rj2PraLuR1bRWG+ParWfKKJ4PrEhM/Z9Y/1ZEoUKzSQiNiM5PQd1HzrF38SCm0SwmyutudI57g1kbBftf+l56sNjlZ9drb5TnpQSxXOJjdsvOTpjbEqiWKGZRMVmREdwRc2CD1DtwhOp9vgT/Pu0a445llIV8VdwB9/c4D85ZeC1V73XGv+r41AQxRHBIXkYWGzcnuHfcum9WjXt5Z4MLooVs3ssiBaxGQg+xZPlcE9wPBpWMnjOWdWcuZnXEW1U2TKLqlpaqeLwZqr0Xri/OwxIofEgw5E9u2nk3Z000rHDv611eNtWGtq6mYY2ve39I4ErCkLB3myO4gOT9Nvmrq4Dt1jidktpQOQdntBR1BOAVrGDQPJZXorebGKVOpXyH6WU8uZnae+VwtomF168yIKUenxggMb68ZTSLv/JpeUELoS4eMVNr5qLB6P4NC9gTPde2O4pDU63sfcjKqEZMWIzJqTpjkPBTSgQGE/ywIcA+scaHqcEOIpP9YTWfW90LkqdP4dBnNiMSWl6uQBx+S4yPNQe4rLME4Hbd3HHnyO6+XMYxIodxOg03UA4+kLeA8eTyDsREFrSBwvoAjLHkW5PhhFiMy5Njw6OvsHU2W8vQuBc6EjBJZFEuj0ZRonNuDQ9PPzpEaVG30Ip1xRct9CMkWIH4SguddNLEnDqHIy+Scg7EUk9plgSOtLtyTBebMb2KF5M4UoH5ZSCS4nOubBG7CCmF9sgMB7+zu+lyTsZ5ZCCSxaaKVRsIypWSIfw3Ke1Pd1+ioQTYRIQAx+uYJLQACm4zVJjLGFM4R5oyVIXgxEROxuT03Sk2/h0B0RwyaLbmoKbEJ2zSTc109K1b6ijcBgpdhCTi21Iy/HJlzzXloRtKbiJQjMVM+fRhS+8pI7CYbzYjMlRnOfgUubfNlXBpVW3C2VkrILqjj6ZvlTgRz7lFft3f3kGdW5Yp47MwORiG9apm86L/oPQw2JDCm5ydA4yNFpJvcPVNO/sT9G5y+5UreHIWzybedrH1TtzMLnYxh+nhBc+0RSiJQl+rqngPON8m14MGxtPUfdQjS81aJjV4n8thLwRe+9ra+m3f3U2VabNvjUR6TnSdFOjOObicafppqbgUd/7rBOk3hAacjOLrr+OPvDXF6qjcOQVG7x07XX06g0/oOqKaJ80qQMutpm4P52LbXFsZEGhzKRobUu6zUBkCA2xg7SedCItKeLDI0KJDZ64/HJ6655fUm3lsGoxG1dsO4hJ82obhcZcun/k0IduFis1CC022N/eTo987evU9+Ya41PzIOW+ZGbC0pZN6TaoSqWp0vvf9v5Dg0pjawstWPw5Ov3q76mWwilIbGbtzb+g9b/4GQ28s9E6wcstiktOwW2LziATRKq8IJJ58GL/6DjtGx6n7QNjNHzYzJKFZooSm0EEf+LSf6SudS9TOlX0/41IcAJMXjILU2yTmoLbKnS+8YTzhYtz8yWXqZbiKUlsZs8zq+nVb3+Lure0i/0Av2LhNN3GYpu0FBxjZ48ndBKPGkoKTO8wfjCOwhKF4CWJjUGBmxuw3spgDoS5kE0nh8HVtrGywrgonmt/upSlLY7OJu8OyyY73S4WnKs5ty7zz1+hFCU2BgSEnmzzBE4SThY2DNgGR3FTi20QvOOqK1SLHsph/hwFkLv16msLLo4WJHYxhRYI3j2aSbFsTNNtfhhEHEBoXOxtyugwDuKsx0Du+aueUkfhCC12FPMxm9N0k6N4Eph+M0Yuipk/F8v8h58qKCUPJXbURZZySNPxIfDlHsVduh0dbQ89QQ1tc9VRfvKKjblYsDgWJTan6cDk/eml4ISOFtzQ9InHn49W7PZFH6ORnR3qKD5cmm4+Ns6fcVHG/DmJdDsX6EuIff7qV6IVe82HP0i1A/3qKH44TUcUt2k+BjA4bCy22TZ/1hmdg6BfOespVOy8l6F9IT9ONirQqejQo+sb6Mi6OqsEwMDHFXhDX69/r7jpkQ0DL3PP+4AVUmfGXg0tbJyiVWpkPhgjpUxl8ordX1/vn8CkQScjDTrGEzzT0XalsRDBxIdBcLr9YlenNUIjeBwcZ/qjNB4UUWrNKa/Y42Pj/gnUITfDURwdb2MUR//iCg3RpRYRWWhbHtUbjM6QWveYwnnn7CcKQlcE8APxg3VGluwoblO1WWqabrPQCBY41gn6F+ccryizn4L+KvzgTO6vf/0ZJwTRO3OC9FUt4wD9HEzTdWCb0IjIB8eL3nQbsNBRpN25yFsV/9/Pfor2rVujjg4CkSQt4UAGm7euoq+TuMMMA86WNehMv1X5fSflwo+xuWmgv+DoHPly10RiM9IEB+g0G3e2oa/jWC5jmW1ZsmKhJURmBmOxlP5NXGyGBZd037LtUbwUyVlmYEN0BugH9IeU2kuU2Y82sZm4okqpQHKbd7bhYlqTSvv3i+MrtzNd3gVuaCxzqm3cTCIp3Y5jOqNd7CDoaGmPF8KAxsC2cWdbOcFCS0q3ITRS7jiCR+Q7z0oB4kjbhIEBEVwTt2nJrByQVt0GGNsY46hwS8kIE8ldIDjSEpT3JW3CgNTBJTOHTDIX44ObSSRcjDk6S92Bl+ikBH+8xE0Y2VFcUm2gnAkKjfODY92w0NLX97X1lNQ0HdHA1v3ppoDzIDndliw0o/0SKDVNd1E8WYLRGS+XbpeG/txGkZ2mo0MlkB3FJQw4mwgK7dLt6BAjdhCO4hBcWhQPFtskDEJTeW9fyki3Mc5MSrcnQ/TIzI7i0optNj4MIm6kptsYXxhnJqXbk2FMyEGHu2KbmWQuhDV0atNU/4IoIdPJTrdtEZrJ28NjwvZYc5ruim3yYaGlpdsYNyal2+mm5oJ2nQFjJ4nZabortskBfSBp/pydbkuZ0oUlPaVZvQtPXrHTBkQejuI4ca7Ypg+p82eT0+3uoRpqfN9R6ig8eUda86kfUe/kkx3FXbEtfjJ/m6z5s4npdjZj4ylf6pGxCmqY1aJaw5P37q69r62lh849Sx2ZBwaatPvEAS5CJj8MItOvcu6uQnS25WERkBlSM5+/dxnNPvMMdRSOvGKDF/7tu/TGbTeqIzPBQJR6n7hJD4OQKrSpkTkIovTQaCX1j1SpFqLWk06kJQ8/qI7CE0ps0L7iHvrj5RdTOhXqn4uGozhSSElAbAgusbgjTWjJfVUMA57MQaHBgnPPoc/ceos6KozQYoMdq5+mZ79zJfVtfF21mI3kKC4lTZcktE3pNjOjqoa6hytoRyDhaGxtoVMuvYQWfu0i1VI4BYnNvPbTG2jtf11LYwN9qsV8MIDd014OIqk/bEq3GWSLwcc59Y+OU09lLVWffhZ95Kaf+W2lUJTYoHfbFtq48n5ad+P1NNLTpVrNJxOhyvehjPj7j6yVUbnn5Spb0m0AofNlP1PPX0KHX/yNgj7oPpuixQbD27dRx+230Lb77qF3dr9rTXoEMMDL5aGMmYuZS7fjopj+rZrdRk2LL6DmSy5TLYVRlNgQGh+Gv+emG1SLedXdQuAoLqnYxv3dMzJalOQ82HDxkhKdbUu3o7hgQvA5ty4rOHoXJHYuoXMRR1SRAE6U1CgOWHQwOH4w2uFxxNXplP9eisiMjek2xkmU9Yn6D5/my10IocXefeOP8wqdDQaclOpu1ER98soNjAmb0m2QXRCLitS06dT2oxt9wcMSSuyOq67wI3WxcNpoc5oubWebRFy6XTxtDz0R7QcG9L3wLG396lJ1VDouTS8/nNClAVdOevSZaD8woOuBFepdNKBDbLzjCRcsnABpt5HqBNkZ+sOGRw0xmHrxHWxJSI0+xA0thZI3Yr962vFU09urjqLH9jS9HKO4bfNnjs5xzJ8ngy+MIPKP+Omuq1fv4gEdhaugjQ8myI7itk0/gnB128RH9U4ExiaySo7OSUqNvmSpiyHvb9o7dbr/Q5IAHWfrgwkw0JFScZoOEWyAhbYp3X7vOIw/3Q6C/oTQpfZlXnNGRzK7gJKSG2SulHY+mACC46Th5El62kuhYACa/jCDIJkxp+8JMMELZBRjIq/Y42PjBwZjknIDdHYwTUfH24KpaTpHFAxAG6YWQaGTTreZODKegv4K/GAMQh1RhqM4ToCNUVx6mh4U2oYiJ8aTrnSbwbnmmkTU5K2KT/TB937HaL4LCEK4NfF4gcSbBvr9vjYd9KuO6nYQXCCLWdNP7IPvcaJ1zxPfe9W1d01cR/8imuBn43cwXWqMC93pdnAOHUeEzqbkv5AHoG7BbS62seAYGHHCgy/zs8xfsnrvhV9Pup200EzRqfhEoDMl3ByBQWnjDSjoX6SSUyoqIruAFZseSiTTP3rTbYAgt31oMLJgV2gqHrnYDA9A3ZVsCG77DSiFSs4iAxtkBiy0rsjMIJDEsetOjNgMOlxKIQidbWOxDXB0Ql/jLjO+/xoMjWVOMS5wkNr0FDsI/m7dGWISGY84sYNIOAmA03REcZsGebnA0Vl3up3kFCaxqngxQCIJ67UYDEjZUFTB5hfdFxpHODLnTW91G3CBMemCWCFo6RkIjg7RXU0HmB4El8wc8oDAUqrbptzkoi+P8UDnBNdrdc59g1HctiUzU+HojJeurIqFlhydc6FV7CCS0nQMIhv3p5sAp9u6P70TWSQCjmlCM2LEZiSl6cEojsHmonh8oK+lpNsILhh/Ji+PihObyU7T0eG6YMERxV2xLVokptvS589hECt2EI7iEFxasU1XqmgymQuljHQb48nUdHsyEl3HjhIMBilr4rbubIsanDPdu8MQnbH2bNoz2b6yea96F468l8oxoYMVJ8UV28wAWc7B/pFxM4ZJUlfMnKfehcf4PJLTdInFNl0ppgQyfZGZP0NqXYVH09NtfCB+uqlZHYUn78hLG1IJhuDSim08qMup2BYUWtf8Obu6beq9AZC633s1zJypWsKTt9ePuehi9c4cOIpLLLbZSrbQOrCluj02nqLuoRpfatAwq8X/Wgh5i2eDe/fR/Z8+i0Z3b1MtZoKB54pt0SOhX1loUyNzEI7SQT5/7zKafeYZ6igcecUG+9vbacWZH6faysw9vCaDgYi7giR8iB4kN/U2Uj8Tqa3TkmoDyGxidXsiRsYqqHe42o/WQT70DxfR6Vd/Tx2FJ5TYAHKvXLyY0t0dlE6F+k/EgyjTWFkhIoqbchsp0m2dt0uy0CYWwnIBkSE0xM6mWKlBaLEB5F7zk5/QW/f80orozXAU1z0HlpymSxDalnQbTCZ0Y2sLnX3dNTT304tUS+EUJDbDgr99791UXWH+PJHBoHVPe3kvOoW2Ld0GE6XcIAqhmaLEZiB4+33305t33kyjnbtUqx1IiuIY2Eku32X+dn07xGxLtwGKYoOjlYcIDZkXLP4cHfd3f0PTjjpKtZZOSWIH2bH6aXr2O1dS38bXVYsdsOBRPhW0GFjwOOfhEoS2Ld0e8mTOrnIDFrrYOXQ+IhObgeAvX/N92r/medViDxAbA19nsQ1SRzkPZ5l1zp8hs03p9kRCxxWdcxG52Ezvti20/paf08bf3EvD++xM03UvmRUrOcuMeoKuLMTGdBtCQ2ZIHSTu6JyL2MQOgij+/FVXUk+7fWm6lGIbgOgQZnA8E/nwnsHv6X/V/HuW0/wZy1VJROdcJCI2A8HX/c9/084nH1Et9sBRXHexTSqYN6PKXy7pdpLROReJis0gTd+48n7acMctNNDxjmq1AxZcd7FNAhydy2H+3HrSiXTMki/Qwq9dpFr0okXsIIjif7rm32nfmhdViz1IKLbpoFzSbSnRORfaxWYQxdf9/Ke0ccVyGunpUq12UC5pOoQuh+UqCH3KpZeIic65ECM2w2l6+/K7qGdzu2q1A2nFtqhARd6WD8cHuYROcqkqCsSJHYSj+Ju336xa7AGSS7iNtBRsW39mmU1JtydDtNhMORTbJNxGGgbb5s82ROdcGCF2EEj+4tVX0bZVv1UtdiA9TS8noU2LzrkwTmzG9mKblDTdNqFxd9XgaIUvNaNzI0lcGCt2kNd+egNtefhB65bMOE3XUU23SWiOzsHlKpuicy6sEJuxtdiW5DzcRqGD6faCc8+hIz72MdFLVVFgldgMF9tsWzKLcx4OoW1Zg85Ot22PzrmwUuwgtkfxUraulkO6LX0jSVxYLzZjaxQHHMnxYMaaVNo/Bpy2Q2DQNTrivR/3b/W04dHHIDvdtmGpKgrKRuwgkNzGJbNywqXbk1OWYjOcpm9euYKG9hf2aYaO5MlOt110npiyFpuB4DufeZreuOs22vPKS6rVIYWJ0m0XnSfGiZ2FrcU2E4HQkJnTbRs3ksSFE3sCOIqvv/km6tywTrU64maidNtF58JwYofARfH4yU63sZHk2KUXRvLw/HLEiV0ALPiOx39v3ZKZLoLptovO0eHELpKdzz5Nf77tZrdkViTBRw1B6HLdSBIXTuwS4SjulszyE0y33VJVvDixI4KLbW7J7FByCe3S7XhxYseAK7ZlwO6w/pFKqp15hIvOCePEjpFyjeI8f65vaXXRWRNO7ISA5DbvTw+m224jiX6c2AkDwdvvXUZrf3yNajEbFrqiuc1FZ0E4sTVhepoOoRGdj7vo6y46C8SJLQCT0nQIPTalld7/hSUuOgvGiS0ITtPf+tWd1N+xXbXKgIU++bJvuo0kBuDEFoikNH28spbmLP4ynXX99arFYQJObOFA8me+dakvepLUts6mhZd9m45eulS1OEzCiW0InKbHXU2fu/iLdPKV36GGtrmqxWEiTmzDYMHf/vUy/30UQOL5S5bSCZdfqVocpuPENhiW/N3nVheUqkPkxjlzaeZHT6ejvrjURWcLcWJbAiTv8V69W7fQzuf+qFoP0jB7DjW2zaEGT+iW0z6hWh224sR2OCxE/gcyOxyOgnFiOxwW4sR2OCzEie1wWIgT2+GwECe2w2EdRP8PYqMvQ0uMBTEAAAAASUVORK5CYII=;" vertex="1" parent="FuRbYXdG-T8dkK0esf20-14">
          <mxGeometry width="32.9" height="28.88" as="geometry" />
        </mxCell>
      </root>
    </mxGraphModel>
  </diagram>
  <diagram id="Ct3GaxC1-04902bjBPyD" name="GraphGen">
    <mxGraphModel dx="1434" dy="870" grid="1" gridSize="10" guides="1" tooltips="1" connect="1" arrows="1" fold="1" page="1" pageScale="1" pageWidth="827" pageHeight="1169" math="0" shadow="0">
      <root>
        <mxCell id="0" />
        <mxCell id="1" parent="0" />
        <mxCell id="g0uyKq4RoqaUNDbeZ5XI-20" style="edgeStyle=orthogonalEdgeStyle;rounded=0;orthogonalLoop=1;jettySize=auto;html=1;exitX=0.5;exitY=1;exitDx=0;exitDy=0;entryX=0.5;entryY=0;entryDx=0;entryDy=0;flowAnimation=1;strokeWidth=2;" parent="1" source="L4aPk8wqgFElUQz4Rx-_-1" target="g0uyKq4RoqaUNDbeZ5XI-2" edge="1">
          <mxGeometry relative="1" as="geometry" />
        </mxCell>
        <mxCell id="L4aPk8wqgFElUQz4Rx-_-1" value="" style="shape=image;verticalLabelPosition=bottom;verticalAlign=top;imageAspect=0;aspect=fixed;image=data:image/svg+xml,PHN2ZyB4bWxucz0iaHR0cDovL3d3dy53My5vcmcvMjAwMC9zdmciIHZpZXdCb3g9IjAgMCAxMjggMTI4Ij4mI3hhOyAgICA8cGF0aCBkPSJNNCA2NGMwIDUuNTM1Ljc3NyAxMC44NzkgMi4wOTggMTZIODRjOC44MzYgMCAxNi03LjE2NCAxNi0xNnMtNy4xNjQtMTYtMTYtMTZINi4wOThBNjMuNzM4IDYzLjczOCAwIDAgMCA0IDY0IiBmaWxsPSIjMzQzNzQxIi8+JiN4YTsgICAgPHBhdGggZD0iTTExMS42OTUgMzAuNjQ4QTYxLjQ4NSA2MS40ODUgMCAwIDAgMTE3LjkyMiAyNEMxMDYuMTg4IDkuMzc5IDg4LjE5OSAwIDY4IDAgNDIuNzE1IDAgMjAuOTU3IDE0LjcxIDEwLjU3NCAzNkg5OC4wNGEyMC4xMjMgMjAuMTIzIDAgMCAwIDEzLjY1Mi01LjM1MiIgZmlsbD0iI2ZlYzUxNCIvPiYjeGE7ICAgIDxwYXRoIGQ9Ik05OC4wNCA5MkgxMC41NzdDMjAuOTYxIDExMy4yOSA0Mi43MTUgMTI4IDY4IDEyOGMyMC4yIDAgMzguMTg4LTkuMzgzIDQ5LjkyMi0yNGE2MS4xIDYxLjEgMCAwIDAtNi4yMjctNi42NDhBMjAuMTMzIDIwLjEzMyAwIDAgMCA5OC4wNCA5MiIgZmlsbD0iIzAwYmZiMyIvPiYjeGE7PC9zdmc+" parent="1" vertex="1">
          <mxGeometry x="230" y="100" width="120" height="120" as="geometry" />
        </mxCell>
        <mxCell id="g0uyKq4RoqaUNDbeZ5XI-21" style="edgeStyle=orthogonalEdgeStyle;rounded=0;orthogonalLoop=1;jettySize=auto;html=1;exitX=1;exitY=0.5;exitDx=0;exitDy=0;entryX=0;entryY=0.5;entryDx=0;entryDy=0;flowAnimation=1;strokeWidth=2;" parent="1" source="g0uyKq4RoqaUNDbeZ5XI-1" target="g0uyKq4RoqaUNDbeZ5XI-2" edge="1">
          <mxGeometry relative="1" as="geometry" />
        </mxCell>
        <mxCell id="g0uyKq4RoqaUNDbeZ5XI-1" value="" style="shape=image;verticalLabelPosition=top;labelBackgroundColor=default;verticalAlign=bottom;aspect=fixed;imageAspect=0;image=http://10.29.14.12/static/img/logo-1.png;labelPosition=center;align=center;shadow=1;shadowOpacity=50;" parent="1" vertex="1">
          <mxGeometry x="40" y="289" width="121" height="121" as="geometry" />
        </mxCell>
        <mxCell id="g0uyKq4RoqaUNDbeZ5XI-11" style="edgeStyle=orthogonalEdgeStyle;rounded=1;orthogonalLoop=1;jettySize=auto;html=1;exitX=1;exitY=0.25;exitDx=0;exitDy=0;strokeWidth=2;flowAnimation=1;curved=0;" parent="1" source="g0uyKq4RoqaUNDbeZ5XI-2" target="g0uyKq4RoqaUNDbeZ5XI-10" edge="1">
          <mxGeometry relative="1" as="geometry" />
        </mxCell>
        <mxCell id="g0uyKq4RoqaUNDbeZ5XI-13" style="edgeStyle=orthogonalEdgeStyle;rounded=1;orthogonalLoop=1;jettySize=auto;html=1;exitX=1;exitY=0.75;exitDx=0;exitDy=0;strokeWidth=2;flowAnimation=1;curved=0;" parent="1" source="g0uyKq4RoqaUNDbeZ5XI-2" target="g0uyKq4RoqaUNDbeZ5XI-12" edge="1">
          <mxGeometry relative="1" as="geometry" />
        </mxCell>
        <mxCell id="g0uyKq4RoqaUNDbeZ5XI-2" value="" style="rounded=1;whiteSpace=wrap;html=1;fillColor=none;" parent="1" vertex="1">
          <mxGeometry x="230" y="290" width="120" height="120" as="geometry" />
        </mxCell>
        <mxCell id="g0uyKq4RoqaUNDbeZ5XI-3" value="" style="shape=image;verticalLabelPosition=bottom;verticalAlign=top;imageAspect=0;aspect=fixed;image=data:image/svg+xml,PHN2ZyB4bWxucz0iaHR0cDovL3d3dy53My5vcmcvMjAwMC9zdmciIHZpZXdCb3g9IjAgMCAxMjggMTI4Ij48bGluZWFyR3JhZGllbnQgZ3JhZGllbnRUcmFuc2Zvcm09Im1hdHJpeCguNTYzIDAgMCAtLjU2OCAtMjkuMjE1IDcwNy44MTcpIiB5Mj0iMTE1MS4wODkiIHgyPSIxNzAuNjU5IiB5MT0iMTIzNy40NzYiIHgxPSI3MC4yNTIiIGdyYWRpZW50VW5pdHM9InVzZXJTcGFjZU9uVXNlIiBpZD0icHl0aG9uLW9yaWdpbmFsLWEiPjxzdG9wIHN0b3AtY29sb3I9IiM1QTlGRDQiIG9mZnNldD0iMCIvPjxzdG9wIHN0b3AtY29sb3I9IiMzMDY5OTgiIG9mZnNldD0iMSIvPjwvbGluZWFyR3JhZGllbnQ+PGxpbmVhckdyYWRpZW50IGdyYWRpZW50VHJhbnNmb3JtPSJtYXRyaXgoLjU2MyAwIDAgLS41NjggLTI5LjIxNSA3MDcuODE3KSIgeTI9IjExNDkuNTM3IiB4Mj0iMTczLjYyIiB5MT0iMTA5OC44MTEiIHgxPSIyMDkuNDc0IiBncmFkaWVudFVuaXRzPSJ1c2VyU3BhY2VPblVzZSIgaWQ9InB5dGhvbi1vcmlnaW5hbC1iIj48c3RvcCBzdG9wLWNvbG9yPSIjRkZENDNCIiBvZmZzZXQ9IjAiLz48c3RvcCBzdG9wLWNvbG9yPSIjRkZFODczIiBvZmZzZXQ9IjEiLz48L2xpbmVhckdyYWRpZW50PjxwYXRoIHRyYW5zZm9ybT0idHJhbnNsYXRlKDAgMTAuMjYpIiBkPSJNNjMuMzkxIDEuOTg4Yy00LjIyMi4wMi04LjI1Mi4zNzktMTEuOCAxLjAwNy0xMC40NSAxLjg0Ni0xMi4zNDYgNS43MS0xMi4zNDYgMTIuODM3djkuNDExaDI0LjY5M3YzLjEzN0gyOS45NzdjLTcuMTc2IDAtMTMuNDYgNC4zMTMtMTUuNDI2IDEyLjUyMS0yLjI2OCA5LjQwNS0yLjM2OCAxNS4yNzUgMCAyNS4wOTYgMS43NTUgNy4zMTEgNS45NDcgMTIuNTE5IDEzLjEyNCAxMi41MTloOC40OTFWNjcuMjM0YzAtOC4xNTEgNy4wNTEtMTUuMzQgMTUuNDI2LTE1LjM0aDI0LjY2NWM2Ljg2NiAwIDEyLjM0Ni01LjY1NCAxMi4zNDYtMTIuNTQ4VjE1LjgzM2MwLTYuNjkzLTUuNjQ2LTExLjcyLTEyLjM0Ni0xMi44MzctNC4yNDQtLjcwNi04LjY0NS0xLjAyNy0xMi44NjYtMS4wMDh6TTUwLjAzNyA5LjU1N2MyLjU1IDAgNC42MzQgMi4xMTcgNC42MzQgNC43MjEgMCAyLjU5My0yLjA4MyA0LjY5LTQuNjM0IDQuNjktMi41NiAwLTQuNjMzLTIuMDk3LTQuNjMzLTQuNjktLjAwMS0yLjYwNCAyLjA3My00LjcyMSA0LjYzMy00LjcyMXoiIGZpbGw9InVybCgjcHl0aG9uLW9yaWdpbmFsLWEpIi8+PHBhdGggdHJhbnNmb3JtPSJ0cmFuc2xhdGUoMCAxMC4yNikiIGQ9Ik05MS42ODIgMjguMzh2MTAuOTY2YzAgOC41LTcuMjA4IDE1LjY1NS0xNS40MjYgMTUuNjU1SDUxLjU5MWMtNi43NTYgMC0xMi4zNDYgNS43ODMtMTIuMzQ2IDEyLjU0OXYyMy41MTVjMCA2LjY5MSA1LjgxOCAxMC42MjggMTIuMzQ2IDEyLjU0NyA3LjgxNiAyLjI5NyAxNS4zMTIgMi43MTMgMjQuNjY1IDAgNi4yMTYtMS44MDEgMTIuMzQ2LTUuNDIzIDEyLjM0Ni0xMi41NDd2LTkuNDEySDYzLjkzOHYtMy4xMzhoMzcuMDEyYzcuMTc2IDAgOS44NTItNS4wMDUgMTIuMzQ4LTEyLjUxOSAyLjU3OC03LjczNSAyLjQ2Ny0xNS4xNzQgMC0yNS4wOTYtMS43NzQtNy4xNDUtNS4xNjEtMTIuNTIxLTEyLjM0OC0xMi41MjFoLTkuMjY4ek03Ny44MDkgODcuOTI3YzIuNTYxIDAgNC42MzQgMi4wOTcgNC42MzQgNC42OTIgMCAyLjYwMi0yLjA3NCA0LjcxOS00LjYzNCA0LjcxOS0yLjU1IDAtNC42MzMtMi4xMTctNC42MzMtNC43MTkgMC0yLjU5NSAyLjA4My00LjY5MiA0LjYzMy00LjY5MnoiIGZpbGw9InVybCgjcHl0aG9uLW9yaWdpbmFsLWIpIi8+PHJhZGlhbEdyYWRpZW50IGdyYWRpZW50VW5pdHM9InVzZXJTcGFjZU9uVXNlIiBncmFkaWVudFRyYW5zZm9ybT0ibWF0cml4KDAgLS4yNCAtMS4wNTUgMCA1MzIuOTc5IDU1Ny41NzYpIiByPSIyNi43NDMiIGN5PSI0NDQuNDUiIGN4PSIxODI1LjY3OCIgaWQ9InB5dGhvbi1vcmlnaW5hbC1jIj48c3RvcCBzdG9wLW9wYWNpdHk9Ii40OTgiIHN0b3AtY29sb3I9IiNCOEI4QjgiIG9mZnNldD0iMCIvPjxzdG9wIHN0b3Atb3BhY2l0eT0iMCIgc3RvcC1jb2xvcj0iIzdGN0Y3RiIgb2Zmc2V0PSIxIi8+PC9yYWRpYWxHcmFkaWVudD48cGF0aCBkPSJNOTcuMzA5IDExOS41OTdjMCAzLjU0My0xNC44MTYgNi40MTYtMzMuMDkxIDYuNDE2LTE4LjI3NiAwLTMzLjA5Mi0yLjg3My0zMy4wOTItNi40MTYgMC0zLjU0NCAxNC44MTUtNi40MTcgMzMuMDkyLTYuNDE3IDE4LjI3NSAwIDMzLjA5MSAyLjg3MiAzMy4wOTEgNi40MTd6IiBmaWxsPSJ1cmwoI3B5dGhvbi1vcmlnaW5hbC1jKSIgb3BhY2l0eT0iLjQ0NCIvPjwvc3ZnPg==" parent="1" vertex="1">
          <mxGeometry x="248" y="308" width="84" height="84" as="geometry" />
        </mxCell>
        <mxCell id="g0uyKq4RoqaUNDbeZ5XI-10" value="" style="image;aspect=fixed;html=1;points=[];align=center;fontSize=12;image=img/lib/azure2/general/Files.svg;" parent="1" vertex="1">
          <mxGeometry x="395.47999999999996" y="290" width="54.86" height="60" as="geometry" />
        </mxCell>
        <mxCell id="g0uyKq4RoqaUNDbeZ5XI-12" value="" style="sketch=0;aspect=fixed;html=1;align=center;fontSize=12;image=data:image/svg+xml,PHN2ZyB4bWxucz0iaHR0cDovL3d3dy53My5vcmcvMjAwMC9zdmciIHZpZXdCb3g9IjAgMCAxMjggMTI4Ij48cGF0aCBkPSJNMTIxLjggOTMuMWMtNi43IDMuNS00MS40IDE3LjctNDguOCAyMS42LTcuNCAzLjktMTEuNSAzLjgtMTcuMyAxUzEzIDk4LjEgNi4zIDk0LjljLTMuMy0xLjYtNS0yLjktNS00LjJWNzhzNDgtMTAuNSA1NS44LTEzLjJjNy44LTIuOCAxMC40LTIuOSAxNy0uNXM0Ni4xIDkuNSA1Mi42IDExLjl2MTIuNWMwIDEuMy0xLjUgMi43LTQuOSA0LjR6IiBmaWxsPSIjQTQxRTExIi8+PHBhdGggZD0iTTEyMS44IDgwLjVDMTE1LjEgODQgODAuNCA5OC4yIDczIDEwMi4xYy03LjQgMy45LTExLjUgMy44LTE3LjMgMS01LjgtMi44LTQyLjctMTcuNy00OS40LTIwLjlDLS4zIDc5LS41IDc2LjggNiA3NC4zYzYuNS0yLjYgNDMuMi0xNyA1MS0xOS43IDcuOC0yLjggMTAuNC0yLjkgMTctLjVzNDEuMSAxNi4xIDQ3LjYgMTguNWM2LjcgMi40IDYuOSA0LjQuMiA3Ljl6IiBmaWxsPSIjRDgyQzIwIi8+PHBhdGggZD0iTTEyMS44IDcyLjVDMTE1LjEgNzYgODAuNCA5MC4yIDczIDk0LjFjLTcuNCAzLjgtMTEuNSAzLjgtMTcuMyAxQzQ5LjkgOTIuMyAxMyA3Ny40IDYuMyA3NC4yYy0zLjMtMS42LTUtMi45LTUtNC4yVjU3LjNzNDgtMTAuNSA1NS44LTEzLjJjNy44LTIuOCAxMC40LTIuOSAxNy0uNXM0Ni4xIDkuNSA1Mi42IDExLjlWNjhjMCAxLjMtMS41IDIuNy00LjkgNC41eiIgZmlsbD0iI0E0MUUxMSIvPjxwYXRoIGQ9Ik0xMjEuOCA1OS44Yy02LjcgMy41LTQxLjQgMTcuNy00OC44IDIxLjYtNy40IDMuOC0xMS41IDMuOC0xNy4zIDFDNDkuOSA3OS42IDEzIDY0LjcgNi4zIDYxLjVzLTYuOC01LjQtLjMtNy45YzYuNS0yLjYgNDMuMi0xNyA1MS0xOS43IDcuOC0yLjggMTAuNC0yLjkgMTctLjVzNDEuMSAxNi4xIDQ3LjYgMTguNWM2LjcgMi40IDYuOSA0LjQuMiA3Ljl6IiBmaWxsPSIjRDgyQzIwIi8+PHBhdGggZD0iTTEyMS44IDUxYy02LjcgMy41LTQxLjQgMTcuNy00OC44IDIxLjYtNy40IDMuOC0xMS41IDMuOC0xNy4zIDFDNDkuOSA3MC45IDEzIDU2IDYuMyA1Mi44Yy0zLjMtMS42LTUuMS0yLjktNS4xLTQuMlYzNS45czQ4LTEwLjUgNTUuOC0xMy4yYzcuOC0yLjggMTAuNC0yLjkgMTctLjVzNDYuMSA5LjUgNTIuNiAxMS45djEyLjVjLjEgMS4zLTEuNCAyLjYtNC44IDQuNHoiIGZpbGw9IiNBNDFFMTEiLz48cGF0aCBkPSJNMTIxLjggMzguM0MxMTUuMSA0MS44IDgwLjQgNTYgNzMgNTkuOWMtNy40IDMuOC0xMS41IDMuOC0xNy4zIDFTMTMgNDMuMyA2LjMgNDAuMXMtNi44LTUuNC0uMy03LjljNi41LTIuNiA0My4yLTE3IDUxLTE5LjcgNy44LTIuOCAxMC40LTIuOSAxNy0uNXM0MS4xIDE2LjEgNDcuNiAxOC41YzYuNyAyLjQgNi45IDQuNC4yIDcuOHoiIGZpbGw9IiNEODJDMjAiLz48cGF0aCBkPSJNODAuNCAyNi4xbC0xMC44IDEuMi0yLjUgNS44LTMuOS02LjUtMTIuNS0xLjEgOS4zLTMuNC0yLjgtNS4yIDguOCAzLjQgOC4yLTIuN0w3MiAyM3pNNjYuNSA1NC41bC0yMC4zLTguNCAyOS4xLTQuNHoiIGZpbGw9IiNmZmYiLz48ZWxsaXBzZSByeT0iNiIgcng9IjE1LjUiIGN5PSIzNS40IiBjeD0iMzguNCIgZmlsbD0iI2ZmZiIvPjxwYXRoIGQ9Ik05My4zIDI3LjdsMTcuMiA2LjgtMTcuMiA2Ljh6IiBmaWxsPSIjN0EwQzAwIi8+PHBhdGggZD0iTTc0LjMgMzUuM2wxOS03LjZ2MTMuNmwtMS45Ljh6IiBmaWxsPSIjQUQyMTE1Ii8+PC9zdmc+;shape=image;verticalLabelPosition=bottom;verticalAlign=top;imageAspect=0;" parent="1" vertex="1">
          <mxGeometry x="470" y="350" width="71.43" height="60" as="geometry" />
        </mxCell>
        <mxCell id="g0uyKq4RoqaUNDbeZ5XI-15" value="Ecstasy" style="text;html=1;align=center;verticalAlign=middle;resizable=0;points=[];autosize=1;strokeColor=none;fillColor=none;fontSize=20;" parent="1" vertex="1">
          <mxGeometry x="55.5" y="410" width="90" height="40" as="geometry" />
        </mxCell>
        <mxCell id="g0uyKq4RoqaUNDbeZ5XI-16" value="Elasticsearch" style="text;html=1;align=center;verticalAlign=middle;resizable=0;points=[];autosize=1;strokeColor=none;fillColor=none;fontSize=20;" parent="1" vertex="1">
          <mxGeometry x="220" y="60" width="140" height="40" as="geometry" />
        </mxCell>
        <mxCell id="g0uyKq4RoqaUNDbeZ5XI-17" value="GraphGen" style="text;html=1;align=center;verticalAlign=middle;resizable=0;points=[];autosize=1;strokeColor=none;fillColor=none;fontSize=20;" parent="1" vertex="1">
          <mxGeometry x="230" y="410" width="120" height="40" as="geometry" />
        </mxCell>
        <mxCell id="g0uyKq4RoqaUNDbeZ5XI-18" value="Redis" style="text;html=1;align=center;verticalAlign=middle;resizable=0;points=[];autosize=1;strokeColor=none;fillColor=none;fontSize=20;" parent="1" vertex="1">
          <mxGeometry x="470.71000000000004" y="400" width="70" height="40" as="geometry" />
        </mxCell>
        <mxCell id="g0uyKq4RoqaUNDbeZ5XI-19" value="Files" style="text;html=1;align=center;verticalAlign=middle;resizable=0;points=[];autosize=1;strokeColor=none;fillColor=none;fontSize=20;" parent="1" vertex="1">
          <mxGeometry x="387.91" y="260" width="70" height="40" as="geometry" />
        </mxCell>
        <mxCell id="g0uyKq4RoqaUNDbeZ5XI-22" value="" style="image;aspect=fixed;html=1;points=[];align=center;fontSize=12;image=img/lib/azure2/management_governance/Resource_Graph_Explorer.svg;" parent="1" vertex="1">
          <mxGeometry x="356.51" y="335" width="31.4" height="30" as="geometry" />
        </mxCell>
      </root>
    </mxGraphModel>
  </diagram>
</mxfile>
